<?xml version="1.0" encoding="utf-8"?>
<!-- Generator: Adobe Illustrator 23.0.1, SVG Export Plug-In . SVG Version: 6.00 Build 0)  -->
<svg version="1.1" xmlns="http://www.w3.org/2000/svg" xmlns:xlink="http://www.w3.org/1999/xlink" x="0px" y="0px"
	 viewBox="0 0 250 140" style="enable-background:new 0 0 250 140;" xml:space="preserve">
<style type="text/css">
	.st0{display:none;}
	.st1{display:inline;fill:#49C6F4;}
	.st2{display:inline;}
	.st3{fill:#F3F7FA;}
	.st4{fill:#FFFFFF;}
	.st5{fill:#E8F5FD;}
	.st6{display:inline;fill:#FFEE8D;}
	.st7{display:inline;fill:#FCEA26;}
	.st8{fill:#212121;}
	.st9{fill:#708DE8;}
	.st10{fill:#0499CA;}
	.st11{fill:#CFE7F7;}
	.st12{fill:#00BDFE;}
	.st13{fill:#009CFC;}
</style>
<g id="background_x27_" class="st0">
	<rect x="-835" y="-470" class="st1" width="1920" height="1080"/>
	
		<image style="display:inline;overflow:visible;" width="1161" height="807" xlink:href="644D7A85.jpg"  transform="matrix(1 0 0 1 -1907 -1277)">
	</image>
	
		<image style="display:inline;overflow:visible;" width="297" height="572" xlink:href="644D7A87.jpg"  transform="matrix(1 0 0 1 -1327 -392)">
	</image>
	
		<image style="display:inline;overflow:visible;" width="795" height="661" xlink:href="644D7A82.jpg"  transform="matrix(1 0 0 1 -1739 194)">
	</image>
</g>
<g id="Large_Cloud" class="st0">
	<g class="st2">
		<path class="st3" d="M380,73.4c0-29.9-22.4-55.5-54.4-66.6c-3-37.8-42-67.7-89.6-67.7c-41.5,0-76.4,22.7-86.7,53.5
			c-15-9.1-33.7-14.5-53.9-14.5c-30,0-56.5,11.9-72.8,30.1C8.2,0.4-9-4.1-27.5-4.1c-49.6,0-89.8,32.4-89.8,72.4
			c0,35.6,31.8,65.2,73.7,71.3c16.4,17.7,42.5,29.1,72,29.1c7.1,0,14-0.7,20.6-1.9c13.5,6.6,29.4,10.4,46.4,10.4
			c29.1,0,55-11.2,71.4-28.5c16,19.7,43.7,32.8,75.1,32.8c35.3,0,65.9-16.5,80.6-40.4C356.1,130.5,380,104.2,380,73.4z"/>
		<path class="st4" d="M367.3,86.1c0-29.9-22.4-55.5-54.4-66.6c-3-37.8-42-67.7-89.6-67.7c-41.5,0-76.4,22.7-86.7,53.5
			c-15-9.1-33.7-14.5-53.9-14.5c-30,0-56.5,11.9-72.8,30.1c-14.3-7.7-31.5-12.3-50-12.3C-89.8,8.6-130,41-130,81
			c0,35.6,31.8,65.2,73.7,71.3c16.4,17.7,42.5,29.1,72,29.1c7.1,0,14-0.7,20.6-1.9c13.5,6.6,29.4,10.4,46.4,10.4
			c29.1,0,55-11.2,71.4-28.5c16,19.7,43.7,32.8,75.1,32.8c35.3,0,65.9-16.5,80.6-40.4C343.4,143.3,367.3,116.9,367.3,86.1z"/>
		<path class="st5" d="M302.1,135.9c0-18-16.9-33.4-41.1-40c-2.3-22.7-31.7-40.7-67.6-40.7c-31.3,0-57.6,13.6-65.4,32.2
			c-11.3-5.5-25.4-8.7-40.7-8.7c-22.6,0-42.6,7.1-55,18.1C21.5,92,8.5,89.3-5.5,89.3c-37.4,0-67.8,19.5-67.8,43.6
			c0,21.4,24,39.2,55.6,42.9c12.4,10.6,32.1,17.5,54.3,17.5c5.3,0,10.5-0.4,15.5-1.2c10.2,4,22.2,6.3,35,6.3
			c22,0,41.5-6.7,53.9-17.2c12.1,11.9,33,19.7,56.7,19.7c26.7,0,49.7-9.9,60.8-24.3C284,170.3,302.1,154.5,302.1,135.9z"/>
		<path class="st4" d="M281.7,121.4c0-14.7-15.1-27.4-36.7-32.8c-2-18.6-28.3-33.4-60.4-33.4c-28,0-51.5,11.2-58.5,26.4
			c-10.1-4.5-22.7-7.2-36.4-7.2c-20.2,0-38.1,5.8-49.1,14.8c-9.6-3.8-21.3-6.1-33.7-6.1c-33.5,0-60.6,16-60.6,35.7
			c0,17.5,21.5,32.1,49.7,35.1c11,8.7,28.7,14.4,48.6,14.4c4.8,0,9.4-0.3,13.9-1c9.1,3.3,19.8,5.1,31.3,5.1
			c19.7,0,37.1-5.5,48.2-14.1c10.8,9.7,29.5,16.2,50.7,16.2c23.8,0,44.5-8.1,54.3-19.9C265.6,149.5,281.7,136.6,281.7,121.4z"/>
	</g>
</g>
<g id="sun" class="st0">
	<polygon id="crown" class="st6" points="213.4,81.6 225,70 213.4,58.4 221.6,44.1 207.3,35.9 211.6,20 195.7,15.7 195.7,-0.7 
		179.3,-0.7 175,-16.6 159.1,-12.3 150.9,-26.6 136.6,-18.4 125,-30 113.4,-18.4 99.1,-26.6 90.9,-12.3 75,-16.6 70.7,-0.7 
		54.3,-0.7 54.3,15.7 38.4,20 42.7,35.9 28.4,44.1 36.6,58.4 25,70 36.6,81.6 28.4,95.9 42.7,104.1 38.4,120 54.3,124.3 54.3,140.7 
		70.7,140.7 75,156.6 90.9,152.3 99.1,166.6 113.4,158.4 125,170 136.6,158.4 150.9,166.6 159.1,152.3 175,156.6 179.3,140.7 
		195.7,140.7 195.7,124.3 211.6,120 207.3,104.1 221.6,95.9 	"/>
	<circle id="core" class="st7" cx="125" cy="69.5" r="85.5"/>
</g>
<g id="birds" class="st0">
	<g class="st2">
		<path class="st8" d="M82.6,51.1c0,0-3.6-3.3-10.3,0.8c0,0,6.2-3.1,10.3-0.4c4.1-2.8,10.3,0.4,10.3,0.4
			C86.2,47.8,82.6,51.1,82.6,51.1z"/>
		<path class="st8" d="M114.7,58.5c0,0-3.4-1.7-7.7-1.7c-4.3,0-5.2,1.7-5.2,1.7s-2.8-1.8-5.8-1.7c-1.7,0.1-2.8,1.7-2.8,1.7
			s1.8-1.1,2.7-1c3,0.1,5.9,1.9,5.9,1.9s1.7-1.7,5.2-1.7C110.5,57.7,114.7,58.5,114.7,58.5z"/>
		<path class="st8" d="M164.3,63.7c0,0-4.6-2.3-10.3-2.3s-6.9,2.3-6.9,2.3s-3.7-2.4-7.7-2.3c-2.3,0.1-3.7,2.3-3.7,2.3
			s2.4-1.4,3.6-1.4c4,0.1,7.9,2.5,7.9,2.5s2.3-2.3,6.9-2.3S164.3,63.7,164.3,63.7z"/>
		<path class="st8" d="M149.9,89c0,0-4.6-2.3-10.3-2.3s-6.9,2.3-6.9,2.3s-3.7-2.4-7.7-2.3c-2.3,0.1-3.7,2.3-3.7,2.3s2.4-1.4,3.6-1.4
			c4,0.1,7.9,2.5,7.9,2.5s2.3-2.3,6.9-2.3S149.9,89,149.9,89z"/>
		<path class="st8" d="M63.3,63.6c0,0-3.6-1.8-8.1-1.8s-5.4,1.8-5.4,1.8s-2.9-1.9-6.1-1.8c-1.8,0.1-2.9,1.8-2.9,1.8s1.9-1.1,2.8-1.1
			c3.1,0.1,6.2,2,6.2,2s1.8-1.8,5.4-1.8C58.8,62.7,63.3,63.6,63.3,63.6z"/>
		<path class="st8" d="M106.7,74.2c0,0-4.6-2.3-10.3-2.3s-6.9,2.3-6.9,2.3s-3.7-2.4-7.7-2.3c-2.3,0.1-3.7,2.3-3.7,2.3
			s2.4-1.4,3.6-1.4c4,0.1,7.9,2.5,7.9,2.5s2.3-2.3,6.9-2.3S106.7,74.2,106.7,74.2z"/>
		<path class="st8" d="M171.2,76.9c0,0-2.5-1.2-5.6-1.2s-3.7,1.2-3.7,1.2s-2-1.3-4.2-1.2c-1.2,0-2,1.2-2,1.2s1.3-0.8,1.9-0.8
			c2.2,0.1,4.3,1.4,4.3,1.4s1.2-1.2,3.7-1.2S171.2,76.9,171.2,76.9z"/>
		<path class="st8" d="M209.1,74.7c0,0-2.5-1.2-5.6-1.2s-3.7,1.2-3.7,1.2s-2-1.3-4.2-1.2c-1.2,0-2,1.2-2,1.2s1.3-0.8,1.9-0.8
			c2.2,0.1,4.3,1.4,4.3,1.4s1.2-1.2,3.7-1.2S209.1,74.7,209.1,74.7z"/>
	</g>
</g>
<g id="plane" class="st0">
	<g class="st2">
		<path class="st9" d="M123.3,70.1c0.1,0.1,0.2,0.2,0.3,0.3c0.1,0.1,0.1,0.1,0.2,0.2c0,0,0,0,0.1,0c0.1,0.1,0.3,0.2,0.4,0.3
			c0,0,0.1,0.1,0.1,0.1c0.1,0,0.1,0.1,0.2,0.1h0c0.1,0,0.1,0.1,0.2,0.1c0.9,0.7,1.9,1.4,2.8,2.2c0.5,0.4,1,0.7,1.5,1.1
			c1.3,1,2.6,2,3.9,3c0.1,0.1,0.3,0.2,0.5,0.2c0.3,0,0.7-0.1,1-0.3c0.3-0.2,0.3-0.4,0.1-0.7c-1.3-1.6-2.5-3.1-3.8-4.7
			c-0.1-0.1-0.2-0.2-0.2-0.3c-0.2-0.2-0.3-0.4-0.5-0.6c0,0,0,0,0,0c0,0-0.1-0.1-0.1-0.1c-0.1-0.1-0.1-0.2-0.2-0.3s-0.1-0.2-0.2-0.3
			c-0.1-0.1-0.1-0.2-0.3-0.2c-1.9-0.1-3.8-0.1-5.7-0.1C123.4,70.1,123.4,70.1,123.3,70.1z"/>
		<path class="st9" d="M136.6,67c0,0.1,0.1,0.1,0.1,0.1c0.9,0.1,1.8,0.2,2.7,0.3c0.1,0,0.1,0,0.2,0c0-1.6,0.2-3.2,0.2-4.8
			c0-0.3,0-0.3-0.3-0.3c-0.1,0-0.2,0-0.3,0c-0.2,0-0.4,0.1-0.5,0.3c-0.7,1.4-1.4,2.7-2.1,4.1C136.6,66.9,136.6,66.9,136.6,67z"/>
		<path class="st9" d="M124.9,66.7c0.1,0,0.3,0,0.4,0c1.6,0,3.1,0,4.7,0.1c0.2,0,0.4,0,0.6,0c0.1,0,0.2,0,0.2-0.1
			c0.3-0.4,0.5-0.8,0.8-1.3c0.1-0.2,0.2-0.4,0.1-0.6c-0.1-0.2-0.3-0.2-0.5-0.2c-0.6,0-1.2,0.1-1.8,0.3c-1.4,0.5-2.8,1.1-4.3,1.6
			C125,66.6,125,66.7,124.9,66.7z"/>
		<path class="st9" d="M139.1,69.4c-0.1-0.3-0.1-0.6-0.2-0.8c-0.1-0.3-0.1-0.4-0.4-0.4c-0.6,0-1.2,0-1.8-0.1c-0.1,0-0.2,0-0.2,0
			c0,0.1,0,0.1,0.1,0.2c0.3,0.4,0.6,0.9,0.8,1.3c0,0,0,0,0,0c0,0,0,0,0,0.1c0.2,0.3,0.5,0.7,0.7,1c0.2,0.3,0.4,0.4,0.6,0.5
			c0.2,0,0.3,0.1,0.5,0.2c0.2,0.1,0.2,0,0.2-0.2c0-0.2-0.1-0.4-0.1-0.6c0-0.1,0-0.1,0-0.2c0,0,0-0.1,0-0.1c0,0,0-0.1,0-0.1
			c0,0,0,0,0,0c-0.1-0.1,0-0.1,0-0.2c0,0,0-0.1,0-0.1c0-0.1-0.1-0.2-0.1-0.3C139.1,69.6,139.1,69.5,139.1,69.4z"/>
		<path class="st4" d="M140.5,67.7c-0.2-0.1-0.5-0.1-0.7-0.2c-0.1,0-0.1,0-0.2-0.1c-0.1,0-0.1,0-0.2,0c-0.9-0.2-1.8-0.3-2.7-0.3
			c-0.1,0-0.2,0-0.1-0.1c-0.1,0.1-0.2,0.1-0.3,0.1c-0.6-0.1-1.3-0.1-1.9-0.1c-0.8,0-1.5-0.1-2.3-0.1c-0.3,0-0.7,0-1,0
			c-0.1,0-0.2,0-0.2-0.1c-0.1,0.1-0.1,0.1-0.2,0.1c-0.2,0-0.4,0-0.6,0c-1.6,0-3.1,0-4.7-0.1c-0.1,0-0.3,0-0.4,0c-1.3,0-2.7,0-4,0
			c-1.1,0-2.2,0-3.4,0.1c-0.7,0-1.4,0-2.2,0c-0.8,0-1.6,0.1-2.3,0.5c-0.4,0.2-0.8,0.6-1.2,0.8c0,0,0,0.1,0,0.1
			c0.3,0.2,0.5,0.2,0.8,0.1c0.3,0,0.6,0.2,0.6,0.4c0,0.3-0.2,0.4-0.6,0.4c-0.5,0-1-0.2-1.4-0.6c-0.4,0.2-0.8,0.3-1.2,0.5
			c-0.3,0.1-0.6,0.3-0.9,0.6c-0.3,0.3-0.2,0.7,0.1,0.9c0.4,0.3,0.8,0.4,1.3,0.5c0.7,0.1,1.5,0,2.2,0c1,0,2,0,3,0.1
			c0.8,0,1.6,0,2.5,0h0c1,0,2,0,3,0c0.1,0,0.1,0,0.2,0c0.6,0,1.2,0,1.8,0c0.1,0,0.1,0,0.2,0c0.4,0,0.9,0,1.3,0
			c-0.1,0-0.1-0.1-0.2-0.1c0,0-0.1-0.1-0.1-0.1c-0.1-0.1-0.3-0.2-0.4-0.3c0,0,0,0-0.1,0c-0.1-0.1-0.1-0.1-0.2-0.2
			c-0.1-0.1-0.2-0.2-0.3-0.3c0.1,0,0.1,0,0.1,0c1.9,0,3.8,0,5.7,0.1c0.1,0,0.2,0.1,0.3,0.2c0.1,0.1,0.1,0.2,0.2,0.3
			c0.1,0.1,0.1,0.2,0.2,0.3c0,0,0.1,0.1,0.1,0.1c0,0,0,0,0,0c0.1,0,0.2,0,0.3-0.1c1-0.1,1.9-0.3,2.9-0.5c1-0.2,1.9-0.4,2.9-0.6
			c0.4-0.1,0.8-0.2,1.2-0.3c-0.3-0.4-0.6-0.9-0.8-1.3c0-0.1-0.1-0.1-0.1-0.2c0-0.1,0.1-0.1,0.2,0c0.6,0,1.2,0,1.8,0.1
			c0.3,0,0.4,0.1,0.4,0.4c0.1,0.3,0.1,0.6,0.2,0.8c0-0.1,0.1-0.2,0.2-0.2c0.4,0,0.8-0.2,1.1-0.3c0.2-0.1,0.5-0.2,0.5-0.5
			C141.1,68,140.9,67.8,140.5,67.7z"/>
		<path class="st10" d="M111.2,68.6c0.4,0.4,0.9,0.6,1.4,0.6c0.4,0,0.6-0.1,0.6-0.4c0-0.3-0.3-0.5-0.6-0.4c-0.3,0-0.6,0-0.8-0.1
			C111.5,68.2,111.4,68.4,111.2,68.6z"/>
		<path class="st11" d="M137.4,69.8C137.4,69.7,137.3,69.7,137.4,69.8C137.3,69.7,137.3,69.8,137.4,69.8z"/>
		<path class="st10" d="M131.2,68.4c0,0.1,0,0.2,0,0.3c0,0.1,0.1,0.2,0.2,0.2c0.1,0,0.2-0.1,0.2-0.2c0-0.2,0-0.4,0-0.5
			c0-0.1-0.1-0.2-0.2-0.2c-0.1,0-0.2,0.1-0.2,0.2C131.2,68.3,131.2,68.3,131.2,68.4z"/>
		<path class="st10" d="M120.5,68.3c0-0.1,0-0.2,0-0.3c0-0.1-0.1-0.2-0.2-0.2c-0.1,0-0.2,0.1-0.2,0.2c0,0.2,0,0.4,0,0.6
			c0,0.1,0.1,0.2,0.2,0.2c0.1,0,0.2-0.1,0.2-0.2C120.5,68.4,120.5,68.3,120.5,68.3C120.5,68.3,120.5,68.3,120.5,68.3z"/>
		<path class="st10" d="M122.6,68.3c0,0.3,0.1,0.5,0.2,0.4c0.2,0,0.2-0.2,0.2-0.4c0-0.1,0-0.2,0-0.3c0-0.1-0.1-0.2-0.2-0.2
			c-0.1,0-0.2,0.1-0.2,0.2C122.5,68.1,122.6,68.2,122.6,68.3z"/>
		<path class="st10" d="M125,68.3c0,0.1,0,0.2,0,0.2c0,0.1,0.1,0.2,0.2,0.2c0.1,0,0.2-0.1,0.2-0.2c0-0.2,0-0.4,0-0.6
			c0-0.1-0.1-0.2-0.2-0.2c-0.1,0-0.2,0.1-0.2,0.2C125,68.2,125,68.3,125,68.3C125,68.3,125,68.3,125,68.3z"/>
		<path class="st10" d="M128.7,68.4c0,0.1,0,0.2,0,0.2c0,0.1,0.1,0.2,0.2,0.2c0.1,0,0.2-0.1,0.2-0.2c0-0.2,0-0.4,0-0.6
			c0-0.1-0.1-0.2-0.2-0.2c-0.1,0-0.2,0.1-0.2,0.2C128.7,68.2,128.7,68.3,128.7,68.4C128.7,68.4,128.7,68.4,128.7,68.4z"/>
		<path class="st10" d="M116.4,68.2c0,0.2,0,0.5,0.2,0.5c0.3,0,0.2-0.2,0.2-0.4c0-0.1,0-0.2,0-0.3c0-0.1-0.1-0.2-0.2-0.2
			c-0.1,0-0.2,0.1-0.2,0.2C116.4,68,116.4,68.1,116.4,68.2z"/>
		<path class="st10" d="M124.2,68.3c0-0.1,0-0.2,0-0.3c0-0.1-0.1-0.2-0.2-0.2c-0.1,0-0.2,0.1-0.2,0.2c0,0.2,0,0.4,0,0.5
			c0,0.1,0.1,0.2,0.2,0.2c0.1,0,0.2-0.1,0.2-0.2C124.2,68.5,124.2,68.4,124.2,68.3C124.2,68.3,124.2,68.3,124.2,68.3z"/>
		<path class="st10" d="M126.3,68.4c0,0.1,0,0.2,0,0.3c0,0.1,0.1,0.2,0.2,0.2c0.1,0,0.2,0,0.2-0.1c0.1-0.2,0.1-0.4,0-0.6
			c0-0.1-0.1-0.1-0.2-0.1c-0.1,0-0.2,0.1-0.2,0.2C126.2,68.2,126.3,68.3,126.3,68.4C126.3,68.4,126.3,68.4,126.3,68.4z"/>
		<path class="st10" d="M127.5,68.4c0,0.1,0,0.2,0,0.2c0,0.1,0.1,0.2,0.2,0.2c0.1,0,0.2-0.1,0.2-0.2c0-0.2,0-0.4,0-0.5
			c0-0.1-0.1-0.2-0.2-0.2c-0.1,0-0.2,0.1-0.2,0.2C127.5,68.2,127.5,68.3,127.5,68.4C127.5,68.4,127.5,68.4,127.5,68.4z"/>
		<path class="st10" d="M121.3,68.3c0,0.3,0.1,0.4,0.2,0.4c0.2,0,0.2-0.2,0.2-0.4c0-0.1,0-0.2,0-0.3c0-0.1-0.1-0.2-0.2-0.2
			c-0.1,0-0.2,0.1-0.2,0.2C121.3,68.1,121.3,68.2,121.3,68.3z"/>
		<path class="st10" d="M119.3,68.2c0-0.1,0-0.2,0-0.2c0-0.1-0.1-0.2-0.2-0.2c-0.1,0-0.2,0.1-0.2,0.2c0,0.2,0,0.3,0,0.5
			c0,0.1,0.1,0.2,0.2,0.2c0.1,0,0.2-0.1,0.2-0.2C119.3,68.4,119.3,68.3,119.3,68.2z"/>
		<path class="st10" d="M118.1,68.2c0-0.1,0-0.2,0-0.2c0-0.1-0.1-0.2-0.2-0.2c-0.1,0-0.2,0.1-0.2,0.2c0,0.2,0,0.4,0,0.6
			c0,0.1,0.1,0.2,0.2,0.2c0.1,0,0.2-0.1,0.2-0.2C118.1,68.4,118.1,68.3,118.1,68.2z"/>
		<path class="st10" d="M115.2,68.2c0,0.1,0,0.2,0,0.2c0,0.1,0.1,0.2,0.2,0.2c0.1,0,0.2-0.1,0.2-0.2c0-0.2,0-0.3,0-0.5
			c0-0.1-0.1-0.2-0.2-0.2c-0.1,0-0.2,0.1-0.2,0.2C115.2,68,115.2,68.1,115.2,68.2C115.2,68.2,115.2,68.2,115.2,68.2z"/>
		<path class="st10" d="M129.9,68.4c0,0.1,0,0.2,0,0.3c0,0.1,0.1,0.2,0.2,0.2c0.1,0,0.2-0.1,0.2-0.2c0-0.2,0-0.4,0-0.6
			c0-0.1-0.1-0.2-0.2-0.2c-0.1,0-0.2,0.1-0.2,0.2C129.9,68.2,130,68.3,129.9,68.4C129.9,68.4,129.9,68.4,129.9,68.4z"/>
	</g>
</g>
<g id="text" class="st0">
	<g class="st2">
		<g>
			<g>
				<path class="st12" d="M268.9,109.2c-1.8,0-3.4-0.6-4.6-1.9c-1.3-1.3-1.9-2.8-1.9-4.6v-85c0-1.9,0.6-3.5,1.9-4.7
					c1.3-1.2,2.8-1.8,4.6-1.8h22.7c7.2,0,13.8,1.2,19.7,3.6c5.9,2.4,11,5.8,15.4,10.2c4.4,4.4,7.7,9.6,10,15.5
					c2.3,5.9,3.5,12.5,3.5,19.7c0,7.2-1.2,13.8-3.5,19.8c-2.3,6-5.7,11.2-10,15.6c-4.4,4.4-9.5,7.8-15.4,10.2
					c-5.9,2.4-12.5,3.6-19.7,3.6H268.9z M275.5,97.6h16.2c7,0,13.2-1.6,18.6-4.8c5.4-3.2,9.6-7.7,12.7-13.3
					c3.1-5.7,4.6-12.1,4.6-19.4c0-7.4-1.5-13.9-4.6-19.5c-3.1-5.6-7.3-10-12.7-13.2c-5.4-3.2-11.6-4.8-18.6-4.8h-16.2V97.6z"/>
				<path class="st12" d="M388.1,109.7c-6.1,0-11.6-1.5-16.5-4.6c-4.9-3.1-8.7-7.2-11.5-12.4c-2.8-5.2-4.2-11.2-4.2-17.8
					c0-6.6,1.5-12.6,4.6-17.8c3.1-5.3,7.2-9.4,12.4-12.5c5.2-3.1,11.1-4.6,17.6-4.6s12.4,1.5,17.6,4.6c5.2,3.1,9.3,7.2,12.4,12.5
					c3.1,5.3,4.6,11.2,4.6,17.8h-4.9c0,6.6-1.4,12.5-4.2,17.8c-2.8,5.2-6.6,9.4-11.5,12.4C399.7,108.2,394.2,109.7,388.1,109.7z
					 M390.6,98.4c4.3,0,8.1-1,11.4-3.1c3.3-2,6-4.9,7.9-8.4c1.9-3.6,2.9-7.6,2.9-12c0-4.5-1-8.6-2.9-12.1c-1.9-3.6-4.6-6.4-7.9-8.4
					c-3.3-2.1-7.2-3.1-11.4-3.1c-4.2,0-8,1-11.4,3.1c-3.4,2.1-6.1,4.9-8,8.4c-2,3.6-3,7.6-3,12.1c0,4.4,1,8.4,3,12
					c2,3.6,4.6,6.4,8,8.4C382.6,97.4,386.4,98.4,390.6,98.4z M418.7,109.3c-1.8,0-3.4-0.6-4.6-1.8c-1.2-1.2-1.8-2.7-1.8-4.6V83.7
					l2.4-13.3l10.4,4.5v28c0,1.8-0.6,3.4-1.8,4.6C422.1,108.7,420.6,109.3,418.7,109.3z"/>
				<path class="st12" d="M469.2,109.7c-5.9,0-11.3-0.9-16.3-2.7c-5-1.8-8.9-4.1-11.6-6.8c-1.3-1.3-1.8-2.9-1.6-4.6
					c0.2-1.7,1-3.1,2.4-4.2c1.7-1.3,3.3-1.9,5-1.7c1.6,0.2,3,0.9,4.2,2.2c1.4,1.6,3.7,3.1,6.8,4.5c3.1,1.4,6.6,2.1,10.5,2.1
					c4.9,0,8.6-0.8,11.1-2.4c2.6-1.6,3.9-3.6,4-6.2c0.1-2.5-1.1-4.7-3.6-6.5c-2.5-1.8-7-3.3-13.5-4.5c-8.5-1.7-14.6-4.2-18.4-7.5
					c-3.8-3.3-5.7-7.5-5.7-12.3c0-4.3,1.3-7.8,3.8-10.6c2.5-2.8,5.7-4.9,9.7-6.3c3.9-1.4,8-2.1,12.3-2.1c5.5,0,10.4,0.9,14.7,2.6
					c4.3,1.8,7.7,4.2,10.2,7.3c1.2,1.3,1.7,2.7,1.6,4.2c-0.1,1.5-0.8,2.7-2.1,3.7c-1.3,0.9-2.9,1.2-4.8,0.9
					c-1.8-0.3-3.4-1.1-4.6-2.3c-2.1-2-4.4-3.4-6.8-4.1c-2.4-0.8-5.2-1.1-8.4-1.1c-3.7,0-6.8,0.6-9.4,1.9c-2.6,1.3-3.8,3.1-3.8,5.5
					c0,1.5,0.4,2.9,1.2,4.1c0.8,1.2,2.4,2.3,4.7,3.3c2.3,1,5.8,1.9,10.3,2.8c6.3,1.3,11.2,2.8,14.9,4.8c3.6,1.9,6.3,4.2,7.8,6.7
					c1.6,2.6,2.4,5.5,2.4,8.9c0,3.9-1,7.3-3.1,10.4c-2.1,3.1-5.1,5.6-9,7.4C480.1,108.8,475.2,109.7,469.2,109.7z"/>
				<path class="st12" d="M518.8,84.2c-1.8,0-3.4-0.6-4.6-1.8c-1.2-1.2-1.8-2.7-1.8-4.6V17.5c0-1.9,0.6-3.5,1.8-4.6
					c1.2-1.2,2.7-1.8,4.6-1.8c1.9,0,3.5,0.6,4.6,1.8c1.2,1.2,1.8,2.7,1.8,4.6v60.3c0,1.8-0.6,3.4-1.8,4.6
					C522.3,83.6,520.7,84.2,518.8,84.2z M518.8,109.3c-1.8,0-3.4-0.6-4.6-1.8c-1.2-1.2-1.8-2.7-1.8-4.6v-56c0-1.9,0.6-3.5,1.8-4.6
					c1.2-1.2,2.7-1.8,4.6-1.8c1.9,0,3.5,0.6,4.6,1.8c1.2,1.2,1.8,2.7,1.8,4.6v56c0,1.8-0.6,3.4-1.8,4.6
					C522.3,108.7,520.7,109.3,518.8,109.3z M570.4,109.3c-1.8,0-3.4-0.6-4.6-1.8c-1.2-1.2-1.8-2.7-1.8-4.6V72
					c0-4.8-0.9-8.7-2.6-11.7s-4.1-5.3-7.1-6.7c-3-1.5-6.4-2.2-10.2-2.2c-3.5,0-6.7,0.7-9.5,2.1c-2.8,1.4-5.1,3.3-6.8,5.7
					c-1.7,2.4-2.5,5.1-2.5,8.2h-7.9c0-5.3,1.3-10,3.8-14.1c2.6-4.1,6-7.4,10.5-9.9c4.4-2.4,9.4-3.6,14.9-3.6
					c5.8,0,10.9,1.2,15.5,3.7c4.6,2.5,8.2,6.1,10.8,10.9c2.6,4.8,4,10.6,4,17.6v30.9c0,1.8-0.6,3.4-1.8,4.6
					C573.8,108.7,572.3,109.3,570.4,109.3z"/>
			</g>
			<g>
				<path class="st13" d="M271.5,106.3c-1.8,0-3.4-0.6-4.6-1.9s-1.9-2.8-1.9-4.6v-85c0-1.9,0.6-3.5,1.9-4.7c1.3-1.2,2.8-1.8,4.6-1.8
					h22.7c7.2,0,13.8,1.2,19.7,3.6c5.9,2.4,11,5.8,15.4,10.2c4.4,4.4,7.7,9.6,10,15.5c2.3,5.9,3.5,12.5,3.5,19.7
					c0,7.2-1.2,13.8-3.5,19.8c-2.3,6-5.7,11.2-10,15.6c-4.4,4.4-9.5,7.8-15.4,10.2c-5.9,2.4-12.5,3.6-19.7,3.6H271.5z M278,94.8
					h16.2c7,0,13.2-1.6,18.6-4.8c5.4-3.2,9.6-7.7,12.7-13.3c3.1-5.7,4.6-12.1,4.6-19.4c0-7.4-1.5-13.9-4.6-19.5
					c-3.1-5.6-7.3-10-12.7-13.2c-5.4-3.2-11.6-4.8-18.6-4.8H278V94.8z"/>
				<path class="st13" d="M390.7,106.8c-6.1,0-11.6-1.5-16.5-4.6c-4.9-3.1-8.7-7.2-11.5-12.4c-2.8-5.2-4.2-11.2-4.2-17.8
					c0-6.6,1.5-12.6,4.6-17.8c3.1-5.3,7.2-9.4,12.4-12.5c5.2-3.1,11.1-4.6,17.6-4.6s12.4,1.5,17.6,4.6c5.2,3.1,9.3,7.2,12.4,12.5
					c3.1,5.3,4.6,11.2,4.6,17.8h-4.9c0,6.6-1.4,12.5-4.2,17.8c-2.8,5.2-6.6,9.4-11.5,12.4C402.3,105.3,396.8,106.8,390.7,106.8z
					 M393.2,95.5c4.3,0,8.1-1,11.4-3.1c3.3-2.1,6-4.9,7.9-8.4c1.9-3.6,2.9-7.6,2.9-12c0-4.5-1-8.6-2.9-12.1
					c-1.9-3.6-4.6-6.4-7.9-8.4c-3.3-2-7.2-3.1-11.4-3.1c-4.2,0-8,1-11.4,3.1c-3.4,2.1-6.1,4.9-8,8.4c-2,3.6-3,7.6-3,12.1
					c0,4.4,1,8.4,3,12c2,3.6,4.6,6.4,8,8.4C385.2,94.5,389,95.5,393.2,95.5z M421.3,106.5c-1.8,0-3.4-0.6-4.6-1.8
					c-1.2-1.2-1.8-2.7-1.8-4.6V80.8l2.4-13.3l10.4,4.5v28c0,1.8-0.6,3.4-1.8,4.6C424.7,105.9,423.2,106.5,421.3,106.5z"/>
				<path class="st13" d="M471.8,106.8c-5.9,0-11.3-0.9-16.3-2.7c-5-1.8-8.9-4.1-11.6-6.8c-1.3-1.3-1.8-2.9-1.6-4.6
					c0.2-1.7,1-3.1,2.4-4.2c1.7-1.3,3.3-1.9,5-1.7c1.6,0.2,3,0.9,4.2,2.2c1.4,1.6,3.7,3.1,6.8,4.5c3.1,1.4,6.6,2.1,10.5,2.1
					c4.9,0,8.6-0.8,11.1-2.4c2.6-1.6,3.9-3.6,4-6.2c0.1-2.5-1.1-4.7-3.6-6.5c-2.5-1.8-7-3.3-13.5-4.5c-8.5-1.7-14.6-4.2-18.4-7.5
					c-3.8-3.3-5.7-7.4-5.7-12.3c0-4.3,1.3-7.8,3.8-10.6c2.5-2.8,5.7-4.9,9.7-6.3c3.9-1.4,8-2.1,12.3-2.1c5.5,0,10.4,0.9,14.7,2.6
					c4.3,1.8,7.7,4.2,10.2,7.3c1.2,1.3,1.7,2.7,1.6,4.2c-0.1,1.5-0.8,2.7-2.1,3.7c-1.3,0.9-2.9,1.2-4.8,0.9
					c-1.8-0.3-3.4-1.1-4.6-2.3c-2.1-2-4.4-3.4-6.8-4.1c-2.4-0.8-5.2-1.1-8.4-1.1c-3.7,0-6.8,0.6-9.4,1.9c-2.6,1.3-3.8,3.1-3.8,5.5
					c0,1.5,0.4,2.9,1.2,4.1c0.8,1.2,2.4,2.3,4.7,3.3c2.3,1,5.8,1.9,10.3,2.8c6.3,1.3,11.2,2.8,14.9,4.8c3.6,1.9,6.3,4.2,7.8,6.7
					c1.6,2.6,2.4,5.5,2.4,8.9c0,3.9-1,7.3-3.1,10.4c-2.1,3.1-5.1,5.6-9,7.4C482.7,105.9,477.7,106.8,471.8,106.8z"/>
				<path class="st13" d="M521.4,81.4c-1.8,0-3.4-0.6-4.6-1.8c-1.2-1.2-1.8-2.7-1.8-4.6V14.7c0-1.9,0.6-3.5,1.8-4.6
					c1.2-1.2,2.7-1.8,4.6-1.8c1.9,0,3.5,0.6,4.6,1.8c1.2,1.2,1.8,2.7,1.8,4.6v60.3c0,1.8-0.6,3.4-1.8,4.6
					C524.9,80.7,523.3,81.4,521.4,81.4z M521.4,106.5c-1.8,0-3.4-0.6-4.6-1.8c-1.2-1.2-1.8-2.7-1.8-4.6v-56c0-1.9,0.6-3.5,1.8-4.6
					c1.2-1.2,2.7-1.8,4.6-1.8c1.9,0,3.5,0.6,4.6,1.8c1.2,1.2,1.8,2.7,1.8,4.6v56c0,1.8-0.6,3.4-1.8,4.6
					C524.9,105.9,523.3,106.5,521.4,106.5z M573,106.5c-1.8,0-3.4-0.6-4.6-1.8c-1.2-1.2-1.8-2.7-1.8-4.6V69.2
					c0-4.8-0.9-8.7-2.6-11.7s-4.1-5.3-7.1-6.7c-3-1.5-6.4-2.2-10.2-2.2c-3.5,0-6.7,0.7-9.5,2.1c-2.8,1.4-5.1,3.3-6.8,5.7
					c-1.7,2.4-2.5,5.1-2.5,8.2h-7.9c0-5.3,1.3-10,3.8-14.1c2.6-4.1,6-7.4,10.5-9.9c4.4-2.4,9.4-3.6,14.9-3.6
					c5.8,0,10.9,1.2,15.5,3.7c4.6,2.5,8.2,6.1,10.8,10.9c2.6,4.8,4,10.6,4,17.6v30.9c0,1.8-0.6,3.4-1.8,4.6
					C576.4,105.9,574.8,106.5,573,106.5z"/>
			</g>
		</g>
		<g>
			<path class="st12" d="M-292.8,109.2c-1.5,0-2.8-0.5-4-1.4c-1.2-0.9-2-2.2-2.5-3.8l-25.2-83.9c-0.8-2.8-0.8-5,0.2-6.6
				c1-1.6,2.5-2.4,4.7-2.4c1.4,0,2.7,0.4,3.9,1.2c1.2,0.8,2,2,2.5,3.7l22,76.6h-2.8l20.3-75.8c0.3-1.3,1.1-2.3,2.3-3.1
				c1.2-0.8,2.5-1.3,4-1.3c1.3,0,2.6,0.4,3.8,1.1c1.2,0.7,2,1.8,2.3,3.2l20.5,76h-2.5l22.1-77.2c0.8-2.8,3-4.3,6.4-4.3
				c2.3,0,3.8,0.9,4.5,2.7c0.7,1.8,0.7,3.9,0,6.3l-25.2,83.8c-0.6,1.6-1.4,2.9-2.6,3.8c-1.1,1-2.4,1.4-4,1.4c-1.6,0-3-0.5-4.1-1.5
				c-1.1-1-1.9-2.2-2.4-3.6l-20.2-78.1h3l-20.5,78c-0.6,1.6-1.4,2.9-2.6,3.8C-289.9,108.7-291.3,109.2-292.8,109.2z"/>
			<path class="st12" d="M-178.6,109.7c-6.9,0-13.1-1.5-18.5-4.5c-5.4-3-9.6-7.1-12.7-12.3c-3.1-5.2-4.6-11.2-4.6-18
				c0-6.9,1.4-12.9,4.3-18.1c2.9-5.2,6.9-9.3,12-12.3c5.1-3,11-4.5,17.6-4.5c6.5,0,12.1,1.4,16.8,4.3c4.7,2.9,8.3,6.9,10.7,11.9
				c2.5,5.1,3.7,10.9,3.7,17.5c0,1.6-0.5,2.9-1.6,4c-1.1,1-2.5,1.6-4.1,1.6h-50.6v-10h50.2l-5.1,3.5c-0.1-4.2-0.9-7.9-2.5-11.2
				c-1.6-3.3-3.9-5.9-6.8-7.8c-2.9-1.9-6.5-2.9-10.7-2.9c-4.8,0-8.9,1-12.2,3.1c-3.4,2.1-6,5-7.7,8.6c-1.8,3.6-2.6,7.8-2.6,12.4
				c0,4.6,1,8.7,3.1,12.3c2.1,3.6,5,6.4,8.7,8.5c3.7,2.1,7.9,3.1,12.7,3.1c2.6,0,5.3-0.5,8-1.4c2.7-1,4.9-2.1,6.6-3.3
				c1.3-0.9,2.6-1.4,4.1-1.4c1.5,0,2.7,0.4,3.8,1.3c1.4,1.3,2.2,2.6,2.3,4.1c0.1,1.5-0.6,2.8-2,3.9c-2.8,2.3-6.4,4.1-10.6,5.5
				C-170.7,109-174.8,109.7-178.6,109.7z"/>
			<path class="st12" d="M-106.8,109.7c-6.1,0-11.6-1.5-16.4-4.6c-4.9-3.1-8.7-7.2-11.5-12.4c-2.8-5.2-4.2-11.2-4.2-17.8
				c0-6.6,1.5-12.6,4.6-17.8c3.1-5.3,7.2-9.4,12.4-12.5c5.2-3.1,11.1-4.6,17.6-4.6s12.4,1.5,17.6,4.6c5.2,3.1,9.3,7.2,12.4,12.5
				c3.1,5.3,4.6,11.2,4.6,17.8h-4.9c0,6.6-1.4,12.5-4.2,17.8c-2.8,5.2-6.6,9.4-11.5,12.4C-95.2,108.2-100.7,109.7-106.8,109.7z
				 M-104.3,98.4c4.3,0,8.1-1,11.4-3.1c3.3-2,6-4.9,7.9-8.4c1.9-3.6,2.9-7.6,2.9-12c0-4.5-1-8.6-2.9-12.1c-1.9-3.6-4.6-6.4-7.9-8.4
				c-3.3-2.1-7.2-3.1-11.4-3.1c-4.2,0-8,1-11.4,3.1c-3.4,2.1-6.1,4.9-8,8.4c-2,3.6-3,7.6-3,12.1c0,4.4,1,8.4,3,12
				c2,3.6,4.6,6.4,8,8.4C-112.3,97.4-108.5,98.4-104.3,98.4z M-76.1,109.3c-1.8,0-3.4-0.6-4.6-1.8c-1.2-1.2-1.8-2.7-1.8-4.6V83.7
				l2.4-13.3l10.4,4.5v28c0,1.8-0.6,3.4-1.8,4.6C-72.8,108.7-74.3,109.3-76.1,109.3z"/>
			<path class="st12" d="M-53.5,53.8c-1.8,0-3.2-0.5-4.3-1.5c-1.1-1-1.6-2.3-1.6-3.8c0-1.7,0.5-3,1.6-4c1.1-1,2.5-1.5,4.3-1.5h29
				c1.8,0,3.2,0.5,4.3,1.5c1.1,1,1.6,2.3,1.6,4c0,1.5-0.5,2.8-1.6,3.8c-1.1,1-2.5,1.5-4.3,1.5H-53.5z M-25.7,109.2
				c-4.2,0-8-1.1-11.3-3.2c-3.3-2.1-6-5-7.9-8.7c-1.9-3.7-2.9-7.8-2.9-12.4V24.9c0-1.8,0.6-3.3,1.8-4.5c1.2-1.2,2.7-1.8,4.5-1.8
				c1.8,0,3.3,0.6,4.5,1.8c1.2,1.2,1.8,2.7,1.8,4.5v59.9c0,3.3,0.9,6.2,2.8,8.4c1.8,2.3,4.1,3.4,6.8,3.4h4.3c1.5,0,2.8,0.6,3.8,1.8
				c1,1.2,1.6,2.7,1.6,4.5c0,1.8-0.7,3.3-2.1,4.5c-1.4,1.2-3.2,1.8-5.3,1.8H-25.7z"/>
			<path class="st12" d="M6.1,84.2c-1.8,0-3.4-0.6-4.6-1.8c-1.2-1.2-1.8-2.7-1.8-4.6V17.5c0-1.9,0.6-3.5,1.8-4.6
				c1.2-1.2,2.7-1.8,4.6-1.8c1.9,0,3.5,0.6,4.6,1.8c1.2,1.2,1.8,2.7,1.8,4.6v60.3c0,1.8-0.6,3.4-1.8,4.6C9.6,83.6,8,84.2,6.1,84.2z
				 M6.1,109.3c-1.8,0-3.4-0.6-4.6-1.8c-1.2-1.2-1.8-2.7-1.8-4.6v-56c0-1.9,0.6-3.5,1.8-4.6c1.2-1.2,2.7-1.8,4.6-1.8
				c1.9,0,3.5,0.6,4.6,1.8c1.2,1.2,1.8,2.7,1.8,4.6v56c0,1.8-0.6,3.4-1.8,4.6C9.6,108.7,8,109.3,6.1,109.3z M57.7,109.3
				c-1.8,0-3.4-0.6-4.6-1.8c-1.2-1.2-1.8-2.7-1.8-4.6V72c0-4.8-0.9-8.7-2.6-11.7c-1.8-3-4.1-5.3-7.1-6.7c-3-1.5-6.4-2.2-10.2-2.2
				c-3.5,0-6.7,0.7-9.5,2.1c-2.8,1.4-5.1,3.3-6.8,5.7c-1.7,2.4-2.5,5.1-2.5,8.2H4.6c0-5.3,1.3-10,3.8-14.1c2.6-4.1,6-7.4,10.5-9.9
				c4.4-2.4,9.4-3.6,14.9-3.6c5.8,0,10.9,1.2,15.5,3.7c4.6,2.5,8.2,6.1,10.8,10.9c2.6,4.8,4,10.6,4,17.6v30.9c0,1.8-0.6,3.4-1.8,4.6
				C61.1,108.7,59.6,109.3,57.7,109.3z"/>
			<path class="st12" d="M117.7,109.7c-7,0-13.1-1.5-18.5-4.5c-5.4-3-9.6-7.1-12.7-12.3c-3.1-5.2-4.6-11.2-4.6-18
				c0-6.9,1.4-12.9,4.3-18.1c2.9-5.2,6.9-9.3,12-12.3c5.1-3,11-4.5,17.6-4.5c6.5,0,12.1,1.4,16.8,4.3c4.7,2.9,8.3,6.9,10.7,11.9
				c2.5,5.1,3.7,10.9,3.7,17.5c0,1.6-0.5,2.9-1.6,4c-1.1,1-2.5,1.6-4.1,1.6H90.7v-10H141l-5.1,3.5c-0.1-4.2-0.9-7.9-2.5-11.2
				c-1.6-3.3-3.9-5.9-6.8-7.8c-2.9-1.9-6.5-2.9-10.7-2.9c-4.8,0-8.9,1-12.2,3.1c-3.4,2.1-6,5-7.7,8.6c-1.8,3.6-2.6,7.8-2.6,12.4
				c0,4.6,1,8.7,3.1,12.3c2.1,3.6,5,6.4,8.7,8.5c3.7,2.1,7.9,3.1,12.7,3.1c2.6,0,5.3-0.5,8-1.4c2.7-1,4.9-2.1,6.6-3.3
				c1.3-0.9,2.6-1.4,4.1-1.4c1.5,0,2.7,0.4,3.8,1.3c1.4,1.3,2.2,2.6,2.3,4.1c0.1,1.5-0.6,2.8-2,3.9c-2.8,2.3-6.4,4.1-10.6,5.5
				C125.6,109,121.6,109.7,117.7,109.7z"/>
			<path class="st12" d="M169.7,109.2c-2,0-3.6-0.5-4.6-1.6c-1.1-1-1.6-2.6-1.6-4.7V46.8c0-2,0.5-3.6,1.6-4.6
				c1.1-1.1,2.6-1.6,4.6-1.6c2.1,0,3.7,0.5,4.7,1.6c1,1,1.6,2.6,1.6,4.7v56.1c0,2-0.5,3.6-1.6,4.6
				C173.4,108.6,171.8,109.2,169.7,109.2z M169.6,66.2c0-5,1.2-9.5,3.7-13.5c2.5-4,5.8-7.1,10-9.5c4.2-2.3,8.8-3.5,13.8-3.5
				c5,0,8.8,0.8,11.2,2.4c2.5,1.6,3.4,3.6,2.8,5.8c-0.3,1.2-0.7,2.1-1.4,2.7c-0.7,0.6-1.5,1-2.4,1.2c-0.9,0.2-1.9,0.1-3-0.1
				c-5.4-1.1-10.2-1.2-14.4-0.3c-4.3,0.9-7.6,2.6-10.1,5.1c-2.5,2.5-3.7,5.7-3.7,9.5H169.6z"/>
		</g>
		<g>
			<path class="st13" d="M-290.2,106.3c-1.5,0-2.8-0.5-4-1.4c-1.2-0.9-2-2.2-2.5-3.8l-25.2-83.9c-0.8-2.8-0.8-5,0.2-6.6
				c1-1.6,2.5-2.4,4.7-2.4c1.4,0,2.7,0.4,3.9,1.2c1.2,0.8,2,2,2.5,3.7l22,76.6h-2.8l20.3-75.8c0.3-1.3,1.1-2.3,2.3-3.1
				c1.2-0.8,2.5-1.3,4-1.3c1.3,0,2.6,0.4,3.8,1.1c1.2,0.7,2,1.8,2.3,3.2l20.5,76h-2.5l22.1-77.2c0.8-2.8,3-4.3,6.4-4.3
				c2.3,0,3.8,0.9,4.5,2.7c0.7,1.8,0.7,3.9,0,6.3l-25.2,83.8c-0.6,1.6-1.4,2.9-2.6,3.8c-1.1,1-2.4,1.4-4,1.4c-1.6,0-3-0.5-4.1-1.5
				c-1.1-1-1.9-2.2-2.4-3.6l-20.2-78.1h3l-20.5,78c-0.6,1.6-1.4,2.9-2.6,3.8C-287.4,105.9-288.7,106.3-290.2,106.3z"/>
			<path class="st13" d="M-176,106.8c-6.9,0-13.1-1.5-18.5-4.5c-5.4-3-9.6-7.1-12.7-12.3c-3.1-5.2-4.6-11.2-4.6-18
				c0-6.9,1.4-12.9,4.3-18.1c2.9-5.2,6.9-9.3,12-12.3c5.1-3,11-4.5,17.6-4.5c6.5,0,12.1,1.4,16.8,4.3c4.7,2.9,8.3,6.9,10.7,11.9
				c2.5,5.1,3.7,10.9,3.7,17.5c0,1.6-0.5,2.9-1.6,4c-1.1,1-2.5,1.6-4.1,1.6H-203v-10h50.2l-5.1,3.5c-0.1-4.2-0.9-7.9-2.5-11.2
				c-1.6-3.3-3.9-5.9-6.8-7.8c-2.9-1.9-6.5-2.9-10.7-2.9c-4.8,0-8.9,1-12.2,3.1c-3.4,2.1-6,5-7.7,8.6c-1.8,3.6-2.6,7.8-2.6,12.4
				c0,4.6,1,8.7,3.1,12.3c2.1,3.6,5,6.4,8.7,8.5C-185,95-180.8,96-176,96c2.6,0,5.3-0.5,8-1.4c2.7-1,4.9-2.1,6.6-3.3
				c1.3-0.9,2.6-1.4,4.1-1.4c1.5,0,2.7,0.4,3.8,1.3c1.4,1.3,2.2,2.6,2.3,4.1c0.1,1.5-0.6,2.8-2,3.9c-2.8,2.3-6.4,4.1-10.6,5.5
				C-168.1,106.1-172.2,106.8-176,106.8z"/>
			<path class="st13" d="M-104.2,106.8c-6.1,0-11.6-1.5-16.4-4.6c-4.9-3.1-8.7-7.2-11.5-12.4c-2.8-5.2-4.2-11.2-4.2-17.8
				c0-6.6,1.5-12.6,4.6-17.8c3.1-5.3,7.2-9.4,12.4-12.5c5.2-3.1,11.1-4.6,17.6-4.6s12.4,1.5,17.6,4.6c5.2,3.1,9.3,7.2,12.4,12.5
				c3.1,5.3,4.6,11.2,4.6,17.8h-4.9c0,6.6-1.4,12.5-4.2,17.8c-2.8,5.2-6.6,9.4-11.5,12.4C-92.6,105.3-98.1,106.8-104.2,106.8z
				 M-101.7,95.5c4.3,0,8.1-1,11.4-3.1c3.3-2.1,6-4.9,7.9-8.4c1.9-3.6,2.9-7.6,2.9-12c0-4.5-1-8.6-2.9-12.1
				c-1.9-3.6-4.6-6.4-7.9-8.4c-3.3-2-7.2-3.1-11.4-3.1c-4.2,0-8,1-11.4,3.1c-3.4,2.1-6.1,4.9-8,8.4c-2,3.6-3,7.6-3,12.1
				c0,4.4,1,8.4,3,12c2,3.6,4.6,6.4,8,8.4C-109.7,94.5-105.9,95.5-101.7,95.5z M-73.6,106.5c-1.8,0-3.4-0.6-4.6-1.8
				c-1.2-1.2-1.8-2.7-1.8-4.6V80.8l2.4-13.3l10.4,4.5v28c0,1.8-0.6,3.4-1.8,4.6C-70.2,105.9-71.7,106.5-73.6,106.5z"/>
			<path class="st13" d="M-51,51c-1.8,0-3.2-0.5-4.3-1.5c-1.1-1-1.6-2.3-1.6-3.8c0-1.7,0.5-3,1.6-4c1.1-1,2.5-1.5,4.3-1.5h29
				c1.8,0,3.2,0.5,4.3,1.5c1.1,1,1.6,2.3,1.6,4c0,1.5-0.5,2.8-1.6,3.8c-1.1,1-2.5,1.5-4.3,1.5H-51z M-23.1,106.3
				c-4.2,0-8-1.1-11.3-3.2c-3.3-2.1-6-5-7.9-8.7c-1.9-3.7-2.9-7.8-2.9-12.4V22.1c0-1.8,0.6-3.3,1.8-4.5c1.2-1.2,2.7-1.8,4.5-1.8
				c1.8,0,3.3,0.6,4.5,1.8c1.2,1.2,1.8,2.7,1.8,4.5V82c0,3.3,0.9,6.2,2.8,8.4c1.8,2.3,4.1,3.4,6.8,3.4h4.3c1.5,0,2.8,0.6,3.8,1.8
				c1,1.2,1.6,2.7,1.6,4.5c0,1.8-0.7,3.3-2.1,4.5c-1.4,1.2-3.2,1.8-5.3,1.8H-23.1z"/>
			<path class="st13" d="M8.7,81.4c-1.8,0-3.4-0.6-4.6-1.8c-1.2-1.2-1.8-2.7-1.8-4.6V14.7c0-1.9,0.6-3.5,1.8-4.6
				c1.2-1.2,2.7-1.8,4.6-1.8c1.9,0,3.5,0.6,4.6,1.8c1.2,1.2,1.8,2.7,1.8,4.6v60.3c0,1.8-0.6,3.4-1.8,4.6
				C12.2,80.7,10.6,81.4,8.7,81.4z M8.7,106.5c-1.8,0-3.4-0.6-4.6-1.8c-1.2-1.2-1.8-2.7-1.8-4.6v-56c0-1.9,0.6-3.5,1.8-4.6
				c1.2-1.2,2.7-1.8,4.6-1.8c1.9,0,3.5,0.6,4.6,1.8c1.2,1.2,1.8,2.7,1.8,4.6v56c0,1.8-0.6,3.4-1.8,4.6
				C12.2,105.9,10.6,106.5,8.7,106.5z M60.3,106.5c-1.8,0-3.4-0.6-4.6-1.8c-1.2-1.2-1.8-2.7-1.8-4.6V69.2c0-4.8-0.9-8.7-2.6-11.7
				c-1.8-3-4.1-5.3-7.1-6.7c-3-1.5-6.4-2.2-10.2-2.2c-3.5,0-6.7,0.7-9.5,2.1c-2.8,1.4-5.1,3.3-6.8,5.7c-1.7,2.4-2.5,5.1-2.5,8.2H7.2
				c0-5.3,1.3-10,3.8-14.1c2.6-4.1,6-7.4,10.5-9.9c4.4-2.4,9.4-3.6,14.9-3.6c5.8,0,10.9,1.2,15.5,3.7c4.6,2.5,8.2,6.1,10.8,10.9
				c2.6,4.8,4,10.6,4,17.6v30.9c0,1.8-0.6,3.4-1.8,4.6C63.7,105.9,62.1,106.5,60.3,106.5z"/>
			<path class="st13" d="M120.3,106.8c-7,0-13.1-1.5-18.5-4.5c-5.4-3-9.6-7.1-12.7-12.3c-3.1-5.2-4.6-11.2-4.6-18
				c0-6.9,1.4-12.9,4.3-18.1c2.9-5.2,6.9-9.3,12-12.3c5.1-3,11-4.5,17.6-4.5c6.5,0,12.1,1.4,16.8,4.3c4.7,2.9,8.3,6.9,10.7,11.9
				c2.5,5.1,3.7,10.9,3.7,17.5c0,1.6-0.5,2.9-1.6,4c-1.1,1-2.5,1.6-4.1,1.6H93.3v-10h50.2l-5.1,3.5c-0.1-4.2-0.9-7.9-2.5-11.2
				c-1.6-3.3-3.9-5.9-6.8-7.8c-2.9-1.9-6.5-2.9-10.7-2.9c-4.8,0-8.9,1-12.2,3.1c-3.4,2.1-6,5-7.7,8.6c-1.8,3.6-2.6,7.8-2.6,12.4
				c0,4.6,1,8.7,3.1,12.3c2.1,3.6,5,6.4,8.7,8.5c3.7,2.1,7.9,3.1,12.7,3.1c2.6,0,5.3-0.5,8-1.4c2.7-1,4.9-2.1,6.6-3.3
				c1.3-0.9,2.6-1.4,4.1-1.4c1.5,0,2.7,0.4,3.8,1.3c1.4,1.3,2.2,2.6,2.3,4.1c0.1,1.5-0.6,2.8-2,3.9c-2.8,2.3-6.4,4.1-10.6,5.5
				C128.2,106.1,124.2,106.8,120.3,106.8z"/>
			<path class="st13" d="M172.3,106.3c-2,0-3.6-0.5-4.6-1.6c-1.1-1-1.6-2.6-1.6-4.7V43.9c0-2,0.5-3.6,1.6-4.6
				c1.1-1.1,2.6-1.6,4.6-1.6c2.1,0,3.7,0.5,4.7,1.6c1,1,1.6,2.6,1.6,4.7v56.1c0,2-0.5,3.6-1.6,4.6
				C176,105.8,174.4,106.3,172.3,106.3z M172.2,63.4c0-5,1.2-9.5,3.7-13.5c2.5-4,5.8-7.1,10-9.5c4.2-2.3,8.8-3.5,13.8-3.5
				c5,0,8.8,0.8,11.2,2.4c2.5,1.6,3.4,3.6,2.8,5.8c-0.3,1.2-0.7,2.1-1.4,2.7c-0.7,0.6-1.5,1-2.4,1.2c-0.9,0.2-1.9,0.1-3-0.1
				c-5.4-1.1-10.2-1.2-14.4-0.3c-4.3,0.9-7.6,2.6-10.1,5.1c-2.5,2.5-3.7,5.7-3.7,9.5H172.2z"/>
		</g>
	</g>
</g>
<g id="Cloud">
	<g>
		<path class="st5" d="M243.1,76.6c0-14.2-10.6-26.4-25.9-31.6c-1.4-18-19.9-32.2-42.6-32.2c-19.7,0-36.3,10.8-41.2,25.4
			c-7.1-4.3-16-6.9-25.6-6.9C93.7,31.3,81,37,73.3,45.6c-6.8-3.7-15-5.8-23.8-5.8C26,39.8,6.9,55.2,6.9,74.2c0,16.9,15.1,31,35,33.9
			c7.8,8.4,20.2,13.8,34.2,13.8c3.4,0,6.6-0.3,9.8-0.9c6.4,3.1,14,4.9,22,4.9c13.8,0,26.1-5.3,33.9-13.6
			c7.6,9.4,20.8,15.6,35.7,15.6c16.8,0,31.3-7.8,38.3-19.2C231.8,103.8,243.1,91.3,243.1,76.6z"/>
		<path class="st4" d="M243.1,72.6c0-14.2-10.6-26.4-25.9-31.6c-1.4-18-19.9-32.2-42.6-32.2c-19.7,0-36.3,10.8-41.2,25.4
			c-7.1-4.3-16-6.9-25.6-6.9C93.7,27.3,81,33,73.3,41.6c-6.8-3.7-15-5.8-23.8-5.8C26,35.8,6.9,51.2,6.9,70.2c0,16.9,15.1,31,35,33.9
			c7.8,8.4,20.2,13.8,34.2,13.8c3.4,0,6.6-0.3,9.8-0.9c6.4,3.1,14,4.9,22,4.9c13.8,0,26.1-5.3,33.9-13.6
			c7.6,9.4,20.8,15.6,35.7,15.6c16.8,0,31.3-7.8,38.3-19.2C231.8,99.8,243.1,87.3,243.1,72.6z"/>
		<path class="st5" d="M214.2,100.3c0-8.5-8-15.9-19.5-19c-1.1-10.8-15-19.3-32.1-19.3c-14.9,0-27.4,6.5-31.1,15.3
			c-5.4-2.6-12.1-4.2-19.3-4.2c-10.7,0-20.3,3.4-26.1,8.6c-5.1-2.2-11.3-3.5-17.9-3.5c-17.8,0-32.2,9.3-32.2,20.7
			c0,10.2,11.4,18.6,26.4,20.4c5.9,5.1,15.2,8.3,25.8,8.3c2.5,0,5-0.2,7.4-0.6c4.9,1.9,10.5,3,16.6,3c10.4,0,19.7-3.2,25.6-8.2
			c5.8,5.6,15.7,9.4,26.9,9.4c12.7,0,23.6-4.7,28.9-11.5C205.6,116.6,214.2,109.1,214.2,100.3z"/>
		<path class="st4" d="M204.7,93.4c0-7-7.2-13-17.4-15.6c-1-8.9-13.5-15.9-28.7-15.9c-13.3,0-24.5,5.3-27.8,12.5
			c-4.8-2.1-10.8-3.4-17.3-3.4c-9.6,0-18.1,2.8-23.3,7c-4.6-1.8-10.1-2.9-16-2.9c-15.9,0-28.8,7.6-28.8,17
			c0,8.3,10.2,15.3,23.6,16.7c5.2,4.1,13.6,6.8,23.1,6.8c2.3,0,4.5-0.2,6.6-0.5c4.3,1.5,9.4,2.4,14.9,2.4c9.3,0,17.6-2.6,22.9-6.7
			c5.1,4.6,14,7.7,24.1,7.7c11.3,0,21.1-3.9,25.8-9.5C197,106.8,204.7,100.6,204.7,93.4z"/>
	</g>
	<g>
	</g>
	<g>
	</g>
	<g>
	</g>
	<g>
	</g>
	<g>
	</g>
	<g>
	</g>
	<g>
	</g>
	<g>
	</g>
	<g>
	</g>
	<g>
	</g>
	<g>
	</g>
</g>
</svg>
