<?xml version="1.0" encoding="utf-8"?>
<!-- Generator: Adobe Illustrator 23.0.1, SVG Export Plug-In . SVG Version: 6.00 Build 0)  -->
<svg version="1.1" xmlns="http://www.w3.org/2000/svg" xmlns:xlink="http://www.w3.org/1999/xlink" x="0px" y="0px"
	 viewBox="0 0 170 80" style="enable-background:new 0 0 170 80;" xml:space="preserve">
<style type="text/css">
	.st0{display:none;}
	.st1{display:inline;fill:#49C6F4;}
	.st2{display:inline;}
	.st3{fill:#F3F7FA;}
	.st4{fill:#FFFFFF;}
	.st5{fill:#E8F5FD;}
	.st6{display:inline;fill:#FFEE8D;}
	.st7{display:inline;fill:#FCEA26;}
	.st8{fill:#212121;}
	.st9{fill:#708DE8;}
	.st10{fill:#0499CA;}
	.st11{fill:#CFE7F7;}
	.st12{fill:#00BDFE;}
	.st13{fill:#009CFC;}
	.st14{display:inline;fill:#E8F5FD;}
	.st15{display:inline;fill:#FFFFFF;}
</style>
<g id="background_x27_" class="st0">
	<rect x="-875" y="-500" class="st1" width="1920" height="1080"/>
	
		<image style="display:inline;overflow:visible;" width="1161" height="807" xlink:href="434A8980.jpg"  transform="matrix(1 0 0 1 -1947 -1307)">
	</image>
	
		<image style="display:inline;overflow:visible;" width="297" height="572" xlink:href="434A8986.jpg"  transform="matrix(1 0 0 1 -1367 -422)">
	</image>
	
		<image style="display:inline;overflow:visible;" width="795" height="661" xlink:href="434A8982.jpg"  transform="matrix(1 0 0 1 -1779 164)">
	</image>
</g>
<g id="Large_Cloud" class="st0">
	<g class="st2">
		<path class="st3" d="M340,43.4c0-29.9-22.4-55.5-54.4-66.6c-3-37.8-42-67.7-89.6-67.7c-41.5,0-76.4,22.7-86.7,53.5
			c-15-9.1-33.7-14.5-53.9-14.5c-30,0-56.5,11.9-72.8,30.1c-14.3-7.7-31.5-12.3-50-12.3c-49.6,0-89.8,32.4-89.8,72.4
			c0,35.6,31.8,65.2,73.7,71.3c16.4,17.7,42.5,29.1,72,29.1c7.1,0,14-0.7,20.6-1.9c13.5,6.6,29.4,10.4,46.4,10.4
			c29.1,0,55-11.2,71.4-28.5c16,19.7,43.7,32.8,75.1,32.8c35.3,0,65.9-16.5,80.6-40.4C316.1,100.5,340,74.2,340,43.4z"/>
		<path class="st4" d="M327.3,56.1c0-29.9-22.4-55.5-54.4-66.6c-3-37.8-42-67.7-89.6-67.7c-41.5,0-76.4,22.7-86.7,53.5
			c-15-9.1-33.7-14.5-53.9-14.5c-30,0-56.5,11.9-72.8,30.1c-14.3-7.7-31.5-12.3-50-12.3C-129.8-21.4-170,11-170,51
			c0,35.6,31.8,65.2,73.7,71.3c16.4,17.7,42.5,29.1,72,29.1c7.1,0,14-0.7,20.6-1.9c13.5,6.6,29.4,10.4,46.4,10.4
			c29.1,0,55-11.2,71.4-28.5c16,19.7,43.7,32.8,75.1,32.8c35.3,0,65.9-16.5,80.6-40.4C303.4,113.3,327.3,86.9,327.3,56.1z"/>
		<path class="st5" d="M262.1,105.9c0-18-16.9-33.4-41.1-40c-2.3-22.7-31.7-40.7-67.6-40.7c-31.3,0-57.6,13.6-65.4,32.2
			c-11.3-5.5-25.4-8.7-40.7-8.7c-22.6,0-42.6,7.1-55,18.1c-10.8-4.7-23.8-7.4-37.8-7.4c-37.4,0-67.8,19.5-67.8,43.6
			c0,21.4,24,39.2,55.6,42.9c12.4,10.6,32.1,17.5,54.3,17.5c5.3,0,10.5-0.4,15.5-1.2c10.2,4,22.2,6.3,35,6.3
			c22,0,41.5-6.7,53.9-17.2c12.1,11.9,33,19.7,56.7,19.7c26.7,0,49.7-9.9,60.8-24.3C244,140.3,262.1,124.5,262.1,105.9z"/>
		<path class="st4" d="M241.7,91.4c0-14.7-15.1-27.4-36.7-32.8c-2-18.6-28.3-33.4-60.4-33.4c-28,0-51.5,11.2-58.5,26.4
			c-10.1-4.5-22.7-7.2-36.4-7.2c-20.2,0-38.1,5.8-49.1,14.8c-9.6-3.8-21.3-6.1-33.7-6.1c-33.5,0-60.6,16-60.6,35.7
			c0,17.5,21.5,32.1,49.7,35.1c11,8.7,28.7,14.4,48.6,14.4c4.8,0,9.4-0.3,13.9-1c9.1,3.3,19.8,5.1,31.3,5.1
			c19.7,0,37.1-5.5,48.2-14.1c10.8,9.7,29.5,16.2,50.7,16.2c23.8,0,44.5-8.1,54.3-19.9C225.6,119.5,241.7,106.6,241.7,91.4z"/>
	</g>
</g>
<g id="sun" class="st0">
	<polygon id="crown" class="st6" points="173.4,51.6 185,40 173.4,28.4 181.6,14.1 167.3,5.9 171.6,-10 155.7,-14.3 155.7,-30.7 
		139.3,-30.7 135,-46.6 119.1,-42.3 110.9,-56.6 96.6,-48.4 85,-60 73.4,-48.4 59.1,-56.6 50.9,-42.3 35,-46.6 30.7,-30.7 
		14.3,-30.7 14.3,-14.3 -1.6,-10 2.7,5.9 -11.6,14.1 -3.4,28.4 -15,40 -3.4,51.6 -11.6,65.9 2.7,74.1 -1.6,90 14.3,94.3 14.3,110.7 
		30.7,110.7 35,126.6 50.9,122.3 59.1,136.6 73.4,128.4 85,140 96.6,128.4 110.9,136.6 119.1,122.3 135,126.6 139.3,110.7 
		155.7,110.7 155.7,94.3 171.6,90 167.3,74.1 181.6,65.9 	"/>
	<circle id="core" class="st7" cx="85" cy="39.5" r="85.5"/>
</g>
<g id="birds">
	<g>
		<path class="st8" d="M42.6,21.1c0,0-3.6-3.3-10.3,0.8c0,0,6.2-3.1,10.3-0.4c4.1-2.8,10.3,0.4,10.3,0.4
			C46.2,17.8,42.6,21.1,42.6,21.1z"/>
		<path class="st8" d="M74.7,28.5c0,0-3.4-1.7-7.7-1.7s-5.2,1.7-5.2,1.7s-2.8-1.8-5.8-1.7c-1.7,0.1-2.8,1.7-2.8,1.7s1.8-1.1,2.7-1
			c3,0.1,5.9,1.9,5.9,1.9s1.7-1.7,5.2-1.7C70.5,27.7,74.7,28.5,74.7,28.5z"/>
		<path class="st8" d="M124.3,33.7c0,0-4.6-2.3-10.3-2.3s-6.9,2.3-6.9,2.3s-3.7-2.4-7.7-2.3c-2.3,0.1-3.7,2.3-3.7,2.3
			s2.4-1.4,3.6-1.4c4,0.1,7.9,2.5,7.9,2.5s2.3-2.3,6.9-2.3S124.3,33.7,124.3,33.7z"/>
		<path class="st8" d="M109.9,59c0,0-4.6-2.3-10.3-2.3S92.8,59,92.8,59s-3.7-2.4-7.7-2.3c-2.3,0.1-3.7,2.3-3.7,2.3s2.4-1.4,3.6-1.4
			c4,0.1,7.9,2.5,7.9,2.5s2.3-2.3,6.9-2.3C104.2,57.8,109.9,59,109.9,59z"/>
		<path class="st8" d="M23.3,33.6c0,0-3.6-1.8-8.1-1.8s-5.4,1.8-5.4,1.8s-2.9-1.9-6.1-1.8c-1.8,0.1-2.9,1.8-2.9,1.8s1.9-1.1,2.8-1.1
			c3.1,0.1,6.2,2,6.2,2s1.8-1.8,5.4-1.8S23.3,33.6,23.3,33.6z"/>
		<path class="st8" d="M66.7,44.2c0,0-4.6-2.3-10.3-2.3s-6.9,2.3-6.9,2.3s-3.7-2.4-7.7-2.3c-2.3,0.1-3.7,2.3-3.7,2.3
			s2.4-1.4,3.6-1.4c4,0.1,7.9,2.5,7.9,2.5s2.3-2.3,6.9-2.3S66.7,44.2,66.7,44.2z"/>
		<path class="st8" d="M131.2,46.9c0,0-2.5-1.2-5.6-1.2s-3.7,1.2-3.7,1.2s-2-1.3-4.2-1.2c-1.2,0-2,1.2-2,1.2s1.3-0.8,1.9-0.8
			c2.2,0.1,4.3,1.4,4.3,1.4s1.2-1.2,3.7-1.2S131.2,46.9,131.2,46.9z"/>
		<path class="st8" d="M169.1,44.7c0,0-2.5-1.2-5.6-1.2s-3.7,1.2-3.7,1.2s-2-1.3-4.2-1.2c-1.2,0-2,1.2-2,1.2s1.3-0.8,1.9-0.8
			c2.2,0.1,4.3,1.4,4.3,1.4s1.2-1.2,3.7-1.2S169.1,44.7,169.1,44.7z"/>
	</g>
</g>
<g id="plane" class="st0">
	<g class="st2">
		<path class="st9" d="M83.3,40.1c0.1,0.1,0.2,0.2,0.3,0.3c0.1,0.1,0.1,0.1,0.2,0.2c0,0,0,0,0.1,0c0.1,0.1,0.3,0.2,0.4,0.3
			c0,0,0.1,0.1,0.1,0.1c0.1,0,0.1,0.1,0.2,0.1h0c0.1,0,0.1,0.1,0.2,0.1c0.9,0.7,1.9,1.4,2.8,2.2c0.5,0.4,1,0.7,1.5,1.1
			c1.3,1,2.6,2,3.9,3c0.1,0.1,0.3,0.2,0.5,0.2c0.3,0,0.7-0.1,1-0.3c0.3-0.2,0.3-0.4,0.1-0.7c-1.3-1.6-2.5-3.1-3.8-4.7
			c-0.1-0.1-0.2-0.2-0.2-0.3c-0.2-0.2-0.3-0.4-0.5-0.6c0,0,0,0,0,0c0,0-0.1-0.1-0.1-0.1c-0.1-0.1-0.1-0.2-0.2-0.3
			c-0.1-0.1-0.1-0.2-0.2-0.3c-0.1-0.1-0.1-0.2-0.3-0.2c-1.9-0.1-3.8-0.1-5.7-0.1C83.4,40.1,83.4,40.1,83.3,40.1z"/>
		<path class="st9" d="M96.6,37c0,0.1,0.1,0.1,0.1,0.1c0.9,0.1,1.8,0.2,2.7,0.3c0.1,0,0.1,0,0.2,0c0-1.6,0.2-3.2,0.2-4.8
			c0-0.3,0-0.3-0.3-0.3c-0.1,0-0.2,0-0.3,0c-0.2,0-0.4,0.1-0.5,0.3c-0.7,1.4-1.4,2.7-2.1,4.1C96.6,36.9,96.6,36.9,96.6,37z"/>
		<path class="st9" d="M84.9,36.7c0.1,0,0.3,0,0.4,0c1.6,0,3.1,0,4.7,0.1c0.2,0,0.4,0,0.6,0c0.1,0,0.2,0,0.2-0.1
			c0.3-0.4,0.5-0.8,0.8-1.3c0.1-0.2,0.2-0.4,0.1-0.6c-0.1-0.2-0.3-0.2-0.5-0.2c-0.6,0-1.2,0.1-1.8,0.3c-1.4,0.5-2.8,1.1-4.3,1.6
			C85,36.6,85,36.7,84.9,36.7z"/>
		<path class="st9" d="M99.1,39.4c-0.1-0.3-0.1-0.6-0.2-0.8c-0.1-0.3-0.1-0.4-0.4-0.4c-0.6,0-1.2,0-1.8-0.1c-0.1,0-0.2,0-0.2,0
			c0,0.1,0,0.1,0.1,0.2c0.3,0.4,0.6,0.9,0.8,1.3c0,0,0,0,0,0c0,0,0,0,0,0.1c0.2,0.3,0.5,0.7,0.7,1c0.2,0.3,0.4,0.4,0.6,0.5
			c0.2,0,0.3,0.1,0.5,0.2c0.2,0.1,0.2,0,0.2-0.2c0-0.2-0.1-0.4-0.1-0.6c0-0.1,0-0.1,0-0.2c0,0,0-0.1,0-0.1c0,0,0-0.1,0-0.1
			c0,0,0,0,0,0c-0.1-0.1,0-0.1,0-0.2c0,0,0-0.1,0-0.1c0-0.1-0.1-0.2-0.1-0.3C99.1,39.6,99.1,39.5,99.1,39.4z"/>
		<path class="st4" d="M100.5,37.7c-0.2-0.1-0.5-0.1-0.7-0.2c-0.1,0-0.1,0-0.2-0.1c-0.1,0-0.1,0-0.2,0c-0.9-0.2-1.8-0.3-2.7-0.3
			c-0.1,0-0.2,0-0.1-0.1c-0.1,0.1-0.2,0.1-0.3,0.1C95.6,37,95,37,94.3,36.9c-0.8,0-1.5-0.1-2.3-0.1c-0.3,0-0.7,0-1,0
			c-0.1,0-0.2,0-0.2-0.1c-0.1,0.1-0.1,0.1-0.2,0.1c-0.2,0-0.4,0-0.6,0c-1.6,0-3.1,0-4.7-0.1c-0.1,0-0.3,0-0.4,0c-1.3,0-2.7,0-4,0
			c-1.1,0-2.2,0-3.4,0.1c-0.7,0-1.4,0-2.2,0c-0.8,0-1.6,0.1-2.3,0.5c-0.4,0.2-0.8,0.6-1.2,0.8c0,0,0,0.1,0,0.1
			c0.3,0.2,0.5,0.2,0.8,0.1c0.3,0,0.6,0.2,0.6,0.4c0,0.3-0.2,0.4-0.6,0.4c-0.5,0-1-0.2-1.4-0.6c-0.4,0.2-0.8,0.3-1.2,0.5
			c-0.3,0.1-0.6,0.3-0.9,0.6c-0.3,0.3-0.2,0.7,0.1,0.9c0.4,0.3,0.8,0.4,1.3,0.5c0.7,0.1,1.5,0,2.2,0c1,0,2,0,3,0.1
			c0.8,0,1.6,0,2.5,0h0c1,0,2,0,3,0c0.1,0,0.1,0,0.2,0c0.6,0,1.2,0,1.8,0c0.1,0,0.1,0,0.2,0c0.4,0,0.9,0,1.3,0
			c-0.1,0-0.1-0.1-0.2-0.1c0,0-0.1-0.1-0.1-0.1c-0.1-0.1-0.3-0.2-0.4-0.3c0,0,0,0-0.1,0c-0.1-0.1-0.1-0.1-0.2-0.2
			c-0.1-0.1-0.2-0.2-0.3-0.3c0.1,0,0.1,0,0.1,0c1.9,0,3.8,0,5.7,0.1c0.1,0,0.2,0.1,0.3,0.2c0.1,0.1,0.1,0.2,0.2,0.3
			c0.1,0.1,0.1,0.2,0.2,0.3c0,0,0.1,0.1,0.1,0.1c0,0,0,0,0,0c0.1,0,0.2,0,0.3-0.1c1-0.1,1.9-0.3,2.9-0.5c1-0.2,1.9-0.4,2.9-0.6
			c0.4-0.1,0.8-0.2,1.2-0.3c-0.3-0.4-0.6-0.9-0.8-1.3c0-0.1-0.1-0.1-0.1-0.2c0-0.1,0.1-0.1,0.2,0c0.6,0,1.2,0,1.8,0.1
			c0.3,0,0.4,0.1,0.4,0.4c0.1,0.3,0.1,0.6,0.2,0.8c0-0.1,0.1-0.2,0.2-0.2c0.4,0,0.8-0.2,1.1-0.3c0.2-0.1,0.5-0.2,0.5-0.5
			C101.1,38,100.9,37.8,100.5,37.7z"/>
		<path class="st10" d="M71.2,38.6c0.4,0.4,0.9,0.6,1.4,0.6c0.4,0,0.6-0.1,0.6-0.4c0-0.3-0.3-0.5-0.6-0.4c-0.3,0-0.6,0-0.8-0.1
			C71.5,38.2,71.4,38.4,71.2,38.6z"/>
		<path class="st11" d="M97.4,39.8C97.4,39.7,97.3,39.7,97.4,39.8C97.3,39.7,97.3,39.8,97.4,39.8z"/>
		<path class="st10" d="M91.2,38.4c0,0.1,0,0.2,0,0.3c0,0.1,0.1,0.2,0.2,0.2c0.1,0,0.2-0.1,0.2-0.2c0-0.2,0-0.4,0-0.5
			c0-0.1-0.1-0.2-0.2-0.2c-0.1,0-0.2,0.1-0.2,0.2C91.2,38.3,91.2,38.3,91.2,38.4z"/>
		<path class="st10" d="M80.5,38.3c0-0.1,0-0.2,0-0.3c0-0.1-0.1-0.2-0.2-0.2c-0.1,0-0.2,0.1-0.2,0.2c0,0.2,0,0.4,0,0.6
			c0,0.1,0.1,0.2,0.2,0.2c0.1,0,0.2-0.1,0.2-0.2C80.5,38.4,80.5,38.3,80.5,38.3C80.5,38.3,80.5,38.3,80.5,38.3z"/>
		<path class="st10" d="M82.6,38.3c0,0.3,0.1,0.5,0.2,0.4c0.2,0,0.2-0.2,0.2-0.4c0-0.1,0-0.2,0-0.3c0-0.1-0.1-0.2-0.2-0.2
			c-0.1,0-0.2,0.1-0.2,0.2C82.5,38.1,82.6,38.2,82.6,38.3z"/>
		<path class="st10" d="M85,38.3c0,0.1,0,0.2,0,0.2c0,0.1,0.1,0.2,0.2,0.2c0.1,0,0.2-0.1,0.2-0.2c0-0.2,0-0.4,0-0.6
			c0-0.1-0.1-0.2-0.2-0.2c-0.1,0-0.2,0.1-0.2,0.2C85,38.2,85,38.3,85,38.3C85,38.3,85,38.3,85,38.3z"/>
		<path class="st10" d="M88.7,38.4c0,0.1,0,0.2,0,0.2c0,0.1,0.1,0.2,0.2,0.2c0.1,0,0.2-0.1,0.2-0.2c0-0.2,0-0.4,0-0.6
			c0-0.1-0.1-0.2-0.2-0.2c-0.1,0-0.2,0.1-0.2,0.2C88.7,38.2,88.7,38.3,88.7,38.4C88.7,38.4,88.7,38.4,88.7,38.4z"/>
		<path class="st10" d="M76.4,38.2c0,0.2,0,0.5,0.2,0.5c0.3,0,0.2-0.2,0.2-0.4c0-0.1,0-0.2,0-0.3c0-0.1-0.1-0.2-0.2-0.2
			c-0.1,0-0.2,0.1-0.2,0.2C76.4,38,76.4,38.1,76.4,38.2z"/>
		<path class="st10" d="M84.2,38.3c0-0.1,0-0.2,0-0.3c0-0.1-0.1-0.2-0.2-0.2c-0.1,0-0.2,0.1-0.2,0.2c0,0.2,0,0.4,0,0.5
			c0,0.1,0.1,0.2,0.2,0.2c0.1,0,0.2-0.1,0.2-0.2C84.2,38.5,84.2,38.4,84.2,38.3C84.2,38.3,84.2,38.3,84.2,38.3z"/>
		<path class="st10" d="M86.3,38.4c0,0.1,0,0.2,0,0.3c0,0.1,0.1,0.2,0.2,0.2c0.1,0,0.2,0,0.2-0.1c0.1-0.2,0.1-0.4,0-0.6
			c0-0.1-0.1-0.1-0.2-0.1c-0.1,0-0.2,0.1-0.2,0.2C86.2,38.2,86.3,38.3,86.3,38.4C86.3,38.4,86.3,38.4,86.3,38.4z"/>
		<path class="st10" d="M87.5,38.4c0,0.1,0,0.2,0,0.2c0,0.1,0.1,0.2,0.2,0.2c0.1,0,0.2-0.1,0.2-0.2c0-0.2,0-0.4,0-0.5
			c0-0.1-0.1-0.2-0.2-0.2c-0.1,0-0.2,0.1-0.2,0.2C87.5,38.2,87.5,38.3,87.5,38.4C87.5,38.4,87.5,38.4,87.5,38.4z"/>
		<path class="st10" d="M81.3,38.3c0,0.3,0.1,0.4,0.2,0.4c0.2,0,0.2-0.2,0.2-0.4c0-0.1,0-0.2,0-0.3c0-0.1-0.1-0.2-0.2-0.2
			c-0.1,0-0.2,0.1-0.2,0.2C81.3,38.1,81.3,38.2,81.3,38.3z"/>
		<path class="st10" d="M79.3,38.2c0-0.1,0-0.2,0-0.2c0-0.1-0.1-0.2-0.2-0.2c-0.1,0-0.2,0.1-0.2,0.2c0,0.2,0,0.3,0,0.5
			c0,0.1,0.1,0.2,0.2,0.2c0.1,0,0.2-0.1,0.2-0.2C79.3,38.4,79.3,38.3,79.3,38.2z"/>
		<path class="st10" d="M78.1,38.2c0-0.1,0-0.2,0-0.2c0-0.1-0.1-0.2-0.2-0.2c-0.1,0-0.2,0.1-0.2,0.2c0,0.2,0,0.4,0,0.6
			c0,0.1,0.1,0.2,0.2,0.2c0.1,0,0.2-0.1,0.2-0.2C78.1,38.4,78.1,38.3,78.1,38.2z"/>
		<path class="st10" d="M75.2,38.2c0,0.1,0,0.2,0,0.2c0,0.1,0.1,0.2,0.2,0.2c0.1,0,0.2-0.1,0.2-0.2c0-0.2,0-0.3,0-0.5
			c0-0.1-0.1-0.2-0.2-0.2c-0.1,0-0.2,0.1-0.2,0.2C75.2,38,75.2,38.1,75.2,38.2C75.2,38.2,75.2,38.2,75.2,38.2z"/>
		<path class="st10" d="M89.9,38.4c0,0.1,0,0.2,0,0.3c0,0.1,0.1,0.2,0.2,0.2c0.1,0,0.2-0.1,0.2-0.2c0-0.2,0-0.4,0-0.6
			c0-0.1-0.1-0.2-0.2-0.2C90,38,90,38,90,38.2C89.9,38.2,90,38.3,89.9,38.4C89.9,38.4,89.9,38.4,89.9,38.4z"/>
	</g>
</g>
<g id="text" class="st0">
	<g class="st2">
		<g>
			<g>
				<path class="st12" d="M228.9,79.2c-1.8,0-3.4-0.6-4.6-1.9c-1.3-1.3-1.9-2.8-1.9-4.6v-85c0-1.9,0.6-3.5,1.9-4.7
					c1.3-1.2,2.8-1.8,4.6-1.8h22.7c7.2,0,13.8,1.2,19.7,3.6c5.9,2.4,11,5.8,15.4,10.2c4.4,4.4,7.7,9.6,10,15.5
					c2.3,5.9,3.5,12.5,3.5,19.7c0,7.2-1.2,13.8-3.5,19.8c-2.3,6-5.7,11.2-10,15.6c-4.4,4.4-9.5,7.8-15.4,10.2
					c-5.9,2.4-12.5,3.6-19.7,3.6H228.9z M235.5,67.6h16.2c7,0,13.2-1.6,18.6-4.8c5.4-3.2,9.6-7.7,12.7-13.3
					c3.1-5.7,4.6-12.1,4.6-19.4c0-7.4-1.5-13.9-4.6-19.5c-3.1-5.6-7.3-10-12.7-13.2c-5.4-3.2-11.6-4.8-18.6-4.8h-16.2V67.6z"/>
				<path class="st12" d="M348.1,79.7c-6.1,0-11.6-1.5-16.5-4.6c-4.9-3.1-8.7-7.2-11.5-12.4c-2.8-5.2-4.2-11.2-4.2-17.8
					c0-6.6,1.5-12.6,4.6-17.8c3.1-5.3,7.2-9.4,12.4-12.5c5.2-3.1,11.1-4.6,17.6-4.6s12.4,1.5,17.6,4.6c5.2,3.1,9.3,7.2,12.4,12.5
					c3.1,5.3,4.6,11.2,4.6,17.8h-4.9c0,6.6-1.4,12.5-4.2,17.8c-2.8,5.2-6.6,9.4-11.5,12.4C359.7,78.2,354.2,79.7,348.1,79.7z
					 M350.6,68.4c4.3,0,8.1-1,11.4-3.1c3.3-2,6-4.9,7.9-8.4c1.9-3.6,2.9-7.6,2.9-12c0-4.5-1-8.6-2.9-12.1c-1.9-3.6-4.6-6.4-7.9-8.4
					c-3.3-2.1-7.2-3.1-11.4-3.1c-4.2,0-8,1-11.4,3.1c-3.4,2.1-6.1,4.9-8,8.4c-2,3.6-3,7.6-3,12.1c0,4.4,1,8.4,3,12
					c2,3.6,4.6,6.4,8,8.4C342.6,67.4,346.4,68.4,350.6,68.4z M378.7,79.3c-1.8,0-3.4-0.6-4.6-1.8c-1.2-1.2-1.8-2.7-1.8-4.6V53.7
					l2.4-13.3l10.4,4.5v28c0,1.8-0.6,3.4-1.8,4.6C382.1,78.7,380.6,79.3,378.7,79.3z"/>
				<path class="st12" d="M429.2,79.7c-5.9,0-11.3-0.9-16.3-2.7c-5-1.8-8.9-4.1-11.6-6.8c-1.3-1.3-1.8-2.9-1.6-4.6
					c0.2-1.7,1-3.1,2.4-4.2c1.7-1.3,3.3-1.9,5-1.7c1.6,0.2,3,0.9,4.2,2.2c1.4,1.6,3.7,3.1,6.8,4.5c3.1,1.4,6.6,2.1,10.5,2.1
					c4.9,0,8.6-0.8,11.1-2.4c2.6-1.6,3.9-3.6,4-6.2c0.1-2.5-1.1-4.7-3.6-6.5c-2.5-1.8-7-3.3-13.5-4.5c-8.5-1.7-14.6-4.2-18.4-7.5
					c-3.8-3.3-5.7-7.5-5.7-12.3c0-4.3,1.3-7.8,3.8-10.6c2.5-2.8,5.7-4.9,9.7-6.3c3.9-1.4,8-2.1,12.3-2.1c5.5,0,10.4,0.9,14.7,2.6
					c4.3,1.8,7.7,4.2,10.2,7.3c1.2,1.3,1.7,2.7,1.6,4.2c-0.1,1.5-0.8,2.7-2.1,3.7c-1.3,0.9-2.9,1.2-4.8,0.9
					c-1.8-0.3-3.4-1.1-4.6-2.3c-2.1-2-4.4-3.4-6.8-4.1c-2.4-0.8-5.2-1.1-8.4-1.1c-3.7,0-6.8,0.6-9.4,1.9c-2.6,1.3-3.8,3.1-3.8,5.5
					c0,1.5,0.4,2.9,1.2,4.1c0.8,1.2,2.4,2.3,4.7,3.3c2.3,1,5.8,1.9,10.3,2.8c6.3,1.3,11.2,2.8,14.9,4.8c3.6,1.9,6.3,4.2,7.8,6.7
					c1.6,2.6,2.4,5.5,2.4,8.9c0,3.9-1,7.3-3.1,10.4c-2.1,3.1-5.1,5.6-9,7.4C440.1,78.8,435.2,79.7,429.2,79.7z"/>
				<path class="st12" d="M478.8,54.2c-1.8,0-3.4-0.6-4.6-1.8c-1.2-1.2-1.8-2.7-1.8-4.6v-60.3c0-1.9,0.6-3.5,1.8-4.6
					c1.2-1.2,2.7-1.8,4.6-1.8c1.9,0,3.5,0.6,4.6,1.8c1.2,1.2,1.8,2.7,1.8,4.6v60.3c0,1.8-0.6,3.4-1.8,4.6
					C482.3,53.6,480.7,54.2,478.8,54.2z M478.8,79.3c-1.8,0-3.4-0.6-4.6-1.8c-1.2-1.2-1.8-2.7-1.8-4.6v-56c0-1.9,0.6-3.5,1.8-4.6
					c1.2-1.2,2.7-1.8,4.6-1.8c1.9,0,3.5,0.6,4.6,1.8c1.2,1.2,1.8,2.7,1.8,4.6v56c0,1.8-0.6,3.4-1.8,4.6
					C482.3,78.7,480.7,79.3,478.8,79.3z M530.4,79.3c-1.8,0-3.4-0.6-4.6-1.8c-1.2-1.2-1.8-2.7-1.8-4.6V42c0-4.8-0.9-8.7-2.6-11.7
					s-4.1-5.3-7.1-6.7c-3-1.5-6.4-2.2-10.2-2.2c-3.5,0-6.7,0.7-9.5,2.1c-2.8,1.4-5.1,3.3-6.8,5.7c-1.7,2.4-2.5,5.1-2.5,8.2h-7.9
					c0-5.3,1.3-10,3.8-14.1c2.6-4.1,6-7.4,10.5-9.9c4.4-2.4,9.4-3.6,14.9-3.6c5.8,0,10.9,1.2,15.5,3.7c4.6,2.5,8.2,6.1,10.8,10.9
					c2.6,4.8,4,10.6,4,17.6v30.9c0,1.8-0.6,3.4-1.8,4.6C533.8,78.7,532.3,79.3,530.4,79.3z"/>
			</g>
			<g>
				<path class="st13" d="M231.5,76.3c-1.8,0-3.4-0.6-4.6-1.9s-1.9-2.8-1.9-4.6v-85c0-1.9,0.6-3.5,1.9-4.7c1.3-1.2,2.8-1.8,4.6-1.8
					h22.7c7.2,0,13.8,1.2,19.7,3.6c5.9,2.4,11,5.8,15.4,10.2c4.4,4.4,7.7,9.6,10,15.5c2.3,5.9,3.5,12.5,3.5,19.7
					c0,7.2-1.2,13.8-3.5,19.8c-2.3,6-5.7,11.2-10,15.6c-4.4,4.4-9.5,7.8-15.4,10.2c-5.9,2.4-12.5,3.6-19.7,3.6H231.5z M238,64.8
					h16.2c7,0,13.2-1.6,18.6-4.8c5.4-3.2,9.6-7.7,12.7-13.3c3.1-5.7,4.6-12.1,4.6-19.4c0-7.4-1.5-13.9-4.6-19.5
					c-3.1-5.6-7.3-10-12.7-13.2c-5.4-3.2-11.6-4.8-18.6-4.8H238V64.8z"/>
				<path class="st13" d="M350.7,76.8c-6.1,0-11.6-1.5-16.5-4.6c-4.9-3.1-8.7-7.2-11.5-12.4c-2.8-5.2-4.2-11.2-4.2-17.8
					c0-6.6,1.5-12.6,4.6-17.8c3.1-5.3,7.2-9.4,12.4-12.5c5.2-3.1,11.1-4.6,17.6-4.6s12.4,1.5,17.6,4.6c5.2,3.1,9.3,7.2,12.4,12.5
					c3.1,5.3,4.6,11.2,4.6,17.8h-4.9c0,6.6-1.4,12.5-4.2,17.8c-2.8,5.2-6.6,9.4-11.5,12.4C362.3,75.3,356.8,76.8,350.7,76.8z
					 M353.2,65.5c4.3,0,8.1-1,11.4-3.1c3.3-2.1,6-4.9,7.9-8.4c1.9-3.6,2.9-7.6,2.9-12c0-4.5-1-8.6-2.9-12.1
					c-1.9-3.6-4.6-6.4-7.9-8.4c-3.3-2-7.2-3.1-11.4-3.1c-4.2,0-8,1-11.4,3.1c-3.4,2.1-6.1,4.9-8,8.4c-2,3.6-3,7.6-3,12.1
					c0,4.4,1,8.4,3,12c2,3.6,4.6,6.4,8,8.4C345.2,64.5,349,65.5,353.2,65.5z M381.3,76.5c-1.8,0-3.4-0.6-4.6-1.8
					c-1.2-1.2-1.8-2.7-1.8-4.6V50.8l2.4-13.3l10.4,4.5v28c0,1.8-0.6,3.4-1.8,4.6C384.7,75.9,383.2,76.5,381.3,76.5z"/>
				<path class="st13" d="M431.8,76.8c-5.9,0-11.3-0.9-16.3-2.7c-5-1.8-8.9-4.1-11.6-6.8c-1.3-1.3-1.8-2.9-1.6-4.6
					c0.2-1.7,1-3.1,2.4-4.2c1.7-1.3,3.3-1.9,5-1.7c1.6,0.2,3,0.9,4.2,2.2c1.4,1.6,3.7,3.1,6.8,4.5c3.1,1.4,6.6,2.1,10.5,2.1
					c4.9,0,8.6-0.8,11.1-2.4c2.6-1.6,3.9-3.6,4-6.2c0.1-2.5-1.1-4.7-3.6-6.5c-2.5-1.8-7-3.3-13.5-4.5c-8.5-1.7-14.6-4.2-18.4-7.5
					c-3.8-3.3-5.7-7.4-5.7-12.3c0-4.3,1.3-7.8,3.8-10.6c2.5-2.8,5.7-4.9,9.7-6.3c3.9-1.4,8-2.1,12.3-2.1c5.5,0,10.4,0.9,14.7,2.6
					c4.3,1.8,7.7,4.2,10.2,7.3c1.2,1.3,1.7,2.7,1.6,4.2c-0.1,1.5-0.8,2.7-2.1,3.7c-1.3,0.9-2.9,1.2-4.8,0.9
					c-1.8-0.3-3.4-1.1-4.6-2.3c-2.1-2-4.4-3.4-6.8-4.1c-2.4-0.8-5.2-1.1-8.4-1.1c-3.7,0-6.8,0.6-9.4,1.9c-2.6,1.3-3.8,3.1-3.8,5.5
					c0,1.5,0.4,2.9,1.2,4.1c0.8,1.2,2.4,2.3,4.7,3.3c2.3,1,5.8,1.9,10.3,2.8c6.3,1.3,11.2,2.8,14.9,4.8c3.6,1.9,6.3,4.2,7.8,6.7
					c1.6,2.6,2.4,5.5,2.4,8.9c0,3.9-1,7.3-3.1,10.4c-2.1,3.1-5.1,5.6-9,7.4C442.7,75.9,437.7,76.8,431.8,76.8z"/>
				<path class="st13" d="M481.4,51.4c-1.8,0-3.4-0.6-4.6-1.8c-1.2-1.2-1.8-2.7-1.8-4.6v-60.3c0-1.9,0.6-3.5,1.8-4.6
					c1.2-1.2,2.7-1.8,4.6-1.8c1.9,0,3.5,0.6,4.6,1.8c1.2,1.2,1.8,2.7,1.8,4.6v60.3c0,1.8-0.6,3.4-1.8,4.6
					C484.9,50.7,483.3,51.4,481.4,51.4z M481.4,76.5c-1.8,0-3.4-0.6-4.6-1.8c-1.2-1.2-1.8-2.7-1.8-4.6v-56c0-1.9,0.6-3.5,1.8-4.6
					c1.2-1.2,2.7-1.8,4.6-1.8c1.9,0,3.5,0.6,4.6,1.8c1.2,1.2,1.8,2.7,1.8,4.6v56c0,1.8-0.6,3.4-1.8,4.6
					C484.9,75.9,483.3,76.5,481.4,76.5z M533,76.5c-1.8,0-3.4-0.6-4.6-1.8c-1.2-1.2-1.8-2.7-1.8-4.6V39.2c0-4.8-0.9-8.7-2.6-11.7
					s-4.1-5.3-7.1-6.7c-3-1.5-6.4-2.2-10.2-2.2c-3.5,0-6.7,0.7-9.5,2.1c-2.8,1.4-5.1,3.3-6.8,5.7c-1.7,2.4-2.5,5.1-2.5,8.2h-7.9
					c0-5.3,1.3-10,3.8-14.1c2.6-4.1,6-7.4,10.5-9.9c4.4-2.4,9.4-3.6,14.9-3.6c5.8,0,10.9,1.2,15.5,3.7c4.6,2.5,8.2,6.1,10.8,10.9
					c2.6,4.8,4,10.6,4,17.6v30.9c0,1.8-0.6,3.4-1.8,4.6C536.4,75.9,534.8,76.5,533,76.5z"/>
			</g>
		</g>
		<g>
			<path class="st12" d="M-332.8,79.2c-1.5,0-2.8-0.5-4-1.4c-1.2-0.9-2-2.2-2.5-3.8l-25.2-83.9c-0.8-2.8-0.8-5,0.2-6.6
				c1-1.6,2.5-2.4,4.7-2.4c1.4,0,2.7,0.4,3.9,1.2c1.2,0.8,2,2,2.5,3.7l22,76.6h-2.8l20.3-75.8c0.3-1.3,1.1-2.3,2.3-3.1
				c1.2-0.8,2.5-1.3,4-1.3c1.3,0,2.6,0.4,3.8,1.1c1.2,0.7,2,1.8,2.3,3.2l20.5,76h-2.5l22.1-77.2c0.8-2.8,3-4.3,6.4-4.3
				c2.3,0,3.8,0.9,4.5,2.7c0.7,1.8,0.7,3.9,0,6.3l-25.2,83.8c-0.6,1.6-1.4,2.9-2.6,3.8c-1.1,1-2.4,1.4-4,1.4c-1.6,0-3-0.5-4.1-1.5
				c-1.1-1-1.9-2.2-2.4-3.6l-20.2-78.1h3l-20.5,78c-0.6,1.6-1.4,2.9-2.6,3.8C-329.9,78.7-331.3,79.2-332.8,79.2z"/>
			<path class="st12" d="M-218.6,79.7c-6.9,0-13.1-1.5-18.5-4.5c-5.4-3-9.6-7.1-12.7-12.3c-3.1-5.2-4.6-11.2-4.6-18
				c0-6.9,1.4-12.9,4.3-18.1c2.9-5.2,6.9-9.3,12-12.3c5.1-3,11-4.5,17.6-4.5c6.5,0,12.1,1.4,16.8,4.3c4.7,2.9,8.3,6.9,10.7,11.9
				c2.5,5.1,3.7,10.9,3.7,17.5c0,1.6-0.5,2.9-1.6,4c-1.1,1-2.5,1.6-4.1,1.6h-50.6v-10h50.2l-5.1,3.5c-0.1-4.2-0.9-7.9-2.5-11.2
				c-1.6-3.3-3.9-5.9-6.8-7.8c-2.9-1.9-6.5-2.9-10.7-2.9c-4.8,0-8.9,1-12.2,3.1c-3.4,2.1-6,5-7.7,8.6c-1.8,3.6-2.6,7.8-2.6,12.4
				c0,4.6,1,8.7,3.1,12.3c2.1,3.6,5,6.4,8.7,8.5c3.7,2.1,7.9,3.1,12.7,3.1c2.6,0,5.3-0.5,8-1.4c2.7-1,4.9-2.1,6.6-3.3
				c1.3-0.9,2.6-1.4,4.1-1.4c1.5,0,2.7,0.4,3.8,1.3c1.4,1.3,2.2,2.6,2.3,4.1c0.1,1.5-0.6,2.8-2,3.9c-2.8,2.3-6.4,4.1-10.6,5.5
				C-210.7,79-214.8,79.7-218.6,79.7z"/>
			<path class="st12" d="M-146.8,79.7c-6.1,0-11.6-1.5-16.4-4.6c-4.9-3.1-8.7-7.2-11.5-12.4c-2.8-5.2-4.2-11.2-4.2-17.8
				c0-6.6,1.5-12.6,4.6-17.8c3.1-5.3,7.2-9.4,12.4-12.5c5.2-3.1,11.1-4.6,17.6-4.6s12.4,1.5,17.6,4.6c5.2,3.1,9.3,7.2,12.4,12.5
				c3.1,5.3,4.6,11.2,4.6,17.8h-4.9c0,6.6-1.4,12.5-4.2,17.8c-2.8,5.2-6.6,9.4-11.5,12.4C-135.2,78.2-140.7,79.7-146.8,79.7z
				 M-144.3,68.4c4.3,0,8.1-1,11.4-3.1c3.3-2,6-4.9,7.9-8.4c1.9-3.6,2.9-7.6,2.9-12c0-4.5-1-8.6-2.9-12.1c-1.9-3.6-4.6-6.4-7.9-8.4
				c-3.3-2.1-7.2-3.1-11.4-3.1c-4.2,0-8,1-11.4,3.1c-3.4,2.1-6.1,4.9-8,8.4c-2,3.6-3,7.6-3,12.1c0,4.4,1,8.4,3,12
				c2,3.6,4.6,6.4,8,8.4C-152.3,67.4-148.5,68.4-144.3,68.4z M-116.1,79.3c-1.8,0-3.4-0.6-4.6-1.8c-1.2-1.2-1.8-2.7-1.8-4.6V53.7
				l2.4-13.3l10.4,4.5v28c0,1.8-0.6,3.4-1.8,4.6C-112.8,78.7-114.3,79.3-116.1,79.3z"/>
			<path class="st12" d="M-93.5,23.8c-1.8,0-3.2-0.5-4.3-1.5c-1.1-1-1.6-2.3-1.6-3.8c0-1.7,0.5-3,1.6-4c1.1-1,2.5-1.5,4.3-1.5h29
				c1.8,0,3.2,0.5,4.3,1.5c1.1,1,1.6,2.3,1.6,4c0,1.5-0.5,2.8-1.6,3.8c-1.1,1-2.5,1.5-4.3,1.5H-93.5z M-65.7,79.2
				c-4.2,0-8-1.1-11.3-3.2c-3.3-2.1-6-5-7.9-8.7c-1.9-3.7-2.9-7.8-2.9-12.4V-5.1c0-1.8,0.6-3.3,1.8-4.5c1.2-1.2,2.7-1.8,4.5-1.8
				c1.8,0,3.3,0.6,4.5,1.8c1.2,1.2,1.8,2.7,1.8,4.5v59.9c0,3.3,0.9,6.2,2.8,8.4c1.8,2.3,4.1,3.4,6.8,3.4h4.3c1.5,0,2.8,0.6,3.8,1.8
				c1,1.2,1.6,2.7,1.6,4.5c0,1.8-0.7,3.3-2.1,4.5c-1.4,1.2-3.2,1.8-5.3,1.8H-65.7z"/>
			<path class="st12" d="M-33.9,54.2c-1.8,0-3.4-0.6-4.6-1.8c-1.2-1.2-1.8-2.7-1.8-4.6v-60.3c0-1.9,0.6-3.5,1.8-4.6
				c1.2-1.2,2.7-1.8,4.6-1.8c1.9,0,3.5,0.6,4.6,1.8c1.2,1.2,1.8,2.7,1.8,4.6v60.3c0,1.8-0.6,3.4-1.8,4.6
				C-30.4,53.6-32,54.2-33.9,54.2z M-33.9,79.3c-1.8,0-3.4-0.6-4.6-1.8c-1.2-1.2-1.8-2.7-1.8-4.6v-56c0-1.9,0.6-3.5,1.8-4.6
				c1.2-1.2,2.7-1.8,4.6-1.8c1.9,0,3.5,0.6,4.6,1.8c1.2,1.2,1.8,2.7,1.8,4.6v56c0,1.8-0.6,3.4-1.8,4.6C-30.4,78.7-32,79.3-33.9,79.3
				z M17.7,79.3c-1.8,0-3.4-0.6-4.6-1.8c-1.2-1.2-1.8-2.7-1.8-4.6V42c0-4.8-0.9-8.7-2.6-11.7c-1.8-3-4.1-5.3-7.1-6.7
				c-3-1.5-6.4-2.2-10.2-2.2c-3.5,0-6.7,0.7-9.5,2.1c-2.8,1.4-5.1,3.3-6.8,5.7c-1.7,2.4-2.5,5.1-2.5,8.2h-7.9c0-5.3,1.3-10,3.8-14.1
				c2.6-4.1,6-7.4,10.5-9.9c4.4-2.4,9.4-3.6,14.9-3.6c5.8,0,10.9,1.2,15.5,3.7c4.6,2.5,8.2,6.1,10.8,10.9c2.6,4.8,4,10.6,4,17.6
				v30.9c0,1.8-0.6,3.4-1.8,4.6C21.1,78.7,19.6,79.3,17.7,79.3z"/>
			<path class="st12" d="M77.7,79.7c-7,0-13.1-1.5-18.5-4.5c-5.4-3-9.6-7.1-12.7-12.3c-3.1-5.2-4.6-11.2-4.6-18
				c0-6.9,1.4-12.9,4.3-18.1c2.9-5.2,6.9-9.3,12-12.3c5.1-3,11-4.5,17.6-4.5c6.5,0,12.1,1.4,16.8,4.3c4.7,2.9,8.3,6.9,10.7,11.9
				c2.5,5.1,3.7,10.9,3.7,17.5c0,1.6-0.5,2.9-1.6,4c-1.1,1-2.5,1.6-4.1,1.6H50.7v-10H101l-5.1,3.5c-0.1-4.2-0.9-7.9-2.5-11.2
				c-1.6-3.3-3.9-5.9-6.8-7.8c-2.9-1.9-6.5-2.9-10.7-2.9c-4.8,0-8.9,1-12.2,3.1c-3.4,2.1-6,5-7.7,8.6c-1.8,3.6-2.6,7.8-2.6,12.4
				c0,4.6,1,8.7,3.1,12.3c2.1,3.6,5,6.4,8.7,8.5c3.7,2.1,7.9,3.1,12.7,3.1c2.6,0,5.3-0.5,8-1.4c2.7-1,4.9-2.1,6.6-3.3
				c1.3-0.9,2.6-1.4,4.1-1.4c1.5,0,2.7,0.4,3.8,1.3c1.4,1.3,2.2,2.6,2.3,4.1c0.1,1.5-0.6,2.8-2,3.9c-2.8,2.3-6.4,4.1-10.6,5.5
				C85.6,79,81.6,79.7,77.7,79.7z"/>
			<path class="st12" d="M129.7,79.2c-2,0-3.6-0.5-4.6-1.6c-1.1-1-1.6-2.6-1.6-4.7V16.8c0-2,0.5-3.6,1.6-4.6
				c1.1-1.1,2.6-1.6,4.6-1.6c2.1,0,3.7,0.5,4.7,1.6c1,1,1.6,2.6,1.6,4.7v56.1c0,2-0.5,3.6-1.6,4.6C133.4,78.6,131.8,79.2,129.7,79.2
				z M129.6,36.2c0-5,1.2-9.5,3.7-13.5c2.5-4,5.8-7.1,10-9.5c4.2-2.3,8.8-3.5,13.8-3.5c5,0,8.8,0.8,11.2,2.4
				c2.5,1.6,3.4,3.6,2.8,5.8c-0.3,1.2-0.7,2.1-1.4,2.7c-0.7,0.6-1.5,1-2.4,1.2c-0.9,0.2-1.9,0.1-3-0.1c-5.4-1.1-10.2-1.2-14.4-0.3
				c-4.3,0.9-7.6,2.6-10.1,5.1c-2.5,2.5-3.7,5.7-3.7,9.5H129.6z"/>
		</g>
		<g>
			<path class="st13" d="M-330.2,76.3c-1.5,0-2.8-0.5-4-1.4c-1.2-0.9-2-2.2-2.5-3.8l-25.2-83.9c-0.8-2.8-0.8-5,0.2-6.6
				c1-1.6,2.5-2.4,4.7-2.4c1.4,0,2.7,0.4,3.9,1.2c1.2,0.8,2,2,2.5,3.7l22,76.6h-2.8l20.3-75.8c0.3-1.3,1.1-2.3,2.3-3.1
				c1.2-0.8,2.5-1.3,4-1.3c1.3,0,2.6,0.4,3.8,1.1c1.2,0.7,2,1.8,2.3,3.2l20.5,76h-2.5l22.1-77.2c0.8-2.8,3-4.3,6.4-4.3
				c2.3,0,3.8,0.9,4.5,2.7c0.7,1.8,0.7,3.9,0,6.3l-25.2,83.8c-0.6,1.6-1.4,2.9-2.6,3.8c-1.1,1-2.4,1.4-4,1.4c-1.6,0-3-0.5-4.1-1.5
				c-1.1-1-1.9-2.2-2.4-3.6l-20.2-78.1h3l-20.5,78c-0.6,1.6-1.4,2.9-2.6,3.8C-327.4,75.9-328.7,76.3-330.2,76.3z"/>
			<path class="st13" d="M-216,76.8c-6.9,0-13.1-1.5-18.5-4.5c-5.4-3-9.6-7.1-12.7-12.3c-3.1-5.2-4.6-11.2-4.6-18
				c0-6.9,1.4-12.9,4.3-18.1c2.9-5.2,6.9-9.3,12-12.3c5.1-3,11-4.5,17.6-4.5c6.5,0,12.1,1.4,16.8,4.3c4.7,2.9,8.3,6.9,10.7,11.9
				c2.5,5.1,3.7,10.9,3.7,17.5c0,1.6-0.5,2.9-1.6,4c-1.1,1-2.5,1.6-4.1,1.6H-243v-10h50.2l-5.1,3.5c-0.1-4.2-0.9-7.9-2.5-11.2
				c-1.6-3.3-3.9-5.9-6.8-7.8c-2.9-1.9-6.5-2.9-10.7-2.9c-4.8,0-8.9,1-12.2,3.1c-3.4,2.1-6,5-7.7,8.6c-1.8,3.6-2.6,7.8-2.6,12.4
				c0,4.6,1,8.7,3.1,12.3c2.1,3.6,5,6.4,8.7,8.5C-225,65-220.8,66-216,66c2.6,0,5.3-0.5,8-1.4c2.7-1,4.9-2.1,6.6-3.3
				c1.3-0.9,2.6-1.4,4.1-1.4c1.5,0,2.7,0.4,3.8,1.3c1.4,1.3,2.2,2.6,2.3,4.1c0.1,1.5-0.6,2.8-2,3.9c-2.8,2.3-6.4,4.1-10.6,5.5
				C-208.1,76.1-212.2,76.8-216,76.8z"/>
			<path class="st13" d="M-144.2,76.8c-6.1,0-11.6-1.5-16.4-4.6c-4.9-3.1-8.7-7.2-11.5-12.4c-2.8-5.2-4.2-11.2-4.2-17.8
				c0-6.6,1.5-12.6,4.6-17.8c3.1-5.3,7.2-9.4,12.4-12.5c5.2-3.1,11.1-4.6,17.6-4.6s12.4,1.5,17.6,4.6c5.2,3.1,9.3,7.2,12.4,12.5
				c3.1,5.3,4.6,11.2,4.6,17.8h-4.9c0,6.6-1.4,12.5-4.2,17.8c-2.8,5.2-6.6,9.4-11.5,12.4C-132.6,75.3-138.1,76.8-144.2,76.8z
				 M-141.7,65.5c4.3,0,8.1-1,11.4-3.1c3.3-2.1,6-4.9,7.9-8.4c1.9-3.6,2.9-7.6,2.9-12c0-4.5-1-8.6-2.9-12.1
				c-1.9-3.6-4.6-6.4-7.9-8.4c-3.3-2-7.2-3.1-11.4-3.1c-4.2,0-8,1-11.4,3.1c-3.4,2.1-6.1,4.9-8,8.4c-2,3.6-3,7.6-3,12.1
				c0,4.4,1,8.4,3,12c2,3.6,4.6,6.4,8,8.4C-149.7,64.5-145.9,65.5-141.7,65.5z M-113.6,76.5c-1.8,0-3.4-0.6-4.6-1.8
				c-1.2-1.2-1.8-2.7-1.8-4.6V50.8l2.4-13.3l10.4,4.5v28c0,1.8-0.6,3.4-1.8,4.6C-110.2,75.9-111.7,76.5-113.6,76.5z"/>
			<path class="st13" d="M-91,21c-1.8,0-3.2-0.5-4.3-1.5c-1.1-1-1.6-2.3-1.6-3.8c0-1.7,0.5-3,1.6-4c1.1-1,2.5-1.5,4.3-1.5h29
				c1.8,0,3.2,0.5,4.3,1.5c1.1,1,1.6,2.3,1.6,4c0,1.5-0.5,2.8-1.6,3.8c-1.1,1-2.5,1.5-4.3,1.5H-91z M-63.1,76.3
				c-4.2,0-8-1.1-11.3-3.2c-3.3-2.1-6-5-7.9-8.7c-1.9-3.7-2.9-7.8-2.9-12.4V-7.9c0-1.8,0.6-3.3,1.8-4.5c1.2-1.2,2.7-1.8,4.5-1.8
				c1.8,0,3.3,0.6,4.5,1.8c1.2,1.2,1.8,2.7,1.8,4.5V52c0,3.3,0.9,6.2,2.8,8.4c1.8,2.3,4.1,3.4,6.8,3.4h4.3c1.5,0,2.8,0.6,3.8,1.8
				c1,1.2,1.6,2.7,1.6,4.5c0,1.8-0.7,3.3-2.1,4.5c-1.4,1.2-3.2,1.8-5.3,1.8H-63.1z"/>
			<path class="st13" d="M-31.3,51.4c-1.8,0-3.4-0.6-4.6-1.8c-1.2-1.2-1.8-2.7-1.8-4.6v-60.3c0-1.9,0.6-3.5,1.8-4.6
				c1.2-1.2,2.7-1.8,4.6-1.8c1.9,0,3.5,0.6,4.6,1.8c1.2,1.2,1.8,2.7,1.8,4.6v60.3c0,1.8-0.6,3.4-1.8,4.6
				C-27.8,50.7-29.4,51.4-31.3,51.4z M-31.3,76.5c-1.8,0-3.4-0.6-4.6-1.8c-1.2-1.2-1.8-2.7-1.8-4.6v-56c0-1.9,0.6-3.5,1.8-4.6
				c1.2-1.2,2.7-1.8,4.6-1.8c1.9,0,3.5,0.6,4.6,1.8c1.2,1.2,1.8,2.7,1.8,4.6v56c0,1.8-0.6,3.4-1.8,4.6
				C-27.8,75.9-29.4,76.5-31.3,76.5z M20.3,76.5c-1.8,0-3.4-0.6-4.6-1.8c-1.2-1.2-1.8-2.7-1.8-4.6V39.2c0-4.8-0.9-8.7-2.6-11.7
				c-1.8-3-4.1-5.3-7.1-6.7c-3-1.5-6.4-2.2-10.2-2.2c-3.5,0-6.7,0.7-9.5,2.1c-2.8,1.4-5.1,3.3-6.8,5.7c-1.7,2.4-2.5,5.1-2.5,8.2
				h-7.9c0-5.3,1.3-10,3.8-14.1c2.6-4.1,6-7.4,10.5-9.9C-14.1,8.2-9.1,7-3.6,7c5.8,0,10.9,1.2,15.5,3.7c4.6,2.5,8.2,6.1,10.8,10.9
				c2.6,4.8,4,10.6,4,17.6v30.9c0,1.8-0.6,3.4-1.8,4.6C23.7,75.9,22.1,76.5,20.3,76.5z"/>
			<path class="st13" d="M80.3,76.8c-7,0-13.1-1.5-18.5-4.5c-5.4-3-9.6-7.1-12.7-12.3c-3.1-5.2-4.6-11.2-4.6-18
				c0-6.9,1.4-12.9,4.3-18.1c2.9-5.2,6.9-9.3,12-12.3c5.1-3,11-4.5,17.6-4.5c6.5,0,12.1,1.4,16.8,4.3c4.7,2.9,8.3,6.9,10.7,11.9
				c2.5,5.1,3.7,10.9,3.7,17.5c0,1.6-0.5,2.9-1.6,4c-1.1,1-2.5,1.6-4.1,1.6H53.3v-10h50.2l-5.1,3.5c-0.1-4.2-0.9-7.9-2.5-11.2
				c-1.6-3.3-3.9-5.9-6.8-7.8c-2.9-1.9-6.5-2.9-10.7-2.9c-4.8,0-8.9,1-12.2,3.1c-3.4,2.1-6,5-7.7,8.6c-1.8,3.6-2.6,7.8-2.6,12.4
				c0,4.6,1,8.7,3.1,12.3c2.1,3.6,5,6.4,8.7,8.5C71.3,65,75.5,66,80.3,66c2.6,0,5.3-0.5,8-1.4c2.7-1,4.9-2.1,6.6-3.3
				c1.3-0.9,2.6-1.4,4.1-1.4c1.5,0,2.7,0.4,3.8,1.3c1.4,1.3,2.2,2.6,2.3,4.1c0.1,1.5-0.6,2.8-2,3.9c-2.8,2.3-6.4,4.1-10.6,5.5
				C88.2,76.1,84.2,76.8,80.3,76.8z"/>
			<path class="st13" d="M132.3,76.3c-2,0-3.6-0.5-4.6-1.6c-1.1-1-1.6-2.6-1.6-4.7V13.9c0-2,0.5-3.6,1.6-4.6
				c1.1-1.1,2.6-1.6,4.6-1.6c2.1,0,3.7,0.5,4.7,1.6c1,1,1.6,2.6,1.6,4.7v56.1c0,2-0.5,3.6-1.6,4.6C136,75.8,134.4,76.3,132.3,76.3z
				 M132.2,33.4c0-5,1.2-9.5,3.7-13.5c2.5-4,5.8-7.1,10-9.5c4.2-2.3,8.8-3.5,13.8-3.5c5,0,8.8,0.8,11.2,2.4c2.5,1.6,3.4,3.6,2.8,5.8
				c-0.3,1.2-0.7,2.1-1.4,2.7c-0.7,0.6-1.5,1-2.4,1.2c-0.9,0.2-1.9,0.1-3-0.1c-5.4-1.1-10.2-1.2-14.4-0.3c-4.3,0.9-7.6,2.6-10.1,5.1
				c-2.5,2.5-3.7,5.7-3.7,9.5H132.2z"/>
		</g>
	</g>
</g>
<g id="Cloud" class="st0">
	<path class="st14" d="M203.1,96.8c0-14.2-10.6-26.4-25.9-31.6c-1.4-18-19.9-32.2-42.6-32.2C115,33,98.4,43.8,93.5,58.4
		c-7.1-4.3-16-6.9-25.6-6.9c-14.2,0-26.9,5.6-34.6,14.3c-6.8-3.7-15-5.8-23.8-5.8C-14,60-33.1,75.4-33.1,94.4
		c0,16.9,15.1,31,35,33.9c7.8,8.4,20.2,13.8,34.2,13.8c3.4,0,6.6-0.3,9.8-0.9c6.4,3.1,14,4.9,22,4.9c13.8,0,26.1-5.3,33.9-13.6
		c7.6,9.4,20.8,15.6,35.7,15.6c16.8,0,31.3-7.8,38.3-19.2C191.8,123.9,203.1,111.4,203.1,96.8z"/>
	<path class="st15" d="M203.1,92.8c0-14.2-10.6-26.4-25.9-31.6c-1.4-18-19.9-32.2-42.6-32.2C115,29,98.4,39.8,93.5,54.4
		c-7.1-4.3-16-6.9-25.6-6.9c-14.2,0-26.9,5.6-34.6,14.3c-6.8-3.7-15-5.8-23.8-5.8C-14,56-33.1,71.4-33.1,90.4
		c0,16.9,15.1,31,35,33.9c7.8,8.4,20.2,13.8,34.2,13.8c3.4,0,6.6-0.3,9.8-0.9c6.4,3.1,14,4.9,22,4.9c13.8,0,26.1-5.3,33.9-13.6
		c7.6,9.4,20.8,15.6,35.7,15.6c16.8,0,31.3-7.8,38.3-19.2C191.8,119.9,203.1,107.4,203.1,92.8z"/>
	<path class="st14" d="M174.2,120.5c0-8.5-8-15.9-19.5-19c-1.1-10.8-15-19.3-32.1-19.3c-14.9,0-27.4,6.5-31.1,15.3
		c-5.4-2.6-12.1-4.2-19.3-4.2c-10.7,0-20.3,3.4-26.1,8.6c-5.1-2.2-11.3-3.5-17.9-3.5c-17.8,0-32.2,9.3-32.2,20.7
		c0,10.2,11.4,18.6,26.4,20.4c5.9,5.1,15.2,8.3,25.8,8.3c2.5,0,5-0.2,7.4-0.6c4.9,1.9,10.5,3,16.6,3c10.4,0,19.7-3.2,25.6-8.2
		c5.8,5.6,15.7,9.4,26.9,9.4c12.7,0,23.6-4.7,28.9-11.5C165.6,136.8,174.2,129.3,174.2,120.5z"/>
	<path class="st15" d="M164.7,113.6c0-7-7.2-13-17.4-15.6c-1-8.9-13.5-15.9-28.7-15.9c-13.3,0-24.5,5.3-27.8,12.5
		c-4.8-2.1-10.8-3.4-17.3-3.4c-9.6,0-18.1,2.8-23.3,7c-4.6-1.8-10.1-2.9-16-2.9c-15.9,0-28.8,7.6-28.8,17c0,8.3,10.2,15.3,23.6,16.7
		c5.2,4.1,13.6,6.8,23.1,6.8c2.3,0,4.5-0.2,6.6-0.5c4.3,1.5,9.4,2.4,14.9,2.4c9.3,0,17.6-2.6,22.9-6.7c5.1,4.6,14,7.7,24.1,7.7
		c11.3,0,21.1-3.9,25.8-9.5C157,126.9,164.7,120.8,164.7,113.6z"/>
</g>
</svg>
