<?xml version="1.0" encoding="utf-8"?>
<!-- Generator: Adobe Illustrator 23.0.1, SVG Export Plug-In . SVG Version: 6.00 Build 0)  -->
<svg version="1.1" xmlns="http://www.w3.org/2000/svg" xmlns:xlink="http://www.w3.org/1999/xlink" x="0px" y="0px"
	 viewBox="0 0 520 300" style="enable-background:new 0 0 520 300;" xml:space="preserve">
<style type="text/css">
	.st0{display:none;}
	.st1{display:inline;fill:#49C6F4;}
	.st2{fill:#F3F7FA;}
	.st3{fill:#FFFFFF;}
	.st4{fill:#E8F5FD;}
	.st5{display:inline;fill:#FFEE8D;}
	.st6{display:inline;fill:#FCEA26;}
	.st7{display:inline;}
	.st8{fill:#212121;}
	.st9{fill:#708DE8;}
	.st10{fill:#0499CA;}
	.st11{fill:#CFE7F7;}
	.st12{fill:#00BDFE;}
	.st13{fill:#009CFC;}
	.st14{display:inline;fill:#E8F5FD;}
	.st15{display:inline;fill:#FFFFFF;}
</style>
<g id="background_x27_" class="st0">
	<rect x="-700" y="-390" class="st1" width="1920" height="1080"/>
	
		<image style="display:inline;overflow:visible;" width="1161" height="807" xlink:href="9AA811AA.jpg"  transform="matrix(1 0 0 1 -1772 -1197)">
	</image>
	
		<image style="display:inline;overflow:visible;" width="297" height="572" xlink:href="9AA811AE.jpg"  transform="matrix(1 0 0 1 -1192 -312)">
	</image>
	
		<image style="display:inline;overflow:visible;" width="795" height="661" xlink:href="9AA811A9.jpg"  transform="matrix(1 0 0 1 -1604 274)">
	</image>
</g>
<g id="Large_Cloud">
	<g>
		<path class="st2" d="M515,153.4c0-29.9-22.4-55.5-54.4-66.6c-3-37.8-42-67.7-89.6-67.7c-41.5,0-76.4,22.7-86.7,53.5
			c-15-9.1-33.7-14.5-53.9-14.5c-30,0-56.5,11.9-72.8,30.1c-14.3-7.7-31.5-12.3-50-12.3c-49.6,0-89.8,32.4-89.8,72.4
			c0,35.6,31.8,65.2,73.7,71.3c16.4,17.7,42.5,29.1,72,29.1c7.1,0,14-0.7,20.6-1.9c13.5,6.6,29.4,10.4,46.4,10.4
			c29.1,0,55-11.2,71.4-28.5c16,19.7,43.7,32.8,75.1,32.8c35.3,0,65.9-16.5,80.6-40.4C491.1,210.5,515,184.2,515,153.4z"/>
		<path class="st3" d="M502.3,166.1c0-29.9-22.4-55.5-54.4-66.6c-3-37.8-42-67.7-89.6-67.7c-41.5,0-76.4,22.7-86.7,53.5
			c-15-9.1-33.7-14.5-53.9-14.5c-30,0-56.5,11.9-72.8,30.1c-14.3-7.7-31.5-12.3-50-12.3C45.2,88.6,5,121,5,161
			c0,35.6,31.8,65.2,73.7,71.3c16.4,17.7,42.5,29.1,72,29.1c7.1,0,14-0.7,20.6-1.9c13.5,6.6,29.4,10.4,46.4,10.4
			c29.1,0,55-11.2,71.4-28.5c16,19.7,43.7,32.8,75.1,32.8c35.3,0,65.9-16.5,80.6-40.4C478.4,223.3,502.3,196.9,502.3,166.1z"/>
		<path class="st4" d="M437.1,215.9c0-18-16.9-33.4-41.1-40c-2.3-22.7-31.7-40.7-67.6-40.7c-31.3,0-57.6,13.6-65.4,32.2
			c-11.3-5.5-25.4-8.7-40.7-8.7c-22.6,0-42.6,7.1-55,18.1c-10.8-4.7-23.8-7.4-37.8-7.4c-37.4,0-67.8,19.5-67.8,43.6
			c0,21.4,24,39.2,55.6,42.9c12.4,10.6,32.1,17.5,54.3,17.5c5.3,0,10.5-0.4,15.5-1.2c10.2,4,22.2,6.3,35,6.3
			c22,0,41.5-6.7,53.9-17.2c12.1,11.9,33,19.7,56.7,19.7c26.7,0,49.7-9.9,60.8-24.3C419,250.3,437.1,234.5,437.1,215.9z"/>
		<path class="st3" d="M416.7,201.4c0-14.7-15.1-27.4-36.7-32.8c-2-18.6-28.3-33.4-60.4-33.4c-28,0-51.5,11.2-58.5,26.4
			c-10.1-4.5-22.7-7.2-36.4-7.2c-20.2,0-38.1,5.8-49.1,14.8c-9.6-3.8-21.3-6.1-33.7-6.1c-33.5,0-60.6,16-60.6,35.7
			c0,17.5,21.5,32.1,49.7,35.1c11,8.7,28.7,14.4,48.6,14.4c4.8,0,9.4-0.3,13.9-1c9.1,3.3,19.8,5.1,31.3,5.1
			c19.7,0,37.1-5.5,48.2-14.1c10.8,9.7,29.5,16.2,50.7,16.2c23.8,0,44.5-8.1,54.3-19.9C400.6,229.5,416.7,216.6,416.7,201.4z"/>
	</g>
</g>
<g id="sun" class="st0">
	<polygon id="crown" class="st5" points="348.4,161.6 360,150 348.4,138.4 356.6,124.1 342.3,115.9 346.6,100 330.7,95.7 
		330.7,79.3 314.3,79.3 310,63.4 294.1,67.7 285.9,53.4 271.6,61.6 260,50 248.4,61.6 234.1,53.4 225.9,67.7 210,63.4 205.7,79.3 
		189.3,79.3 189.3,95.7 173.4,100 177.7,115.9 163.4,124.1 171.6,138.4 160,150 171.6,161.6 163.4,175.9 177.7,184.1 173.4,200 
		189.3,204.3 189.3,220.7 205.7,220.7 210,236.6 225.9,232.3 234.1,246.6 248.4,238.4 260,250 271.6,238.4 285.9,246.6 294.1,232.3 
		310,236.6 314.3,220.7 330.7,220.7 330.7,204.3 346.6,200 342.3,184.1 356.6,175.9 	"/>
	<circle id="core" class="st6" cx="260" cy="149.5" r="85.5"/>
</g>
<g id="birds" class="st0">
	<g class="st7">
		<path class="st8" d="M217.6,131.1c0,0-3.6-3.3-10.3,0.8c0,0,6.2-3.1,10.3-0.4c4.1-2.8,10.3,0.4,10.3,0.4
			C221.2,127.8,217.6,131.1,217.6,131.1z"/>
		<path class="st8" d="M249.7,138.5c0,0-3.4-1.7-7.7-1.7c-4.3,0-5.2,1.7-5.2,1.7s-2.8-1.8-5.8-1.7c-1.7,0.1-2.8,1.7-2.8,1.7
			s1.8-1.1,2.7-1c3,0.1,5.9,1.9,5.9,1.9s1.7-1.7,5.2-1.7C245.5,137.7,249.7,138.5,249.7,138.5z"/>
		<path class="st8" d="M299.3,143.7c0,0-4.6-2.3-10.3-2.3s-6.9,2.3-6.9,2.3s-3.7-2.4-7.7-2.3c-2.3,0.1-3.7,2.3-3.7,2.3
			s2.4-1.4,3.6-1.4c4,0.1,7.9,2.5,7.9,2.5s2.3-2.3,6.9-2.3S299.3,143.7,299.3,143.7z"/>
		<path class="st8" d="M284.9,169c0,0-4.6-2.3-10.3-2.3s-6.9,2.3-6.9,2.3s-3.7-2.4-7.7-2.3c-2.3,0.1-3.7,2.3-3.7,2.3
			s2.4-1.4,3.6-1.4c4,0.1,7.9,2.5,7.9,2.5s2.3-2.3,6.9-2.3C279.2,167.8,284.9,169,284.9,169z"/>
		<path class="st8" d="M198.3,143.6c0,0-3.6-1.8-8.1-1.8c-4.5,0-5.4,1.8-5.4,1.8s-2.9-1.9-6.1-1.8c-1.8,0.1-2.9,1.8-2.9,1.8
			s1.9-1.1,2.8-1.1c3.1,0.1,6.2,2,6.2,2s1.8-1.8,5.4-1.8C193.8,142.7,198.3,143.6,198.3,143.6z"/>
		<path class="st8" d="M241.7,154.2c0,0-4.6-2.3-10.3-2.3s-6.9,2.3-6.9,2.3s-3.7-2.4-7.7-2.3c-2.3,0.1-3.7,2.3-3.7,2.3
			s2.4-1.4,3.6-1.4c4,0.1,7.9,2.5,7.9,2.5s2.3-2.3,6.9-2.3S241.7,154.2,241.7,154.2z"/>
		<path class="st8" d="M306.2,156.9c0,0-2.5-1.2-5.6-1.2c-3.1,0-3.7,1.2-3.7,1.2s-2-1.3-4.2-1.2c-1.2,0-2,1.2-2,1.2s1.3-0.8,1.9-0.8
			c2.2,0.1,4.3,1.4,4.3,1.4s1.2-1.2,3.7-1.2C303.1,156.3,306.2,156.9,306.2,156.9z"/>
		<path class="st8" d="M344.1,154.7c0,0-2.5-1.2-5.6-1.2s-3.7,1.2-3.7,1.2s-2-1.3-4.2-1.2c-1.2,0-2,1.2-2,1.2s1.3-0.8,1.9-0.8
			c2.2,0.1,4.3,1.4,4.3,1.4s1.2-1.2,3.7-1.2S344.1,154.7,344.1,154.7z"/>
	</g>
</g>
<g id="plane" class="st0">
	<g class="st7">
		<path class="st9" d="M258.3,150.1c0.1,0.1,0.2,0.2,0.3,0.3c0.1,0.1,0.1,0.1,0.2,0.2c0,0,0,0,0.1,0c0.1,0.1,0.3,0.2,0.4,0.3
			c0,0,0.1,0.1,0.1,0.1c0.1,0,0.1,0.1,0.2,0.1h0c0.1,0,0.1,0.1,0.2,0.1c0.9,0.7,1.9,1.4,2.8,2.2c0.5,0.4,1,0.7,1.5,1.1
			c1.3,1,2.6,2,3.9,3c0.1,0.1,0.3,0.2,0.5,0.2c0.3,0,0.7-0.1,1-0.3c0.3-0.2,0.3-0.4,0.1-0.7c-1.3-1.6-2.5-3.1-3.8-4.7
			c-0.1-0.1-0.2-0.2-0.2-0.3c-0.2-0.2-0.3-0.4-0.5-0.6c0,0,0,0,0,0c0,0-0.1-0.1-0.1-0.1c-0.1-0.1-0.1-0.2-0.2-0.3
			c-0.1-0.1-0.1-0.2-0.2-0.3c-0.1-0.1-0.1-0.2-0.3-0.2c-1.9-0.1-3.8-0.1-5.7-0.1C258.4,150.1,258.4,150.1,258.3,150.1z"/>
		<path class="st9" d="M271.6,147c0,0.1,0.1,0.1,0.1,0.1c0.9,0.1,1.8,0.2,2.7,0.3c0.1,0,0.1,0,0.2,0c0-1.6,0.2-3.2,0.2-4.8
			c0-0.3,0-0.3-0.3-0.3c-0.1,0-0.2,0-0.3,0c-0.2,0-0.4,0.1-0.5,0.3c-0.7,1.4-1.4,2.7-2.1,4.1C271.6,146.9,271.6,146.9,271.6,147z"/>
		<path class="st9" d="M259.9,146.7c0.1,0,0.3,0,0.4,0c1.6,0,3.1,0,4.7,0.1c0.2,0,0.4,0,0.6,0c0.1,0,0.2,0,0.2-0.1
			c0.3-0.4,0.5-0.8,0.8-1.3c0.1-0.2,0.2-0.4,0.1-0.6c-0.1-0.2-0.3-0.2-0.5-0.2c-0.6,0-1.2,0.1-1.8,0.3c-1.4,0.5-2.8,1.1-4.3,1.6
			C260,146.6,260,146.7,259.9,146.7z"/>
		<path class="st9" d="M274.1,149.4c-0.1-0.3-0.1-0.6-0.2-0.8c-0.1-0.3-0.1-0.4-0.4-0.4c-0.6,0-1.2,0-1.8-0.1c-0.1,0-0.2,0-0.2,0
			c0,0.1,0,0.1,0.1,0.2c0.3,0.4,0.6,0.9,0.8,1.3c0,0,0,0,0,0c0,0,0,0,0,0.1c0.2,0.3,0.5,0.7,0.7,1c0.2,0.3,0.4,0.4,0.6,0.5
			c0.2,0,0.3,0.1,0.5,0.2c0.2,0.1,0.2,0,0.2-0.2c0-0.2-0.1-0.4-0.1-0.6c0-0.1,0-0.1,0-0.2c0,0,0-0.1,0-0.1c0,0,0-0.1,0-0.1
			c0,0,0,0,0,0c-0.1-0.1,0-0.1,0-0.2c0,0,0-0.1,0-0.1c0-0.1-0.1-0.2-0.1-0.3C274.1,149.6,274.1,149.5,274.1,149.4z"/>
		<path class="st3" d="M275.5,147.7c-0.2-0.1-0.5-0.1-0.7-0.2c-0.1,0-0.1,0-0.2-0.1c-0.1,0-0.1,0-0.2,0c-0.9-0.2-1.8-0.3-2.7-0.3
			c-0.1,0-0.2,0-0.1-0.1c-0.1,0.1-0.2,0.1-0.3,0.1c-0.6-0.1-1.3-0.1-1.9-0.1c-0.8,0-1.5-0.1-2.3-0.1c-0.3,0-0.7,0-1,0
			c-0.1,0-0.2,0-0.2-0.1c-0.1,0.1-0.1,0.1-0.2,0.1c-0.2,0-0.4,0-0.6,0c-1.6,0-3.1,0-4.7-0.1c-0.1,0-0.3,0-0.4,0c-1.3,0-2.7,0-4,0
			c-1.1,0-2.2,0-3.4,0.1c-0.7,0-1.4,0-2.2,0c-0.8,0-1.6,0.1-2.3,0.5c-0.4,0.2-0.8,0.6-1.2,0.8c0,0,0,0.1,0,0.1
			c0.3,0.2,0.5,0.2,0.8,0.1c0.3,0,0.6,0.2,0.6,0.4c0,0.3-0.2,0.4-0.6,0.4c-0.5,0-1-0.2-1.4-0.6c-0.4,0.2-0.8,0.3-1.2,0.5
			c-0.3,0.1-0.6,0.3-0.9,0.6c-0.3,0.3-0.2,0.7,0.1,0.9c0.4,0.3,0.8,0.4,1.3,0.5c0.7,0.1,1.5,0,2.2,0c1,0,2,0,3,0.1
			c0.8,0,1.6,0,2.5,0h0c1,0,2,0,3,0c0.1,0,0.1,0,0.2,0c0.6,0,1.2,0,1.8,0c0.1,0,0.1,0,0.2,0c0.4,0,0.9,0,1.3,0
			c-0.1,0-0.1-0.1-0.2-0.1c0,0-0.1-0.1-0.1-0.1c-0.1-0.1-0.3-0.2-0.4-0.3c0,0,0,0-0.1,0c-0.1-0.1-0.1-0.1-0.2-0.2
			c-0.1-0.1-0.2-0.2-0.3-0.3c0.1,0,0.1,0,0.1,0c1.9,0,3.8,0,5.7,0.1c0.1,0,0.2,0.1,0.3,0.2c0.1,0.1,0.1,0.2,0.2,0.3
			c0.1,0.1,0.1,0.2,0.2,0.3c0,0,0.1,0.1,0.1,0.1c0,0,0,0,0,0c0.1,0,0.2,0,0.3-0.1c1-0.1,1.9-0.3,2.9-0.5c1-0.2,1.9-0.4,2.9-0.6
			c0.4-0.1,0.8-0.2,1.2-0.3c-0.3-0.4-0.6-0.9-0.8-1.3c0-0.1-0.1-0.1-0.1-0.2c0-0.1,0.1-0.1,0.2,0c0.6,0,1.2,0,1.8,0.1
			c0.3,0,0.4,0.1,0.4,0.4c0.1,0.3,0.1,0.6,0.2,0.8c0-0.1,0.1-0.2,0.2-0.2c0.4,0,0.8-0.2,1.1-0.3c0.2-0.1,0.5-0.2,0.5-0.5
			C276.1,148,275.9,147.8,275.5,147.7z"/>
		<path class="st10" d="M246.2,148.6c0.4,0.4,0.9,0.6,1.4,0.6c0.4,0,0.6-0.1,0.6-0.4c0-0.3-0.3-0.5-0.6-0.4c-0.3,0-0.6,0-0.8-0.1
			C246.5,148.2,246.4,148.4,246.2,148.6z"/>
		<path class="st11" d="M272.4,149.8C272.4,149.7,272.3,149.7,272.4,149.8C272.3,149.7,272.3,149.8,272.4,149.8z"/>
		<path class="st10" d="M266.2,148.4c0,0.1,0,0.2,0,0.3c0,0.1,0.1,0.2,0.2,0.2c0.1,0,0.2-0.1,0.2-0.2c0-0.2,0-0.4,0-0.5
			c0-0.1-0.1-0.2-0.2-0.2c-0.1,0-0.2,0.1-0.2,0.2C266.2,148.3,266.2,148.3,266.2,148.4z"/>
		<path class="st10" d="M255.5,148.3c0-0.1,0-0.2,0-0.3c0-0.1-0.1-0.2-0.2-0.2c-0.1,0-0.2,0.1-0.2,0.2c0,0.2,0,0.4,0,0.6
			c0,0.1,0.1,0.2,0.2,0.2c0.1,0,0.2-0.1,0.2-0.2C255.5,148.4,255.5,148.3,255.5,148.3C255.5,148.3,255.5,148.3,255.5,148.3z"/>
		<path class="st10" d="M257.6,148.3c0,0.3,0.1,0.5,0.2,0.4c0.2,0,0.2-0.2,0.2-0.4c0-0.1,0-0.2,0-0.3c0-0.1-0.1-0.2-0.2-0.2
			c-0.1,0-0.2,0.1-0.2,0.2C257.5,148.1,257.6,148.2,257.6,148.3z"/>
		<path class="st10" d="M260,148.3c0,0.1,0,0.2,0,0.2c0,0.1,0.1,0.2,0.2,0.2c0.1,0,0.2-0.1,0.2-0.2c0-0.2,0-0.4,0-0.6
			c0-0.1-0.1-0.2-0.2-0.2c-0.1,0-0.2,0.1-0.2,0.2C260,148.2,260,148.3,260,148.3C260,148.3,260,148.3,260,148.3z"/>
		<path class="st10" d="M263.7,148.4c0,0.1,0,0.2,0,0.2c0,0.1,0.1,0.2,0.2,0.2c0.1,0,0.2-0.1,0.2-0.2c0-0.2,0-0.4,0-0.6
			c0-0.1-0.1-0.2-0.2-0.2c-0.1,0-0.2,0.1-0.2,0.2C263.7,148.2,263.7,148.3,263.7,148.4C263.7,148.4,263.7,148.4,263.7,148.4z"/>
		<path class="st10" d="M251.4,148.2c0,0.2,0,0.5,0.2,0.5c0.3,0,0.2-0.2,0.2-0.4c0-0.1,0-0.2,0-0.3c0-0.1-0.1-0.2-0.2-0.2
			c-0.1,0-0.2,0.1-0.2,0.2C251.4,148,251.4,148.1,251.4,148.2z"/>
		<path class="st10" d="M259.2,148.3c0-0.1,0-0.2,0-0.3c0-0.1-0.1-0.2-0.2-0.2c-0.1,0-0.2,0.1-0.2,0.2c0,0.2,0,0.4,0,0.5
			c0,0.1,0.1,0.2,0.2,0.2c0.1,0,0.2-0.1,0.2-0.2C259.2,148.5,259.2,148.4,259.2,148.3C259.2,148.3,259.2,148.3,259.2,148.3z"/>
		<path class="st10" d="M261.3,148.4c0,0.1,0,0.2,0,0.3c0,0.1,0.1,0.2,0.2,0.2c0.1,0,0.2,0,0.2-0.1c0.1-0.2,0.1-0.4,0-0.6
			c0-0.1-0.1-0.1-0.2-0.1c-0.1,0-0.2,0.1-0.2,0.2C261.2,148.2,261.3,148.3,261.3,148.4C261.3,148.4,261.3,148.4,261.3,148.4z"/>
		<path class="st10" d="M262.5,148.4c0,0.1,0,0.2,0,0.2c0,0.1,0.1,0.2,0.2,0.2c0.1,0,0.2-0.1,0.2-0.2c0-0.2,0-0.4,0-0.5
			c0-0.1-0.1-0.2-0.2-0.2c-0.1,0-0.2,0.1-0.2,0.2C262.5,148.2,262.5,148.3,262.5,148.4C262.5,148.4,262.5,148.4,262.5,148.4z"/>
		<path class="st10" d="M256.3,148.3c0,0.3,0.1,0.4,0.2,0.4c0.2,0,0.2-0.2,0.2-0.4c0-0.1,0-0.2,0-0.3c0-0.1-0.1-0.2-0.2-0.2
			c-0.1,0-0.2,0.1-0.2,0.2C256.3,148.1,256.3,148.2,256.3,148.3z"/>
		<path class="st10" d="M254.3,148.2c0-0.1,0-0.2,0-0.2c0-0.1-0.1-0.2-0.2-0.2c-0.1,0-0.2,0.1-0.2,0.2c0,0.2,0,0.3,0,0.5
			c0,0.1,0.1,0.2,0.2,0.2c0.1,0,0.2-0.1,0.2-0.2C254.3,148.4,254.3,148.3,254.3,148.2z"/>
		<path class="st10" d="M253.1,148.2c0-0.1,0-0.2,0-0.2c0-0.1-0.1-0.2-0.2-0.2c-0.1,0-0.2,0.1-0.2,0.2c0,0.2,0,0.4,0,0.6
			c0,0.1,0.1,0.2,0.2,0.2c0.1,0,0.2-0.1,0.2-0.2C253.1,148.4,253.1,148.3,253.1,148.2z"/>
		<path class="st10" d="M250.2,148.2c0,0.1,0,0.2,0,0.2c0,0.1,0.1,0.2,0.2,0.2c0.1,0,0.2-0.1,0.2-0.2c0-0.2,0-0.3,0-0.5
			c0-0.1-0.1-0.2-0.2-0.2c-0.1,0-0.2,0.1-0.2,0.2C250.2,148,250.2,148.1,250.2,148.2C250.2,148.2,250.2,148.2,250.2,148.2z"/>
		<path class="st10" d="M264.9,148.4c0,0.1,0,0.2,0,0.3c0,0.1,0.1,0.2,0.2,0.2c0.1,0,0.2-0.1,0.2-0.2c0-0.2,0-0.4,0-0.6
			c0-0.1-0.1-0.2-0.2-0.2c-0.1,0-0.2,0.1-0.2,0.2C264.9,148.2,265,148.3,264.9,148.4C264.9,148.4,264.9,148.4,264.9,148.4z"/>
	</g>
</g>
<g id="text" class="st0">
	<g class="st7">
		<g>
			<g>
				<path class="st12" d="M403.9,189.2c-1.8,0-3.4-0.6-4.6-1.9c-1.3-1.3-1.9-2.8-1.9-4.6v-85c0-1.9,0.6-3.5,1.9-4.7
					c1.3-1.2,2.8-1.8,4.6-1.8h22.7c7.2,0,13.8,1.2,19.7,3.6c5.9,2.4,11,5.8,15.4,10.2c4.4,4.4,7.7,9.6,10,15.5
					c2.3,5.9,3.5,12.5,3.5,19.7c0,7.2-1.2,13.8-3.5,19.8c-2.3,6-5.7,11.2-10,15.6c-4.4,4.4-9.5,7.8-15.4,10.2
					c-5.9,2.4-12.5,3.6-19.7,3.6H403.9z M410.5,177.6h16.2c7,0,13.2-1.6,18.6-4.8c5.4-3.2,9.6-7.7,12.7-13.3
					c3.1-5.7,4.6-12.1,4.6-19.4c0-7.4-1.5-13.9-4.6-19.5c-3.1-5.6-7.3-10-12.7-13.2c-5.4-3.2-11.6-4.8-18.6-4.8h-16.2V177.6z"/>
				<path class="st12" d="M523.1,189.7c-6.1,0-11.6-1.5-16.5-4.6c-4.9-3.1-8.7-7.2-11.5-12.4c-2.8-5.2-4.2-11.2-4.2-17.8
					c0-6.6,1.5-12.6,4.6-17.8c3.1-5.3,7.2-9.4,12.4-12.5c5.2-3.1,11.1-4.6,17.6-4.6s12.4,1.5,17.6,4.6c5.2,3.1,9.3,7.2,12.4,12.5
					c3.1,5.3,4.6,11.2,4.6,17.8h-4.9c0,6.6-1.4,12.5-4.2,17.8c-2.8,5.2-6.6,9.4-11.5,12.4C534.7,188.2,529.2,189.7,523.1,189.7z
					 M525.6,178.4c4.3,0,8.1-1,11.4-3.1c3.3-2,6-4.9,7.9-8.4c1.9-3.6,2.9-7.6,2.9-12c0-4.5-1-8.6-2.9-12.1c-1.9-3.6-4.6-6.4-7.9-8.4
					c-3.3-2.1-7.2-3.1-11.4-3.1c-4.2,0-8,1-11.4,3.1c-3.4,2.1-6.1,4.9-8,8.4c-2,3.6-3,7.6-3,12.1c0,4.4,1,8.4,3,12
					c2,3.6,4.6,6.4,8,8.4C517.6,177.4,521.4,178.4,525.6,178.4z M553.7,189.3c-1.8,0-3.4-0.6-4.6-1.8c-1.2-1.2-1.8-2.7-1.8-4.6
					v-19.2l2.4-13.3l10.4,4.5v28c0,1.8-0.6,3.4-1.8,4.6C557.1,188.7,555.6,189.3,553.7,189.3z"/>
				<path class="st12" d="M604.2,189.7c-5.9,0-11.3-0.9-16.3-2.7c-5-1.8-8.9-4.1-11.6-6.8c-1.3-1.3-1.8-2.9-1.6-4.6
					c0.2-1.7,1-3.1,2.4-4.2c1.7-1.3,3.3-1.9,5-1.7c1.6,0.2,3,0.9,4.2,2.2c1.4,1.6,3.7,3.1,6.8,4.5c3.1,1.4,6.6,2.1,10.5,2.1
					c4.9,0,8.6-0.8,11.1-2.4c2.6-1.6,3.9-3.6,4-6.2c0.1-2.5-1.1-4.7-3.6-6.5c-2.5-1.8-7-3.3-13.5-4.5c-8.5-1.7-14.6-4.2-18.4-7.5
					c-3.8-3.3-5.7-7.5-5.7-12.3c0-4.3,1.3-7.8,3.8-10.6c2.5-2.8,5.7-4.9,9.7-6.3c3.9-1.4,8-2.1,12.3-2.1c5.5,0,10.4,0.9,14.7,2.6
					c4.3,1.8,7.7,4.2,10.2,7.3c1.2,1.3,1.7,2.7,1.6,4.2c-0.1,1.5-0.8,2.7-2.1,3.7c-1.3,0.9-2.9,1.2-4.8,0.9
					c-1.8-0.3-3.4-1.1-4.6-2.3c-2.1-2-4.4-3.4-6.8-4.1c-2.4-0.8-5.2-1.1-8.4-1.1c-3.7,0-6.8,0.6-9.4,1.9c-2.6,1.3-3.8,3.1-3.8,5.5
					c0,1.5,0.4,2.9,1.2,4.1c0.8,1.2,2.4,2.3,4.7,3.3c2.3,1,5.8,1.9,10.3,2.8c6.3,1.3,11.2,2.8,14.9,4.8c3.6,1.9,6.3,4.2,7.8,6.7
					c1.6,2.6,2.4,5.5,2.4,8.9c0,3.9-1,7.3-3.1,10.4c-2.1,3.1-5.1,5.6-9,7.4C615.1,188.8,610.2,189.7,604.2,189.7z"/>
				<path class="st12" d="M653.8,164.2c-1.8,0-3.4-0.6-4.6-1.8c-1.2-1.2-1.8-2.7-1.8-4.6V97.5c0-1.9,0.6-3.5,1.8-4.6
					c1.2-1.2,2.7-1.8,4.6-1.8c1.9,0,3.5,0.6,4.6,1.8c1.2,1.2,1.8,2.7,1.8,4.6v60.3c0,1.8-0.6,3.4-1.8,4.6
					C657.3,163.6,655.7,164.2,653.8,164.2z M653.8,189.3c-1.8,0-3.4-0.6-4.6-1.8c-1.2-1.2-1.8-2.7-1.8-4.6v-56
					c0-1.9,0.6-3.5,1.8-4.6c1.2-1.2,2.7-1.8,4.6-1.8c1.9,0,3.5,0.6,4.6,1.8c1.2,1.2,1.8,2.7,1.8,4.6v56c0,1.8-0.6,3.4-1.8,4.6
					C657.3,188.7,655.7,189.3,653.8,189.3z M705.4,189.3c-1.8,0-3.4-0.6-4.6-1.8c-1.2-1.2-1.8-2.7-1.8-4.6V152
					c0-4.8-0.9-8.7-2.6-11.7s-4.1-5.3-7.1-6.7c-3-1.5-6.4-2.2-10.2-2.2c-3.5,0-6.7,0.7-9.5,2.1c-2.8,1.4-5.1,3.3-6.8,5.7
					c-1.7,2.4-2.5,5.1-2.5,8.2h-7.9c0-5.3,1.3-10,3.8-14.1c2.6-4.1,6-7.4,10.5-9.9c4.4-2.4,9.4-3.6,14.9-3.6
					c5.8,0,10.9,1.2,15.5,3.7c4.6,2.5,8.2,6.1,10.8,10.9c2.6,4.8,4,10.6,4,17.6v30.9c0,1.8-0.6,3.4-1.8,4.6
					C708.8,188.7,707.3,189.3,705.4,189.3z"/>
			</g>
			<g>
				<path class="st13" d="M406.5,186.3c-1.8,0-3.4-0.6-4.6-1.9s-1.9-2.8-1.9-4.6v-85c0-1.9,0.6-3.5,1.9-4.7c1.3-1.2,2.8-1.8,4.6-1.8
					h22.7c7.2,0,13.8,1.2,19.7,3.6c5.9,2.4,11,5.8,15.4,10.2c4.4,4.4,7.7,9.6,10,15.5c2.3,5.9,3.5,12.5,3.5,19.7
					c0,7.2-1.2,13.8-3.5,19.8c-2.3,6-5.7,11.2-10,15.6c-4.4,4.4-9.5,7.8-15.4,10.2c-5.9,2.4-12.5,3.6-19.7,3.6H406.5z M413,174.8
					h16.2c7,0,13.2-1.6,18.6-4.8c5.4-3.2,9.6-7.7,12.7-13.3c3.1-5.7,4.6-12.1,4.6-19.4c0-7.4-1.5-13.9-4.6-19.5
					c-3.1-5.6-7.3-10-12.7-13.2c-5.4-3.2-11.6-4.8-18.6-4.8H413V174.8z"/>
				<path class="st13" d="M525.7,186.8c-6.1,0-11.6-1.5-16.5-4.6c-4.9-3.1-8.7-7.2-11.5-12.4c-2.8-5.2-4.2-11.2-4.2-17.8
					c0-6.6,1.5-12.6,4.6-17.8c3.1-5.3,7.2-9.4,12.4-12.5c5.2-3.1,11.1-4.6,17.6-4.6s12.4,1.5,17.6,4.6c5.2,3.1,9.3,7.2,12.4,12.5
					c3.1,5.3,4.6,11.2,4.6,17.8h-4.9c0,6.6-1.4,12.5-4.2,17.8c-2.8,5.2-6.6,9.4-11.5,12.4C537.3,185.3,531.8,186.8,525.7,186.8z
					 M528.2,175.5c4.3,0,8.1-1,11.4-3.1c3.3-2.1,6-4.9,7.9-8.4c1.9-3.6,2.9-7.6,2.9-12c0-4.5-1-8.6-2.9-12.1
					c-1.9-3.6-4.6-6.4-7.9-8.4c-3.3-2-7.2-3.1-11.4-3.1c-4.2,0-8,1-11.4,3.1c-3.4,2.1-6.1,4.9-8,8.4c-2,3.6-3,7.6-3,12.1
					c0,4.4,1,8.4,3,12c2,3.6,4.6,6.4,8,8.4C520.2,174.5,524,175.5,528.2,175.5z M556.3,186.5c-1.8,0-3.4-0.6-4.6-1.8
					c-1.2-1.2-1.8-2.7-1.8-4.6v-19.2l2.4-13.3l10.4,4.5v28c0,1.8-0.6,3.4-1.8,4.6C559.7,185.9,558.2,186.5,556.3,186.5z"/>
				<path class="st13" d="M606.8,186.8c-5.9,0-11.3-0.9-16.3-2.7c-5-1.8-8.9-4.1-11.6-6.8c-1.3-1.3-1.8-2.9-1.6-4.6
					c0.2-1.7,1-3.1,2.4-4.2c1.7-1.3,3.3-1.9,5-1.7c1.6,0.2,3,0.9,4.2,2.2c1.4,1.6,3.7,3.1,6.8,4.5c3.1,1.4,6.6,2.1,10.5,2.1
					c4.9,0,8.6-0.8,11.1-2.4c2.6-1.6,3.9-3.6,4-6.2c0.1-2.5-1.1-4.7-3.6-6.5c-2.5-1.8-7-3.3-13.5-4.5c-8.5-1.7-14.6-4.2-18.4-7.5
					c-3.8-3.3-5.7-7.4-5.7-12.3c0-4.3,1.3-7.8,3.8-10.6c2.5-2.8,5.7-4.9,9.7-6.3c3.9-1.4,8-2.1,12.3-2.1c5.5,0,10.4,0.9,14.7,2.6
					c4.3,1.8,7.7,4.2,10.2,7.3c1.2,1.3,1.7,2.7,1.6,4.2c-0.1,1.5-0.8,2.7-2.1,3.7c-1.3,0.9-2.9,1.2-4.8,0.9
					c-1.8-0.3-3.4-1.1-4.6-2.3c-2.1-2-4.4-3.4-6.8-4.1c-2.4-0.8-5.2-1.1-8.4-1.1c-3.7,0-6.8,0.6-9.4,1.9c-2.6,1.3-3.8,3.1-3.8,5.5
					c0,1.5,0.4,2.9,1.2,4.1c0.8,1.2,2.4,2.3,4.7,3.3c2.3,1,5.8,1.9,10.3,2.8c6.3,1.3,11.2,2.8,14.9,4.8c3.6,1.9,6.3,4.2,7.8,6.7
					c1.6,2.6,2.4,5.5,2.4,8.9c0,3.9-1,7.3-3.1,10.4c-2.1,3.1-5.1,5.6-9,7.4C617.7,185.9,612.7,186.8,606.8,186.8z"/>
				<path class="st13" d="M656.4,161.4c-1.8,0-3.4-0.6-4.6-1.8c-1.2-1.2-1.8-2.7-1.8-4.6V94.7c0-1.9,0.6-3.5,1.8-4.6
					c1.2-1.2,2.7-1.8,4.6-1.8c1.9,0,3.5,0.6,4.6,1.8c1.2,1.2,1.8,2.7,1.8,4.6v60.3c0,1.8-0.6,3.4-1.8,4.6
					C659.9,160.7,658.3,161.4,656.4,161.4z M656.4,186.5c-1.8,0-3.4-0.6-4.6-1.8c-1.2-1.2-1.8-2.7-1.8-4.6v-56
					c0-1.9,0.6-3.5,1.8-4.6c1.2-1.2,2.7-1.8,4.6-1.8c1.9,0,3.5,0.6,4.6,1.8c1.2,1.2,1.8,2.7,1.8,4.6v56c0,1.8-0.6,3.4-1.8,4.6
					C659.9,185.9,658.3,186.5,656.4,186.5z M708,186.5c-1.8,0-3.4-0.6-4.6-1.8c-1.2-1.2-1.8-2.7-1.8-4.6v-30.9
					c0-4.8-0.9-8.7-2.6-11.7s-4.1-5.3-7.1-6.7c-3-1.5-6.4-2.2-10.2-2.2c-3.5,0-6.7,0.7-9.5,2.1c-2.8,1.4-5.1,3.3-6.8,5.7
					c-1.7,2.4-2.5,5.1-2.5,8.2h-7.9c0-5.3,1.3-10,3.8-14.1c2.6-4.1,6-7.4,10.5-9.9c4.4-2.4,9.4-3.6,14.9-3.6
					c5.8,0,10.9,1.2,15.5,3.7c4.6,2.5,8.2,6.1,10.8,10.9c2.6,4.8,4,10.6,4,17.6v30.9c0,1.8-0.6,3.4-1.8,4.6
					C711.4,185.9,709.8,186.5,708,186.5z"/>
			</g>
		</g>
		<g>
			<path class="st12" d="M-157.8,189.2c-1.5,0-2.8-0.5-4-1.4c-1.2-0.9-2-2.2-2.5-3.8l-25.2-83.9c-0.8-2.8-0.8-5,0.2-6.6
				c1-1.6,2.5-2.4,4.7-2.4c1.4,0,2.7,0.4,3.9,1.2c1.2,0.8,2,2,2.5,3.7l22,76.6h-2.8l20.3-75.8c0.3-1.3,1.1-2.3,2.3-3.1
				c1.2-0.8,2.5-1.3,4-1.3c1.3,0,2.6,0.4,3.8,1.1c1.2,0.7,2,1.8,2.3,3.2l20.5,76h-2.5l22.1-77.2c0.8-2.8,3-4.3,6.4-4.3
				c2.3,0,3.8,0.9,4.5,2.7c0.7,1.8,0.7,3.9,0,6.3l-25.2,83.8c-0.6,1.6-1.4,2.9-2.6,3.8c-1.1,1-2.4,1.4-4,1.4c-1.6,0-3-0.5-4.1-1.5
				c-1.1-1-1.9-2.2-2.4-3.6l-20.2-78.1h3l-20.5,78c-0.6,1.6-1.4,2.9-2.6,3.8C-154.9,188.7-156.3,189.2-157.8,189.2z"/>
			<path class="st12" d="M-43.6,189.7c-6.9,0-13.1-1.5-18.5-4.5c-5.4-3-9.6-7.1-12.7-12.3c-3.1-5.2-4.6-11.2-4.6-18
				c0-6.9,1.4-12.9,4.3-18.1c2.9-5.2,6.9-9.3,12-12.3c5.1-3,11-4.5,17.6-4.5c6.5,0,12.1,1.4,16.8,4.3c4.7,2.9,8.3,6.9,10.7,11.9
				c2.5,5.1,3.7,10.9,3.7,17.5c0,1.6-0.5,2.9-1.6,4c-1.1,1-2.5,1.6-4.1,1.6h-50.6v-10h50.2l-5.1,3.5c-0.1-4.2-0.9-7.9-2.5-11.2
				c-1.6-3.3-3.9-5.9-6.8-7.8c-2.9-1.9-6.5-2.9-10.7-2.9c-4.8,0-8.9,1-12.2,3.1c-3.4,2.1-6,5-7.7,8.6c-1.8,3.6-2.6,7.8-2.6,12.4
				c0,4.6,1,8.7,3.1,12.3c2.1,3.6,5,6.4,8.7,8.5c3.7,2.1,7.9,3.1,12.7,3.1c2.6,0,5.3-0.5,8-1.4c2.7-1,4.9-2.1,6.6-3.3
				c1.3-0.9,2.6-1.4,4.1-1.4c1.5,0,2.7,0.4,3.8,1.3c1.4,1.3,2.2,2.6,2.3,4.1c0.1,1.5-0.6,2.8-2,3.9c-2.8,2.3-6.4,4.1-10.6,5.5
				C-35.7,189-39.8,189.7-43.6,189.7z"/>
			<path class="st12" d="M28.2,189.7c-6.1,0-11.6-1.5-16.4-4.6c-4.9-3.1-8.7-7.2-11.5-12.4c-2.8-5.2-4.2-11.2-4.2-17.8
				c0-6.6,1.5-12.6,4.6-17.8c3.1-5.3,7.2-9.4,12.4-12.5c5.2-3.1,11.1-4.6,17.6-4.6s12.4,1.5,17.6,4.6c5.2,3.1,9.3,7.2,12.4,12.5
				c3.1,5.3,4.6,11.2,4.6,17.8h-4.9c0,6.6-1.4,12.5-4.2,17.8c-2.8,5.2-6.6,9.4-11.5,12.4C39.8,188.2,34.3,189.7,28.2,189.7z
				 M30.7,178.4c4.3,0,8.1-1,11.4-3.1c3.3-2,6-4.9,7.9-8.4c1.9-3.6,2.9-7.6,2.9-12c0-4.5-1-8.6-2.9-12.1c-1.9-3.6-4.6-6.4-7.9-8.4
				c-3.3-2.1-7.2-3.1-11.4-3.1c-4.2,0-8,1-11.4,3.1c-3.4,2.1-6.1,4.9-8,8.4c-2,3.6-3,7.6-3,12.1c0,4.4,1,8.4,3,12
				c2,3.6,4.6,6.4,8,8.4C22.8,177.4,26.5,178.4,30.7,178.4z M58.9,189.3c-1.8,0-3.4-0.6-4.6-1.8c-1.2-1.2-1.8-2.7-1.8-4.6v-19.2
				l2.4-13.3l10.4,4.5v28c0,1.8-0.6,3.4-1.8,4.6C62.2,188.7,60.7,189.3,58.9,189.3z"/>
			<path class="st12" d="M81.5,133.8c-1.8,0-3.2-0.5-4.3-1.5c-1.1-1-1.6-2.3-1.6-3.8c0-1.7,0.5-3,1.6-4c1.1-1,2.5-1.5,4.3-1.5h29
				c1.8,0,3.2,0.5,4.3,1.5c1.1,1,1.6,2.3,1.6,4c0,1.5-0.5,2.8-1.6,3.8c-1.1,1-2.5,1.5-4.3,1.5H81.5z M109.3,189.2
				c-4.2,0-8-1.1-11.3-3.2c-3.3-2.1-6-5-7.9-8.7c-1.9-3.7-2.9-7.8-2.9-12.4v-59.9c0-1.8,0.6-3.3,1.8-4.5c1.2-1.2,2.7-1.8,4.5-1.8
				c1.8,0,3.3,0.6,4.5,1.8c1.2,1.2,1.8,2.7,1.8,4.5v59.9c0,3.3,0.9,6.2,2.8,8.4c1.8,2.3,4.1,3.4,6.8,3.4h4.3c1.5,0,2.8,0.6,3.8,1.8
				c1,1.2,1.6,2.7,1.6,4.5c0,1.8-0.7,3.3-2.1,4.5c-1.4,1.2-3.2,1.8-5.3,1.8H109.3z"/>
			<path class="st12" d="M141.1,164.2c-1.8,0-3.4-0.6-4.6-1.8c-1.2-1.2-1.8-2.7-1.8-4.6V97.5c0-1.9,0.6-3.5,1.8-4.6
				c1.2-1.2,2.7-1.8,4.6-1.8c1.9,0,3.5,0.6,4.6,1.8c1.2,1.2,1.8,2.7,1.8,4.6v60.3c0,1.8-0.6,3.4-1.8,4.6
				C144.6,163.6,143,164.2,141.1,164.2z M141.1,189.3c-1.8,0-3.4-0.6-4.6-1.8c-1.2-1.2-1.8-2.7-1.8-4.6v-56c0-1.9,0.6-3.5,1.8-4.6
				c1.2-1.2,2.7-1.8,4.6-1.8c1.9,0,3.5,0.6,4.6,1.8c1.2,1.2,1.8,2.7,1.8,4.6v56c0,1.8-0.6,3.4-1.8,4.6
				C144.6,188.7,143,189.3,141.1,189.3z M192.7,189.3c-1.8,0-3.4-0.6-4.6-1.8c-1.2-1.2-1.8-2.7-1.8-4.6V152c0-4.8-0.9-8.7-2.6-11.7
				c-1.8-3-4.1-5.3-7.1-6.7c-3-1.5-6.4-2.2-10.2-2.2c-3.5,0-6.7,0.7-9.5,2.1c-2.8,1.4-5.1,3.3-6.8,5.7c-1.7,2.4-2.5,5.1-2.5,8.2
				h-7.9c0-5.3,1.3-10,3.8-14.1c2.6-4.1,6-7.4,10.5-9.9c4.4-2.4,9.4-3.6,14.9-3.6c5.8,0,10.9,1.2,15.5,3.7
				c4.6,2.5,8.2,6.1,10.8,10.9c2.6,4.8,4,10.6,4,17.6v30.9c0,1.8-0.6,3.4-1.8,4.6C196.1,188.7,194.6,189.3,192.7,189.3z"/>
			<path class="st12" d="M252.7,189.7c-7,0-13.1-1.5-18.5-4.5c-5.4-3-9.6-7.1-12.7-12.3c-3.1-5.2-4.6-11.2-4.6-18
				c0-6.9,1.4-12.9,4.3-18.1c2.9-5.2,6.9-9.3,12-12.3c5.1-3,11-4.5,17.6-4.5c6.5,0,12.1,1.4,16.8,4.3c4.7,2.9,8.3,6.9,10.7,11.9
				c2.5,5.1,3.7,10.9,3.7,17.5c0,1.6-0.5,2.9-1.6,4c-1.1,1-2.5,1.6-4.1,1.6h-50.6v-10H276l-5.1,3.5c-0.1-4.2-0.9-7.9-2.5-11.2
				c-1.6-3.3-3.9-5.9-6.8-7.8c-2.9-1.9-6.5-2.9-10.7-2.9c-4.8,0-8.9,1-12.2,3.1c-3.4,2.1-6,5-7.7,8.6c-1.8,3.6-2.6,7.8-2.6,12.4
				c0,4.6,1,8.7,3.1,12.3c2.1,3.6,5,6.4,8.7,8.5c3.7,2.1,7.9,3.1,12.7,3.1c2.6,0,5.3-0.5,8-1.4c2.7-1,4.9-2.1,6.6-3.3
				c1.3-0.9,2.6-1.4,4.1-1.4c1.5,0,2.7,0.4,3.8,1.3c1.4,1.3,2.2,2.6,2.3,4.1c0.1,1.5-0.6,2.8-2,3.9c-2.8,2.3-6.4,4.1-10.6,5.5
				C260.6,189,256.6,189.7,252.7,189.7z"/>
			<path class="st12" d="M304.7,189.2c-2,0-3.6-0.5-4.6-1.6c-1.1-1-1.6-2.6-1.6-4.7v-56.1c0-2,0.5-3.6,1.6-4.6
				c1.1-1.1,2.6-1.6,4.6-1.6c2.1,0,3.7,0.5,4.7,1.6c1,1,1.6,2.6,1.6,4.7v56.1c0,2-0.5,3.6-1.6,4.6
				C308.4,188.6,306.8,189.2,304.7,189.2z M304.6,146.2c0-5,1.2-9.5,3.7-13.5c2.5-4,5.8-7.1,10-9.5c4.2-2.3,8.8-3.5,13.8-3.5
				c5,0,8.8,0.8,11.2,2.4c2.5,1.6,3.4,3.6,2.8,5.8c-0.3,1.2-0.7,2.1-1.4,2.7c-0.7,0.6-1.5,1-2.4,1.2c-0.9,0.2-1.9,0.1-3-0.1
				c-5.4-1.1-10.2-1.2-14.4-0.3c-4.3,0.9-7.6,2.6-10.1,5.1c-2.5,2.5-3.7,5.7-3.7,9.5H304.6z"/>
		</g>
		<g>
			<path class="st13" d="M-155.2,186.3c-1.5,0-2.8-0.5-4-1.4c-1.2-0.9-2-2.2-2.5-3.8l-25.2-83.9c-0.8-2.8-0.8-5,0.2-6.6
				c1-1.6,2.5-2.4,4.7-2.4c1.4,0,2.7,0.4,3.9,1.2c1.2,0.8,2,2,2.5,3.7l22,76.6h-2.8l20.3-75.8c0.3-1.3,1.1-2.3,2.3-3.1
				c1.2-0.8,2.5-1.3,4-1.3c1.3,0,2.6,0.4,3.8,1.1c1.2,0.7,2,1.8,2.3,3.2l20.5,76h-2.5l22.1-77.2c0.8-2.8,3-4.3,6.4-4.3
				c2.3,0,3.8,0.9,4.5,2.7c0.7,1.8,0.7,3.9,0,6.3l-25.2,83.8c-0.6,1.6-1.4,2.9-2.6,3.8c-1.1,1-2.4,1.4-4,1.4c-1.6,0-3-0.5-4.1-1.5
				c-1.1-1-1.9-2.2-2.4-3.6l-20.2-78.1h3l-20.5,78c-0.6,1.6-1.4,2.9-2.6,3.8C-152.4,185.9-153.7,186.3-155.2,186.3z"/>
			<path class="st13" d="M-41,186.8c-6.9,0-13.1-1.5-18.5-4.5c-5.4-3-9.6-7.1-12.7-12.3c-3.1-5.2-4.6-11.2-4.6-18
				c0-6.9,1.4-12.9,4.3-18.1c2.9-5.2,6.9-9.3,12-12.3c5.1-3,11-4.5,17.6-4.5c6.5,0,12.1,1.4,16.8,4.3c4.7,2.9,8.3,6.9,10.7,11.9
				c2.5,5.1,3.7,10.9,3.7,17.5c0,1.6-0.5,2.9-1.6,4c-1.1,1-2.5,1.6-4.1,1.6H-68v-10h50.2l-5.1,3.5c-0.1-4.2-0.9-7.9-2.5-11.2
				c-1.6-3.3-3.9-5.9-6.8-7.8c-2.9-1.9-6.5-2.9-10.7-2.9c-4.8,0-8.9,1-12.2,3.1c-3.4,2.1-6,5-7.7,8.6c-1.8,3.6-2.6,7.8-2.6,12.4
				c0,4.6,1,8.7,3.1,12.3c2.1,3.6,5,6.4,8.7,8.5C-50,175-45.8,176-41,176c2.6,0,5.3-0.5,8-1.4c2.7-1,4.9-2.1,6.6-3.3
				c1.3-0.9,2.6-1.4,4.1-1.4c1.5,0,2.7,0.4,3.8,1.3c1.4,1.3,2.2,2.6,2.3,4.1c0.1,1.5-0.6,2.8-2,3.9c-2.8,2.3-6.4,4.1-10.6,5.5
				C-33.1,186.1-37.2,186.8-41,186.8z"/>
			<path class="st13" d="M30.8,186.8c-6.1,0-11.6-1.5-16.4-4.6c-4.9-3.1-8.7-7.2-11.5-12.4c-2.8-5.2-4.2-11.2-4.2-17.8
				c0-6.6,1.5-12.6,4.6-17.8c3.1-5.3,7.2-9.4,12.4-12.5c5.2-3.1,11.1-4.6,17.6-4.6s12.4,1.5,17.6,4.6c5.2,3.1,9.3,7.2,12.4,12.5
				c3.1,5.3,4.6,11.2,4.6,17.8h-4.9c0,6.6-1.4,12.5-4.2,17.8c-2.8,5.2-6.6,9.4-11.5,12.4C42.4,185.3,36.9,186.8,30.8,186.8z
				 M33.3,175.5c4.3,0,8.1-1,11.4-3.1c3.3-2.1,6-4.9,7.9-8.4c1.9-3.6,2.9-7.6,2.9-12c0-4.5-1-8.6-2.9-12.1c-1.9-3.6-4.6-6.4-7.9-8.4
				c-3.3-2-7.2-3.1-11.4-3.1c-4.2,0-8,1-11.4,3.1c-3.4,2.1-6.1,4.9-8,8.4c-2,3.6-3,7.6-3,12.1c0,4.4,1,8.4,3,12c2,3.6,4.6,6.4,8,8.4
				C25.3,174.5,29.1,175.5,33.3,175.5z M61.4,186.5c-1.8,0-3.4-0.6-4.6-1.8c-1.2-1.2-1.8-2.7-1.8-4.6v-19.2l2.4-13.3l10.4,4.5v28
				c0,1.8-0.6,3.4-1.8,4.6C64.8,185.9,63.3,186.5,61.4,186.5z"/>
			<path class="st13" d="M84,131c-1.8,0-3.2-0.5-4.3-1.5c-1.1-1-1.6-2.3-1.6-3.8c0-1.7,0.5-3,1.6-4c1.1-1,2.5-1.5,4.3-1.5h29
				c1.8,0,3.2,0.5,4.3,1.5c1.1,1,1.6,2.3,1.6,4c0,1.5-0.5,2.8-1.6,3.8c-1.1,1-2.5,1.5-4.3,1.5H84z M111.9,186.3
				c-4.2,0-8-1.1-11.3-3.2c-3.3-2.1-6-5-7.9-8.7c-1.9-3.7-2.9-7.8-2.9-12.4v-59.9c0-1.8,0.6-3.3,1.8-4.5c1.2-1.2,2.7-1.8,4.5-1.8
				c1.8,0,3.3,0.6,4.5,1.8c1.2,1.2,1.8,2.7,1.8,4.5V162c0,3.3,0.9,6.2,2.8,8.4c1.8,2.3,4.1,3.4,6.8,3.4h4.3c1.5,0,2.8,0.6,3.8,1.8
				c1,1.2,1.6,2.7,1.6,4.5c0,1.8-0.7,3.3-2.1,4.5c-1.4,1.2-3.2,1.8-5.3,1.8H111.9z"/>
			<path class="st13" d="M143.7,161.4c-1.8,0-3.4-0.6-4.6-1.8c-1.2-1.2-1.8-2.7-1.8-4.6V94.7c0-1.9,0.6-3.5,1.8-4.6
				c1.2-1.2,2.7-1.8,4.6-1.8c1.9,0,3.5,0.6,4.6,1.8c1.2,1.2,1.8,2.7,1.8,4.6v60.3c0,1.8-0.6,3.4-1.8,4.6
				C147.2,160.7,145.6,161.4,143.7,161.4z M143.7,186.5c-1.8,0-3.4-0.6-4.6-1.8c-1.2-1.2-1.8-2.7-1.8-4.6v-56c0-1.9,0.6-3.5,1.8-4.6
				c1.2-1.2,2.7-1.8,4.6-1.8c1.9,0,3.5,0.6,4.6,1.8c1.2,1.2,1.8,2.7,1.8,4.6v56c0,1.8-0.6,3.4-1.8,4.6
				C147.2,185.9,145.6,186.5,143.7,186.5z M195.3,186.5c-1.8,0-3.4-0.6-4.6-1.8c-1.2-1.2-1.8-2.7-1.8-4.6v-30.9
				c0-4.8-0.9-8.7-2.6-11.7c-1.8-3-4.1-5.3-7.1-6.7c-3-1.5-6.4-2.2-10.2-2.2c-3.5,0-6.7,0.7-9.5,2.1c-2.8,1.4-5.1,3.3-6.8,5.7
				c-1.7,2.4-2.5,5.1-2.5,8.2h-7.9c0-5.3,1.3-10,3.8-14.1c2.6-4.1,6-7.4,10.5-9.9c4.4-2.4,9.4-3.6,14.9-3.6c5.8,0,10.9,1.2,15.5,3.7
				c4.6,2.5,8.2,6.1,10.8,10.9c2.6,4.8,4,10.6,4,17.6v30.9c0,1.8-0.6,3.4-1.8,4.6C198.7,185.9,197.1,186.5,195.3,186.5z"/>
			<path class="st13" d="M255.3,186.8c-7,0-13.1-1.5-18.5-4.5c-5.4-3-9.6-7.1-12.7-12.3c-3.1-5.2-4.6-11.2-4.6-18
				c0-6.9,1.4-12.9,4.3-18.1c2.9-5.2,6.9-9.3,12-12.3c5.1-3,11-4.5,17.6-4.5c6.5,0,12.1,1.4,16.8,4.3c4.7,2.9,8.3,6.9,10.7,11.9
				c2.5,5.1,3.7,10.9,3.7,17.5c0,1.6-0.5,2.9-1.6,4c-1.1,1-2.5,1.6-4.1,1.6h-50.6v-10h50.2l-5.1,3.5c-0.1-4.2-0.9-7.9-2.5-11.2
				c-1.6-3.3-3.9-5.9-6.8-7.8c-2.9-1.9-6.5-2.9-10.7-2.9c-4.8,0-8.9,1-12.2,3.1c-3.4,2.1-6,5-7.7,8.6c-1.8,3.6-2.6,7.8-2.6,12.4
				c0,4.6,1,8.7,3.1,12.3c2.1,3.6,5,6.4,8.7,8.5c3.7,2.1,7.9,3.1,12.7,3.1c2.6,0,5.3-0.5,8-1.4c2.7-1,4.9-2.1,6.6-3.3
				c1.3-0.9,2.6-1.4,4.1-1.4c1.5,0,2.7,0.4,3.8,1.3c1.4,1.3,2.2,2.6,2.3,4.1c0.1,1.5-0.6,2.8-2,3.9c-2.8,2.3-6.4,4.1-10.6,5.5
				C263.2,186.1,259.2,186.8,255.3,186.8z"/>
			<path class="st13" d="M307.3,186.3c-2,0-3.6-0.5-4.6-1.6c-1.1-1-1.6-2.6-1.6-4.7v-56.1c0-2,0.5-3.6,1.6-4.6
				c1.1-1.1,2.6-1.6,4.6-1.6c2.1,0,3.7,0.5,4.7,1.6c1,1,1.6,2.6,1.6,4.7v56.1c0,2-0.5,3.6-1.6,4.6
				C311,185.8,309.4,186.3,307.3,186.3z M307.2,143.4c0-5,1.2-9.5,3.7-13.5c2.5-4,5.8-7.1,10-9.5c4.2-2.3,8.8-3.5,13.8-3.5
				c5,0,8.8,0.8,11.2,2.4c2.5,1.6,3.4,3.6,2.8,5.8c-0.3,1.2-0.7,2.1-1.4,2.7c-0.7,0.6-1.5,1-2.4,1.2c-0.9,0.2-1.9,0.1-3-0.1
				c-5.4-1.1-10.2-1.2-14.4-0.3c-4.3,0.9-7.6,2.6-10.1,5.1c-2.5,2.5-3.7,5.7-3.7,9.5H307.2z"/>
		</g>
	</g>
</g>
<g id="Cloud" class="st0">
	<g>
		<path class="st14" d="M378.1,156.6c0-14.2-10.6-26.4-25.9-31.6c-1.4-18-19.9-32.2-42.6-32.2c-19.7,0-36.3,10.8-41.2,25.4
			c-7.1-4.3-16-6.9-25.6-6.9c-14.2,0-26.9,5.6-34.6,14.3c-6.8-3.7-15-5.8-23.8-5.8c-23.6,0-42.7,15.4-42.7,34.4
			c0,16.9,15.1,31,35,33.9c7.8,8.4,20.2,13.8,34.2,13.8c3.4,0,6.6-0.3,9.8-0.9c6.4,3.1,14,4.9,22,4.9c13.8,0,26.1-5.3,33.9-13.6
			c7.6,9.4,20.8,15.6,35.7,15.6c16.8,0,31.3-7.8,38.3-19.2C366.8,183.8,378.1,171.3,378.1,156.6z"/>
		<path class="st15" d="M378.1,152.6c0-14.2-10.6-26.4-25.9-31.6c-1.4-18-19.9-32.2-42.6-32.2c-19.7,0-36.3,10.8-41.2,25.4
			c-7.1-4.3-16-6.9-25.6-6.9c-14.2,0-26.9,5.6-34.6,14.3c-6.8-3.7-15-5.8-23.8-5.8c-23.6,0-42.7,15.4-42.7,34.4
			c0,16.9,15.1,31,35,33.9c7.8,8.4,20.2,13.8,34.2,13.8c3.4,0,6.6-0.3,9.8-0.9c6.4,3.1,14,4.9,22,4.9c13.8,0,26.1-5.3,33.9-13.6
			c7.6,9.4,20.8,15.6,35.7,15.6c16.8,0,31.3-7.8,38.3-19.2C366.8,179.8,378.1,167.3,378.1,152.6z"/>
		<path class="st14" d="M349.2,180.3c0-8.5-8-15.9-19.5-19c-1.1-10.8-15-19.3-32.1-19.3c-14.9,0-27.4,6.5-31.1,15.3
			c-5.4-2.6-12.1-4.2-19.3-4.2c-10.7,0-20.3,3.4-26.1,8.6c-5.1-2.2-11.3-3.5-17.9-3.5c-17.8,0-32.2,9.3-32.2,20.7
			c0,10.2,11.4,18.6,26.4,20.4c5.9,5.1,15.2,8.3,25.8,8.3c2.5,0,5-0.2,7.4-0.6c4.9,1.9,10.5,3,16.6,3c10.4,0,19.7-3.2,25.6-8.2
			c5.8,5.6,15.7,9.4,26.9,9.4c12.7,0,23.6-4.7,28.9-11.5C340.6,196.6,349.2,189.1,349.2,180.3z"/>
		<path class="st15" d="M339.7,173.4c0-7-7.2-13-17.4-15.6c-1-8.9-13.5-15.9-28.7-15.9c-13.3,0-24.5,5.3-27.8,12.5
			c-4.8-2.1-10.8-3.4-17.3-3.4c-9.6,0-18.1,2.8-23.3,7c-4.6-1.8-10.1-2.9-16-2.9c-15.9,0-28.8,7.6-28.8,17
			c0,8.3,10.2,15.3,23.6,16.7c5.2,4.1,13.6,6.8,23.1,6.8c2.3,0,4.5-0.2,6.6-0.5c4.3,1.5,9.4,2.4,14.9,2.4c9.3,0,17.6-2.6,22.9-6.7
			c5.1,4.6,14,7.7,24.1,7.7c11.3,0,21.1-3.9,25.8-9.5C332,186.8,339.7,180.6,339.7,173.4z"/>
	</g>
</g>
</svg>
