<?xml version="1.0" encoding="utf-8"?>
<!-- Generator: Adobe Illustrator 23.0.1, SVG Export Plug-In . SVG Version: 6.00 Build 0)  -->
<svg version="1.1" xmlns="http://www.w3.org/2000/svg" xmlns:xlink="http://www.w3.org/1999/xlink" x="0px" y="0px"
	 viewBox="0 0 50 25" style="enable-background:new 0 0 50 25;" xml:space="preserve">
<style type="text/css">
	.st0{display:none;}
	.st1{display:inline;fill:#49C6F4;}
	.st2{display:inline;}
	.st3{fill:#F3F7FA;}
	.st4{fill:#FFFFFF;}
	.st5{fill:#E8F5FD;}
	.st6{display:inline;fill:#FFEE8D;}
	.st7{display:inline;fill:#FCEA26;}
	.st8{fill:#212121;}
	.st9{fill:#708DE8;}
	.st10{fill:#0499CA;}
	.st11{fill:#CFE7F7;}
	.st12{fill:#00BDFE;}
	.st13{fill:#009CFC;}
	.st14{display:inline;fill:#E8F5FD;}
	.st15{display:inline;fill:#FFFFFF;}
</style>
<g id="background_x27_" class="st0">
	<rect x="-935" y="-527.5" class="st1" width="1920" height="1080"/>
	
		<image style="display:inline;overflow:visible;" width="1161" height="807" xlink:href="3F6784C5.jpg"  transform="matrix(1 0 0 1 -2007 -1334.5)">
	</image>
	
		<image style="display:inline;overflow:visible;" width="297" height="572" xlink:href="3F6784CB.jpg"  transform="matrix(1 0 0 1 -1427 -449.5)">
	</image>
	
		<image style="display:inline;overflow:visible;" width="795" height="661" xlink:href="3F6784CC.jpg"  transform="matrix(1 0 0 1 -1839 136.5)">
	</image>
</g>
<g id="Large_Cloud" class="st0">
	<g class="st2">
		<path class="st3" d="M280,15.9c0-29.9-22.4-55.5-54.4-66.6c-3-37.8-42-67.7-89.6-67.7c-41.5,0-76.4,22.7-86.7,53.5
			C34.3-74,15.6-79.4-4.7-79.4c-30,0-56.5,11.9-72.8,30.1c-14.3-7.7-31.5-12.3-50-12.3c-49.6,0-89.8,32.4-89.8,72.4
			c0,35.6,31.8,65.2,73.7,71.3c16.4,17.7,42.5,29.1,72,29.1c7.1,0,14-0.7,20.6-1.9c13.5,6.6,29.4,10.4,46.4,10.4
			c29.1,0,55-11.2,71.4-28.5c16,19.7,43.7,32.8,75.1,32.8c35.3,0,65.9-16.5,80.6-40.4C256.1,73,280,46.7,280,15.9z"/>
		<path class="st4" d="M267.3,28.6c0-29.9-22.4-55.5-54.4-66.6c-3-37.8-42-67.7-89.6-67.7c-41.5,0-76.4,22.7-86.7,53.5
			c-15-9.1-33.7-14.5-53.9-14.5c-30,0-56.5,11.9-72.8,30.1c-14.3-7.7-31.5-12.3-50-12.3c-49.6,0-89.8,32.4-89.8,72.4
			c0,35.6,31.8,65.2,73.7,71.3c16.4,17.7,42.5,29.1,72,29.1c7.1,0,14-0.7,20.6-1.9c13.5,6.6,29.4,10.4,46.4,10.4
			c29.1,0,55-11.2,71.4-28.5c16,19.7,43.7,32.8,75.1,32.8c35.3,0,65.9-16.5,80.6-40.4C243.4,85.8,267.3,59.4,267.3,28.6z"/>
		<path class="st5" d="M202.1,78.4c0-18-16.9-33.4-41.1-40c-2.3-22.7-31.7-40.7-67.6-40.7c-31.3,0-57.6,13.6-65.4,32.2
			c-11.3-5.5-25.4-8.7-40.7-8.7c-22.6,0-42.6,7.1-55,18.1c-10.8-4.7-23.8-7.4-37.8-7.4c-37.4,0-67.8,19.5-67.8,43.6
			c0,21.4,24,39.2,55.6,42.9c12.4,10.6,32.1,17.5,54.3,17.5c5.3,0,10.5-0.4,15.5-1.2c10.2,4,22.2,6.3,35,6.3
			c22,0,41.5-6.7,53.9-17.2c12.1,11.9,33,19.7,56.7,19.7c26.7,0,49.7-9.9,60.8-24.3C184,112.8,202.1,97,202.1,78.4z"/>
		<path class="st4" d="M181.7,63.9c0-14.7-15.1-27.4-36.7-32.8c-2-18.6-28.3-33.4-60.4-33.4c-28,0-51.5,11.2-58.5,26.4
			C16,19.6,3.4,16.9-10.3,16.9c-20.2,0-38.1,5.8-49.1,14.8c-9.6-3.8-21.3-6.1-33.7-6.1c-33.5,0-60.6,16-60.6,35.7
			c0,17.5,21.5,32.1,49.7,35.1c11,8.7,28.7,14.4,48.6,14.4c4.8,0,9.4-0.3,13.9-1c9.1,3.3,19.8,5.1,31.3,5.1
			c19.7,0,37.1-5.5,48.2-14.1c10.8,9.7,29.5,16.2,50.7,16.2c23.8,0,44.5-8.1,54.3-19.9C165.6,92,181.7,79.1,181.7,63.9z"/>
	</g>
</g>
<g id="sun" class="st0">
	<polygon id="crown" class="st6" points="113.4,24.1 125,12.5 113.4,0.9 121.6,-13.4 107.3,-21.6 111.6,-37.5 95.7,-41.8 
		95.7,-58.2 79.3,-58.2 75,-74.1 59.1,-69.8 50.9,-84.1 36.6,-75.9 25,-87.5 13.4,-75.9 -0.9,-84.1 -9.1,-69.8 -25,-74.1 
		-29.3,-58.2 -45.7,-58.2 -45.7,-41.8 -61.6,-37.5 -57.3,-21.6 -71.6,-13.4 -63.4,0.9 -75,12.5 -63.4,24.1 -71.6,38.4 -57.3,46.6 
		-61.6,62.5 -45.7,66.8 -45.7,83.2 -29.3,83.2 -25,99.1 -9.1,94.8 -0.9,109.1 13.4,100.9 25,112.5 36.6,100.9 50.9,109.1 59.1,94.8 
		75,99.1 79.3,83.2 95.7,83.2 95.7,66.8 111.6,62.5 107.3,46.6 121.6,38.4 	"/>
	<circle id="core" class="st7" cx="25" cy="12" r="85.5"/>
</g>
<g id="birds" class="st0">
	<g class="st2">
		<path class="st8" d="M-17.4,32.6c0,0-3.6-3.3-10.3,0.8c0,0,6.2-3.1,10.3-0.4c4.1-2.8,10.3,0.4,10.3,0.4
			C-13.8,29.3-17.4,32.6-17.4,32.6z"/>
		<path class="st8" d="M14.7,40c0,0-3.4-1.7-7.7-1.7S1.9,40,1.9,40s-2.8-1.8-5.8-1.7C-5.7,38.4-6.7,40-6.7,40S-4.9,39-4,39
			c3,0.1,5.9,1.9,5.9,1.9s1.7-1.7,5.2-1.7S14.7,40,14.7,40z"/>
		<path class="st8" d="M64.3,45.2c0,0-4.6-2.3-10.3-2.3s-6.9,2.3-6.9,2.3s-3.7-2.4-7.7-2.3c-2.3,0.1-3.7,2.3-3.7,2.3
			s2.4-1.4,3.6-1.4c4,0.1,7.9,2.5,7.9,2.5S49.4,44,54,44S64.3,45.2,64.3,45.2z"/>
		<path class="st8" d="M49.9,70.5c0,0-4.6-2.3-10.3-2.3s-6.9,2.3-6.9,2.3s-3.7-2.4-7.7-2.3c-2.3,0.1-3.7,2.3-3.7,2.3
			s2.4-1.4,3.6-1.4c4,0.1,7.9,2.5,7.9,2.5s2.3-2.3,6.9-2.3S49.9,70.5,49.9,70.5z"/>
		<path class="st8" d="M-36.7,45.1c0,0-3.6-1.8-8.1-1.8s-5.4,1.8-5.4,1.8s-2.9-1.9-6.1-1.8c-1.8,0.1-2.9,1.8-2.9,1.8
			s1.9-1.1,2.8-1.1c3.1,0.1,6.2,2,6.2,2s1.8-1.8,5.4-1.8C-41.2,44.2-36.7,45.1-36.7,45.1z"/>
		<path class="st8" d="M6.7,55.7c0,0-4.6-2.3-10.3-2.3s-6.9,2.3-6.9,2.3s-3.7-2.4-7.7-2.3c-2.3,0.1-3.7,2.3-3.7,2.3s2.4-1.4,3.6-1.4
			c4,0.1,7.9,2.5,7.9,2.5s2.3-2.3,6.9-2.3S6.7,55.7,6.7,55.7z"/>
		<path class="st8" d="M71.2,58.4c0,0-2.5-1.2-5.6-1.2c-3.1,0-3.7,1.2-3.7,1.2s-2-1.3-4.2-1.2c-1.2,0-2,1.2-2,1.2s1.3-0.8,1.9-0.8
			c2.2,0.1,4.3,1.4,4.3,1.4s1.2-1.2,3.7-1.2C68.1,57.8,71.2,58.4,71.2,58.4z"/>
		<path class="st8" d="M109.1,56.2c0,0-2.5-1.2-5.6-1.2s-3.7,1.2-3.7,1.2s-2-1.3-4.2-1.2c-1.2,0-2,1.2-2,1.2s1.3-0.8,1.9-0.8
			c2.2,0.1,4.3,1.4,4.3,1.4s1.2-1.2,3.7-1.2C106,55.6,109.1,56.2,109.1,56.2z"/>
	</g>
</g>
<g id="plane">
	<g>
		<path class="st9" d="M23.3,12.6c0.1,0.1,0.2,0.2,0.3,0.3c0.1,0.1,0.1,0.1,0.2,0.2c0,0,0,0,0.1,0c0.1,0.1,0.3,0.2,0.4,0.3
			c0,0,0.1,0.1,0.1,0.1c0.1,0,0.1,0.1,0.2,0.1h0c0.1,0,0.1,0.1,0.2,0.1c0.9,0.7,1.9,1.4,2.8,2.2c0.5,0.4,1,0.7,1.5,1.1
			c1.3,1,2.6,2,3.9,3c0.1,0.1,0.3,0.2,0.5,0.2c0.3,0,0.7-0.1,1-0.3c0.3-0.2,0.3-0.4,0.1-0.7c-1.3-1.6-2.5-3.1-3.8-4.7
			c-0.1-0.1-0.2-0.2-0.2-0.3c-0.2-0.2-0.3-0.4-0.5-0.6c0,0,0,0,0,0c0,0-0.1-0.1-0.1-0.1c-0.1-0.1-0.1-0.2-0.2-0.3
			c-0.1-0.1-0.1-0.2-0.2-0.3c-0.1-0.1-0.1-0.2-0.3-0.2c-1.9-0.1-3.8-0.1-5.7-0.1C23.4,12.6,23.4,12.6,23.3,12.6z"/>
		<path class="st9" d="M36.6,9.5c0,0.1,0.1,0.1,0.1,0.1c0.9,0.1,1.8,0.2,2.7,0.3c0.1,0,0.1,0,0.2,0c0-1.6,0.2-3.2,0.2-4.8
			c0-0.3,0-0.3-0.3-0.3c-0.1,0-0.2,0-0.3,0c-0.2,0-0.4,0.1-0.5,0.3c-0.7,1.4-1.4,2.7-2.1,4.1C36.6,9.4,36.6,9.4,36.6,9.5z"/>
		<path class="st9" d="M24.9,9.2c0.1,0,0.3,0,0.4,0c1.6,0,3.1,0,4.7,0.1c0.2,0,0.4,0,0.6,0c0.1,0,0.2,0,0.2-0.1
			c0.3-0.4,0.5-0.8,0.8-1.3c0.1-0.2,0.2-0.4,0.1-0.6c-0.1-0.2-0.3-0.2-0.5-0.2c-0.6,0-1.2,0.1-1.8,0.3c-1.4,0.5-2.8,1.1-4.3,1.6
			C25,9.1,25,9.2,24.9,9.2z"/>
		<path class="st9" d="M39.1,11.9c-0.1-0.3-0.1-0.6-0.2-0.8c-0.1-0.3-0.1-0.4-0.4-0.4c-0.6,0-1.2,0-1.8-0.1c-0.1,0-0.2,0-0.2,0
			c0,0.1,0,0.1,0.1,0.2c0.3,0.4,0.6,0.9,0.8,1.3c0,0,0,0,0,0c0,0,0,0,0,0.1c0.2,0.3,0.5,0.7,0.7,1c0.2,0.3,0.4,0.4,0.6,0.5
			c0.2,0,0.3,0.1,0.5,0.2c0.2,0.1,0.2,0,0.2-0.2c0-0.2-0.1-0.4-0.1-0.6c0-0.1,0-0.1,0-0.2c0,0,0-0.1,0-0.1c0,0,0-0.1,0-0.1
			c0,0,0,0,0,0c-0.1-0.1,0-0.1,0-0.2c0,0,0-0.1,0-0.1c0-0.1-0.1-0.2-0.1-0.3C39.1,12.1,39.1,12,39.1,11.9z"/>
		<path class="st4" d="M40.5,10.2c-0.2-0.1-0.5-0.1-0.7-0.2c-0.1,0-0.1,0-0.2-0.1c-0.1,0-0.1,0-0.2,0c-0.9-0.2-1.8-0.3-2.7-0.3
			c-0.1,0-0.2,0-0.1-0.1c-0.1,0.1-0.2,0.1-0.3,0.1c-0.6-0.1-1.3-0.1-1.9-0.1c-0.8,0-1.5-0.1-2.3-0.1c-0.3,0-0.7,0-1,0
			c-0.1,0-0.2,0-0.2-0.1c-0.1,0.1-0.1,0.1-0.2,0.1c-0.2,0-0.4,0-0.6,0c-1.6,0-3.1,0-4.7-0.1c-0.1,0-0.3,0-0.4,0c-1.3,0-2.7,0-4,0
			c-1.1,0-2.2,0-3.4,0.1c-0.7,0-1.4,0-2.2,0c-0.8,0-1.6,0.1-2.3,0.5c-0.4,0.2-0.8,0.6-1.2,0.8c0,0,0,0.1,0,0.1
			c0.3,0.2,0.5,0.2,0.8,0.1c0.3,0,0.6,0.2,0.6,0.4c0,0.3-0.2,0.4-0.6,0.4c-0.5,0-1-0.2-1.4-0.6c-0.4,0.2-0.8,0.3-1.2,0.5
			c-0.3,0.1-0.6,0.3-0.9,0.6c-0.3,0.3-0.2,0.7,0.1,0.9c0.4,0.3,0.8,0.4,1.3,0.5c0.7,0.1,1.5,0,2.2,0c1,0,2,0,3,0.1
			c0.8,0,1.6,0,2.5,0h0c1,0,2,0,3,0c0.1,0,0.1,0,0.2,0c0.6,0,1.2,0,1.8,0c0.1,0,0.1,0,0.2,0c0.4,0,0.9,0,1.3,0
			c-0.1,0-0.1-0.1-0.2-0.1c0,0-0.1-0.1-0.1-0.1c-0.1-0.1-0.3-0.2-0.4-0.3c0,0,0,0-0.1,0c-0.1-0.1-0.1-0.1-0.2-0.2
			c-0.1-0.1-0.2-0.2-0.3-0.3c0.1,0,0.1,0,0.1,0c1.9,0,3.8,0,5.7,0.1c0.1,0,0.2,0.1,0.3,0.2c0.1,0.1,0.1,0.2,0.2,0.3
			c0.1,0.1,0.1,0.2,0.2,0.3c0,0,0.1,0.1,0.1,0.1c0,0,0,0,0,0c0.1,0,0.2,0,0.3-0.1c1-0.1,1.9-0.3,2.9-0.5c1-0.2,1.9-0.4,2.9-0.6
			c0.4-0.1,0.8-0.2,1.2-0.3c-0.3-0.4-0.6-0.9-0.8-1.3c0-0.1-0.1-0.1-0.1-0.2c0-0.1,0.1-0.1,0.2,0c0.6,0,1.2,0,1.8,0.1
			c0.3,0,0.4,0.1,0.4,0.4c0.1,0.3,0.1,0.6,0.2,0.8c0-0.1,0.1-0.2,0.2-0.2c0.4,0,0.8-0.2,1.1-0.3c0.2-0.1,0.5-0.2,0.5-0.5
			C41.1,10.5,40.9,10.3,40.5,10.2z"/>
		<path class="st10" d="M11.2,11.1c0.4,0.4,0.9,0.6,1.4,0.6c0.4,0,0.6-0.1,0.6-0.4c0-0.3-0.3-0.5-0.6-0.4c-0.3,0-0.6,0-0.8-0.1
			C11.5,10.7,11.4,10.9,11.2,11.1z"/>
		<path class="st11" d="M37.4,12.3C37.4,12.2,37.3,12.2,37.4,12.3C37.3,12.2,37.3,12.3,37.4,12.3z"/>
		<path class="st10" d="M31.2,10.9c0,0.1,0,0.2,0,0.3c0,0.1,0.1,0.2,0.2,0.2c0.1,0,0.2-0.1,0.2-0.2c0-0.2,0-0.4,0-0.5
			c0-0.1-0.1-0.2-0.2-0.2c-0.1,0-0.2,0.1-0.2,0.2C31.2,10.7,31.2,10.8,31.2,10.9z"/>
		<path class="st10" d="M20.5,10.8c0-0.1,0-0.2,0-0.3c0-0.1-0.1-0.2-0.2-0.2c-0.1,0-0.2,0.1-0.2,0.2c0,0.2,0,0.4,0,0.6
			c0,0.1,0.1,0.2,0.2,0.2c0.1,0,0.2-0.1,0.2-0.2C20.5,10.9,20.5,10.8,20.5,10.8C20.5,10.8,20.5,10.8,20.5,10.8z"/>
		<path class="st10" d="M22.6,10.8c0,0.3,0.1,0.5,0.2,0.4c0.2,0,0.2-0.2,0.2-0.4c0-0.1,0-0.2,0-0.3c0-0.1-0.1-0.2-0.2-0.2
			c-0.1,0-0.2,0.1-0.2,0.2C22.5,10.6,22.6,10.7,22.6,10.8z"/>
		<path class="st10" d="M25,10.8c0,0.1,0,0.2,0,0.2c0,0.1,0.1,0.2,0.2,0.2c0.1,0,0.2-0.1,0.2-0.2c0-0.2,0-0.4,0-0.6
			c0-0.1-0.1-0.2-0.2-0.2c-0.1,0-0.2,0.1-0.2,0.2C25,10.7,25,10.8,25,10.8C25,10.8,25,10.8,25,10.8z"/>
		<path class="st10" d="M28.7,10.9c0,0.1,0,0.2,0,0.2c0,0.1,0.1,0.2,0.2,0.2c0.1,0,0.2-0.1,0.2-0.2c0-0.2,0-0.4,0-0.6
			c0-0.1-0.1-0.2-0.2-0.2c-0.1,0-0.2,0.1-0.2,0.2C28.7,10.7,28.7,10.8,28.7,10.9C28.7,10.9,28.7,10.9,28.7,10.9z"/>
		<path class="st10" d="M16.4,10.7c0,0.2,0,0.5,0.2,0.5c0.3,0,0.2-0.2,0.2-0.4c0-0.1,0-0.2,0-0.3c0-0.1-0.1-0.2-0.2-0.2
			c-0.1,0-0.2,0.1-0.2,0.2C16.4,10.5,16.4,10.6,16.4,10.7z"/>
		<path class="st10" d="M24.2,10.8c0-0.1,0-0.2,0-0.3c0-0.1-0.1-0.2-0.2-0.2c-0.1,0-0.2,0.1-0.2,0.2c0,0.2,0,0.4,0,0.5
			c0,0.1,0.1,0.2,0.2,0.2c0.1,0,0.2-0.1,0.2-0.2C24.2,11,24.2,10.9,24.2,10.8C24.2,10.8,24.2,10.8,24.2,10.8z"/>
		<path class="st10" d="M26.3,10.9c0,0.1,0,0.2,0,0.3c0,0.1,0.1,0.2,0.2,0.2c0.1,0,0.2,0,0.2-0.1c0.1-0.2,0.1-0.4,0-0.6
			c0-0.1-0.1-0.1-0.2-0.1c-0.1,0-0.2,0.1-0.2,0.2C26.2,10.7,26.3,10.8,26.3,10.9C26.3,10.9,26.3,10.9,26.3,10.9z"/>
		<path class="st10" d="M27.5,10.9c0,0.1,0,0.2,0,0.2c0,0.1,0.1,0.2,0.2,0.2c0.1,0,0.2-0.1,0.2-0.2c0-0.2,0-0.4,0-0.5
			c0-0.1-0.1-0.2-0.2-0.2c-0.1,0-0.2,0.1-0.2,0.2C27.5,10.7,27.5,10.8,27.5,10.9C27.5,10.9,27.5,10.9,27.5,10.9z"/>
		<path class="st10" d="M21.3,10.8c0,0.3,0.1,0.4,0.2,0.4c0.2,0,0.2-0.2,0.2-0.4c0-0.1,0-0.2,0-0.3c0-0.1-0.1-0.2-0.2-0.2
			c-0.1,0-0.2,0.1-0.2,0.2C21.3,10.6,21.3,10.7,21.3,10.8z"/>
		<path class="st10" d="M19.3,10.7c0-0.1,0-0.2,0-0.2c0-0.1-0.1-0.2-0.2-0.2c-0.1,0-0.2,0.1-0.2,0.2c0,0.2,0,0.3,0,0.5
			c0,0.1,0.1,0.2,0.2,0.2c0.1,0,0.2-0.1,0.2-0.2C19.3,10.9,19.3,10.8,19.3,10.7z"/>
		<path class="st10" d="M18.1,10.7c0-0.1,0-0.2,0-0.2c0-0.1-0.1-0.2-0.2-0.2c-0.1,0-0.2,0.1-0.2,0.2c0,0.2,0,0.4,0,0.6
			c0,0.1,0.1,0.2,0.2,0.2c0.1,0,0.2-0.1,0.2-0.2C18.1,10.9,18.1,10.8,18.1,10.7z"/>
		<path class="st10" d="M15.2,10.7c0,0.1,0,0.2,0,0.2c0,0.1,0.1,0.2,0.2,0.2c0.1,0,0.2-0.1,0.2-0.2c0-0.2,0-0.3,0-0.5
			c0-0.1-0.1-0.2-0.2-0.2c-0.1,0-0.2,0.1-0.2,0.2C15.2,10.5,15.2,10.6,15.2,10.7C15.2,10.7,15.2,10.7,15.2,10.7z"/>
		<path class="st10" d="M29.9,10.9c0,0.1,0,0.2,0,0.3c0,0.1,0.1,0.2,0.2,0.2c0.1,0,0.2-0.1,0.2-0.2c0-0.2,0-0.4,0-0.6
			c0-0.1-0.1-0.2-0.2-0.2c-0.1,0-0.2,0.1-0.2,0.2C29.9,10.7,30,10.8,29.9,10.9C29.9,10.9,29.9,10.9,29.9,10.9z"/>
	</g>
</g>
<g id="text" class="st0">
	<g class="st2">
		<g>
			<g>
				<path class="st12" d="M168.9,51.7c-1.8,0-3.4-0.6-4.6-1.9c-1.3-1.3-1.9-2.8-1.9-4.6v-85c0-1.9,0.6-3.5,1.9-4.7
					c1.3-1.2,2.8-1.8,4.6-1.8h22.7c7.2,0,13.8,1.2,19.7,3.6c5.9,2.4,11,5.8,15.4,10.2c4.4,4.4,7.7,9.6,10,15.5
					c2.3,5.9,3.5,12.5,3.5,19.7c0,7.2-1.2,13.8-3.5,19.8c-2.3,6-5.7,11.2-10,15.6c-4.4,4.4-9.5,7.8-15.4,10.2
					c-5.9,2.4-12.5,3.6-19.7,3.6H168.9z M175.5,40.1h16.2c7,0,13.2-1.6,18.6-4.8c5.4-3.2,9.6-7.7,12.7-13.3
					c3.1-5.7,4.6-12.1,4.6-19.4c0-7.4-1.5-13.9-4.6-19.5c-3.1-5.6-7.3-10-12.7-13.2c-5.4-3.2-11.6-4.8-18.6-4.8h-16.2V40.1z"/>
				<path class="st12" d="M288.1,52.2c-6.1,0-11.6-1.5-16.5-4.6c-4.9-3.1-8.7-7.2-11.5-12.4c-2.8-5.2-4.2-11.2-4.2-17.8
					c0-6.6,1.5-12.6,4.6-17.8c3.1-5.3,7.2-9.4,12.4-12.5c5.2-3.1,11.1-4.6,17.6-4.6s12.4,1.5,17.6,4.6c5.2,3.1,9.3,7.2,12.4,12.5
					c3.1,5.3,4.6,11.2,4.6,17.8h-4.9c0,6.6-1.4,12.5-4.2,17.8c-2.8,5.2-6.6,9.4-11.5,12.4C299.7,50.7,294.2,52.2,288.1,52.2z
					 M290.6,40.9c4.3,0,8.1-1,11.4-3.1c3.3-2,6-4.9,7.9-8.4c1.9-3.6,2.9-7.6,2.9-12c0-4.5-1-8.6-2.9-12.1c-1.9-3.6-4.6-6.4-7.9-8.4
					c-3.3-2.1-7.2-3.1-11.4-3.1c-4.2,0-8,1-11.4,3.1c-3.4,2.1-6.1,4.9-8,8.4c-2,3.6-3,7.6-3,12.1c0,4.4,1,8.4,3,12
					c2,3.6,4.6,6.4,8,8.4C282.6,39.9,286.4,40.9,290.6,40.9z M318.7,51.8c-1.8,0-3.4-0.6-4.6-1.8c-1.2-1.2-1.8-2.7-1.8-4.6V26.2
					l2.4-13.3l10.4,4.5v28c0,1.8-0.6,3.4-1.8,4.6C322.1,51.2,320.6,51.8,318.7,51.8z"/>
				<path class="st12" d="M369.2,52.2c-5.9,0-11.3-0.9-16.3-2.7c-5-1.8-8.9-4.1-11.6-6.8c-1.3-1.3-1.8-2.9-1.6-4.6
					c0.2-1.7,1-3.1,2.4-4.2c1.7-1.3,3.3-1.9,5-1.7c1.6,0.2,3,0.9,4.2,2.2c1.4,1.6,3.7,3.1,6.8,4.5c3.1,1.4,6.6,2.1,10.5,2.1
					c4.9,0,8.6-0.8,11.1-2.4c2.6-1.6,3.9-3.6,4-6.2c0.1-2.5-1.1-4.7-3.6-6.5c-2.5-1.8-7-3.3-13.5-4.5c-8.5-1.7-14.6-4.2-18.4-7.5
					c-3.8-3.3-5.7-7.5-5.7-12.3c0-4.3,1.3-7.8,3.8-10.6c2.5-2.8,5.7-4.9,9.7-6.3c3.9-1.4,8-2.1,12.3-2.1c5.5,0,10.4,0.9,14.7,2.6
					c4.3,1.8,7.7,4.2,10.2,7.3c1.2,1.3,1.7,2.7,1.6,4.2c-0.1,1.5-0.8,2.7-2.1,3.7c-1.3,0.9-2.9,1.2-4.8,0.9
					c-1.8-0.3-3.4-1.1-4.6-2.3c-2.1-2-4.4-3.4-6.8-4.1c-2.4-0.8-5.2-1.1-8.4-1.1c-3.7,0-6.8,0.6-9.4,1.9c-2.6,1.3-3.8,3.1-3.8,5.5
					c0,1.5,0.4,2.9,1.2,4.1c0.8,1.2,2.4,2.3,4.7,3.3c2.3,1,5.8,1.9,10.3,2.8c6.3,1.3,11.2,2.8,14.9,4.8c3.6,1.9,6.3,4.2,7.8,6.7
					c1.6,2.6,2.4,5.5,2.4,8.9c0,3.9-1,7.3-3.1,10.4c-2.1,3.1-5.1,5.6-9,7.4C380.1,51.3,375.2,52.2,369.2,52.2z"/>
				<path class="st12" d="M418.8,26.7c-1.8,0-3.4-0.6-4.6-1.8c-1.2-1.2-1.8-2.7-1.8-4.6V-40c0-1.9,0.6-3.5,1.8-4.6
					c1.2-1.2,2.7-1.8,4.6-1.8c1.9,0,3.5,0.6,4.6,1.8c1.2,1.2,1.8,2.7,1.8,4.6v60.3c0,1.8-0.6,3.4-1.8,4.6
					C422.3,26.1,420.7,26.7,418.8,26.7z M418.8,51.8c-1.8,0-3.4-0.6-4.6-1.8c-1.2-1.2-1.8-2.7-1.8-4.6v-56c0-1.9,0.6-3.5,1.8-4.6
					c1.2-1.2,2.7-1.8,4.6-1.8c1.9,0,3.5,0.6,4.6,1.8c1.2,1.2,1.8,2.7,1.8,4.6v56c0,1.8-0.6,3.4-1.8,4.6
					C422.3,51.2,420.7,51.8,418.8,51.8z M470.4,51.8c-1.8,0-3.4-0.6-4.6-1.8c-1.2-1.2-1.8-2.7-1.8-4.6V14.5c0-4.8-0.9-8.7-2.6-11.7
					s-4.1-5.3-7.1-6.7c-3-1.5-6.4-2.2-10.2-2.2c-3.5,0-6.7,0.7-9.5,2.1c-2.8,1.4-5.1,3.3-6.8,5.7c-1.7,2.4-2.5,5.1-2.5,8.2h-7.9
					c0-5.3,1.3-10,3.8-14.1c2.6-4.1,6-7.4,10.5-9.9c4.4-2.4,9.4-3.6,14.9-3.6c5.8,0,10.9,1.2,15.5,3.7c4.6,2.5,8.2,6.1,10.8,10.9
					c2.6,4.8,4,10.6,4,17.6v30.9c0,1.8-0.6,3.4-1.8,4.6C473.8,51.2,472.3,51.8,470.4,51.8z"/>
			</g>
			<g>
				<path class="st13" d="M171.5,48.8c-1.8,0-3.4-0.6-4.6-1.9s-1.9-2.8-1.9-4.6v-85c0-1.9,0.6-3.5,1.9-4.7c1.3-1.2,2.8-1.8,4.6-1.8
					h22.7c7.2,0,13.8,1.2,19.7,3.6c5.9,2.4,11,5.8,15.4,10.2c4.4,4.4,7.7,9.6,10,15.5c2.3,5.9,3.5,12.5,3.5,19.7
					c0,7.2-1.2,13.8-3.5,19.8c-2.3,6-5.7,11.2-10,15.6c-4.4,4.4-9.5,7.8-15.4,10.2c-5.9,2.4-12.5,3.6-19.7,3.6H171.5z M178,37.3
					h16.2c7,0,13.2-1.6,18.6-4.8c5.4-3.2,9.6-7.7,12.7-13.3c3.1-5.7,4.6-12.1,4.6-19.4c0-7.4-1.5-13.9-4.6-19.5
					c-3.1-5.6-7.3-10-12.7-13.2c-5.4-3.2-11.6-4.8-18.6-4.8H178V37.3z"/>
				<path class="st13" d="M290.7,49.3c-6.1,0-11.6-1.5-16.5-4.6c-4.9-3.1-8.7-7.2-11.5-12.4c-2.8-5.2-4.2-11.2-4.2-17.8
					c0-6.6,1.5-12.6,4.6-17.8c3.1-5.3,7.2-9.4,12.4-12.5c5.2-3.1,11.1-4.6,17.6-4.6s12.4,1.5,17.6,4.6c5.2,3.1,9.3,7.2,12.4,12.5
					c3.1,5.3,4.6,11.2,4.6,17.8h-4.9c0,6.6-1.4,12.5-4.2,17.8c-2.8,5.2-6.6,9.4-11.5,12.4C302.3,47.8,296.8,49.3,290.7,49.3z
					 M293.2,38c4.3,0,8.1-1,11.4-3.1c3.3-2.1,6-4.9,7.9-8.4c1.9-3.6,2.9-7.6,2.9-12c0-4.5-1-8.6-2.9-12.1c-1.9-3.6-4.6-6.4-7.9-8.4
					c-3.3-2-7.2-3.1-11.4-3.1c-4.2,0-8,1-11.4,3.1c-3.4,2.1-6.1,4.9-8,8.4c-2,3.6-3,7.6-3,12.1c0,4.4,1,8.4,3,12
					c2,3.6,4.6,6.4,8,8.4C285.2,37,289,38,293.2,38z M321.3,49c-1.8,0-3.4-0.6-4.6-1.8c-1.2-1.2-1.8-2.7-1.8-4.6V23.3l2.4-13.3
					l10.4,4.5v28c0,1.8-0.6,3.4-1.8,4.6C324.7,48.4,323.2,49,321.3,49z"/>
				<path class="st13" d="M371.8,49.3c-5.9,0-11.3-0.9-16.3-2.7c-5-1.8-8.9-4.1-11.6-6.8c-1.3-1.3-1.8-2.9-1.6-4.6
					c0.2-1.7,1-3.1,2.4-4.2c1.7-1.3,3.3-1.9,5-1.7c1.6,0.2,3,0.9,4.2,2.2c1.4,1.6,3.7,3.1,6.8,4.5c3.1,1.4,6.6,2.1,10.5,2.1
					c4.9,0,8.6-0.8,11.1-2.4c2.6-1.6,3.9-3.6,4-6.2c0.1-2.5-1.1-4.7-3.6-6.5c-2.5-1.8-7-3.3-13.5-4.5c-8.5-1.7-14.6-4.2-18.4-7.5
					c-3.8-3.3-5.7-7.4-5.7-12.3c0-4.3,1.3-7.8,3.8-10.6c2.5-2.8,5.7-4.9,9.7-6.3c3.9-1.4,8-2.1,12.3-2.1c5.5,0,10.4,0.9,14.7,2.6
					c4.3,1.8,7.7,4.2,10.2,7.3c1.2,1.3,1.7,2.7,1.6,4.2c-0.1,1.5-0.8,2.7-2.1,3.7c-1.3,0.9-2.9,1.2-4.8,0.9
					c-1.8-0.3-3.4-1.1-4.6-2.3c-2.1-2-4.4-3.4-6.8-4.1c-2.4-0.8-5.2-1.1-8.4-1.1c-3.7,0-6.8,0.6-9.4,1.9c-2.6,1.3-3.8,3.1-3.8,5.5
					c0,1.5,0.4,2.9,1.2,4.1c0.8,1.2,2.4,2.3,4.7,3.3c2.3,1,5.8,1.9,10.3,2.8c6.3,1.3,11.2,2.8,14.9,4.8c3.6,1.9,6.3,4.2,7.8,6.7
					c1.6,2.6,2.4,5.5,2.4,8.9c0,3.9-1,7.3-3.1,10.4c-2.1,3.1-5.1,5.6-9,7.4C382.7,48.4,377.7,49.3,371.8,49.3z"/>
				<path class="st13" d="M421.4,23.9c-1.8,0-3.4-0.6-4.6-1.8c-1.2-1.2-1.8-2.7-1.8-4.6v-60.3c0-1.9,0.6-3.5,1.8-4.6
					c1.2-1.2,2.7-1.8,4.6-1.8c1.9,0,3.5,0.6,4.6,1.8c1.2,1.2,1.8,2.7,1.8,4.6v60.3c0,1.8-0.6,3.4-1.8,4.6
					C424.9,23.2,423.3,23.9,421.4,23.9z M421.4,49c-1.8,0-3.4-0.6-4.6-1.8c-1.2-1.2-1.8-2.7-1.8-4.6v-56c0-1.9,0.6-3.5,1.8-4.6
					c1.2-1.2,2.7-1.8,4.6-1.8c1.9,0,3.5,0.6,4.6,1.8c1.2,1.2,1.8,2.7,1.8,4.6v56c0,1.8-0.6,3.4-1.8,4.6
					C424.9,48.4,423.3,49,421.4,49z M473,49c-1.8,0-3.4-0.6-4.6-1.8c-1.2-1.2-1.8-2.7-1.8-4.6V11.7c0-4.8-0.9-8.7-2.6-11.7
					s-4.1-5.3-7.1-6.7c-3-1.5-6.4-2.2-10.2-2.2c-3.5,0-6.7,0.7-9.5,2.1c-2.8,1.4-5.1,3.3-6.8,5.7c-1.7,2.4-2.5,5.1-2.5,8.2h-7.9
					c0-5.3,1.3-10,3.8-14.1c2.6-4.1,6-7.4,10.5-9.9c4.4-2.4,9.4-3.6,14.9-3.6c5.8,0,10.9,1.2,15.5,3.7c4.6,2.5,8.2,6.1,10.8,10.9
					c2.6,4.8,4,10.6,4,17.6v30.9c0,1.8-0.6,3.4-1.8,4.6C476.4,48.4,474.8,49,473,49z"/>
			</g>
		</g>
		<g>
			<path class="st12" d="M-392.8,51.7c-1.5,0-2.8-0.5-4-1.4c-1.2-0.9-2-2.2-2.5-3.8l-25.2-83.9c-0.8-2.8-0.8-5,0.2-6.6
				c1-1.6,2.5-2.4,4.7-2.4c1.4,0,2.7,0.4,3.9,1.2c1.2,0.8,2,2,2.5,3.7l22,76.6h-2.8l20.3-75.8c0.3-1.3,1.1-2.3,2.3-3.1
				c1.2-0.8,2.5-1.3,4-1.3c1.3,0,2.6,0.4,3.8,1.1c1.2,0.7,2,1.8,2.3,3.2l20.5,76h-2.5l22.1-77.2c0.8-2.8,3-4.3,6.4-4.3
				c2.3,0,3.8,0.9,4.5,2.7c0.7,1.8,0.7,3.9,0,6.3l-25.2,83.8c-0.6,1.6-1.4,2.9-2.6,3.8c-1.1,1-2.4,1.4-4,1.4c-1.6,0-3-0.5-4.1-1.5
				c-1.1-1-1.9-2.2-2.4-3.6l-20.2-78.1h3l-20.5,78c-0.6,1.6-1.4,2.9-2.6,3.8C-389.9,51.2-391.3,51.7-392.8,51.7z"/>
			<path class="st12" d="M-278.6,52.2c-6.9,0-13.1-1.5-18.5-4.5c-5.4-3-9.6-7.1-12.7-12.3c-3.1-5.2-4.6-11.2-4.6-18
				c0-6.9,1.4-12.9,4.3-18.1c2.9-5.2,6.9-9.3,12-12.3c5.1-3,11-4.5,17.6-4.5c6.5,0,12.1,1.4,16.8,4.3c4.7,2.9,8.3,6.9,10.7,11.9
				c2.5,5.1,3.7,10.9,3.7,17.5c0,1.6-0.5,2.9-1.6,4c-1.1,1-2.5,1.6-4.1,1.6h-50.6v-10h50.2l-5.1,3.5c-0.1-4.2-0.9-7.9-2.5-11.2
				c-1.6-3.3-3.9-5.9-6.8-7.8c-2.9-1.9-6.5-2.9-10.7-2.9c-4.8,0-8.9,1-12.2,3.1c-3.4,2.1-6,5-7.7,8.6c-1.8,3.6-2.6,7.8-2.6,12.4
				c0,4.6,1,8.7,3.1,12.3c2.1,3.6,5,6.4,8.7,8.5c3.7,2.1,7.9,3.1,12.7,3.1c2.6,0,5.3-0.5,8-1.4c2.7-1,4.9-2.1,6.6-3.3
				c1.3-0.9,2.6-1.4,4.1-1.4c1.5,0,2.7,0.4,3.8,1.3c1.4,1.3,2.2,2.6,2.3,4.1c0.1,1.5-0.6,2.8-2,3.9c-2.8,2.3-6.4,4.1-10.6,5.5
				C-270.7,51.5-274.8,52.2-278.6,52.2z"/>
			<path class="st12" d="M-206.8,52.2c-6.1,0-11.6-1.5-16.4-4.6c-4.9-3.1-8.7-7.2-11.5-12.4c-2.8-5.2-4.2-11.2-4.2-17.8
				c0-6.6,1.5-12.6,4.6-17.8c3.1-5.3,7.2-9.4,12.4-12.5c5.2-3.1,11.1-4.6,17.6-4.6s12.4,1.5,17.6,4.6c5.2,3.1,9.3,7.2,12.4,12.5
				c3.1,5.3,4.6,11.2,4.6,17.8h-4.9c0,6.6-1.4,12.5-4.2,17.8c-2.8,5.2-6.6,9.4-11.5,12.4C-195.2,50.7-200.7,52.2-206.8,52.2z
				 M-204.3,40.9c4.3,0,8.1-1,11.4-3.1c3.3-2,6-4.9,7.9-8.4c1.9-3.6,2.9-7.6,2.9-12c0-4.5-1-8.6-2.9-12.1c-1.9-3.6-4.6-6.4-7.9-8.4
				c-3.3-2.1-7.2-3.1-11.4-3.1c-4.2,0-8,1-11.4,3.1c-3.4,2.1-6.1,4.9-8,8.4c-2,3.6-3,7.6-3,12.1c0,4.4,1,8.4,3,12
				c2,3.6,4.6,6.4,8,8.4C-212.3,39.9-208.5,40.9-204.3,40.9z M-176.1,51.8c-1.8,0-3.4-0.6-4.6-1.8c-1.2-1.2-1.8-2.7-1.8-4.6V26.2
				l2.4-13.3l10.4,4.5v28c0,1.8-0.6,3.4-1.8,4.6C-172.8,51.2-174.3,51.8-176.1,51.8z"/>
			<path class="st12" d="M-153.5-3.7c-1.8,0-3.2-0.5-4.3-1.5c-1.1-1-1.6-2.3-1.6-3.8c0-1.7,0.5-3,1.6-4c1.1-1,2.5-1.5,4.3-1.5h29
				c1.8,0,3.2,0.5,4.3,1.5c1.1,1,1.6,2.3,1.6,4c0,1.5-0.5,2.8-1.6,3.8c-1.1,1-2.5,1.5-4.3,1.5H-153.5z M-125.7,51.7
				c-4.2,0-8-1.1-11.3-3.2c-3.3-2.1-6-5-7.9-8.7c-1.9-3.7-2.9-7.8-2.9-12.4v-59.9c0-1.8,0.6-3.3,1.8-4.5c1.2-1.2,2.7-1.8,4.5-1.8
				c1.8,0,3.3,0.6,4.5,1.8c1.2,1.2,1.8,2.7,1.8,4.5v59.9c0,3.3,0.9,6.2,2.8,8.4c1.8,2.3,4.1,3.4,6.8,3.4h4.3c1.5,0,2.8,0.6,3.8,1.8
				c1,1.2,1.6,2.7,1.6,4.5c0,1.8-0.7,3.3-2.1,4.5c-1.4,1.2-3.2,1.8-5.3,1.8H-125.7z"/>
			<path class="st12" d="M-93.9,26.7c-1.8,0-3.4-0.6-4.6-1.8c-1.2-1.2-1.8-2.7-1.8-4.6V-40c0-1.9,0.6-3.5,1.8-4.6
				c1.2-1.2,2.7-1.8,4.6-1.8c1.9,0,3.5,0.6,4.6,1.8c1.2,1.2,1.8,2.7,1.8,4.6v60.3c0,1.8-0.6,3.4-1.8,4.6
				C-90.4,26.1-92,26.7-93.9,26.7z M-93.9,51.8c-1.8,0-3.4-0.6-4.6-1.8c-1.2-1.2-1.8-2.7-1.8-4.6v-56c0-1.9,0.6-3.5,1.8-4.6
				c1.2-1.2,2.7-1.8,4.6-1.8c1.9,0,3.5,0.6,4.6,1.8c1.2,1.2,1.8,2.7,1.8,4.6v56c0,1.8-0.6,3.4-1.8,4.6C-90.4,51.2-92,51.8-93.9,51.8
				z M-42.3,51.8c-1.8,0-3.4-0.6-4.6-1.8c-1.2-1.2-1.8-2.7-1.8-4.6V14.5c0-4.8-0.9-8.7-2.6-11.7c-1.8-3-4.1-5.3-7.1-6.7
				c-3-1.5-6.4-2.2-10.2-2.2c-3.5,0-6.7,0.7-9.5,2.1c-2.8,1.4-5.1,3.3-6.8,5.7c-1.7,2.4-2.5,5.1-2.5,8.2h-7.9c0-5.3,1.3-10,3.8-14.1
				c2.6-4.1,6-7.4,10.5-9.9c4.4-2.4,9.4-3.6,14.9-3.6c5.8,0,10.9,1.2,15.5,3.7c4.6,2.5,8.2,6.1,10.8,10.9c2.6,4.8,4,10.6,4,17.6
				v30.9c0,1.8-0.6,3.4-1.8,4.6C-38.9,51.2-40.4,51.8-42.3,51.8z"/>
			<path class="st12" d="M17.7,52.2c-7,0-13.1-1.5-18.5-4.5c-5.4-3-9.6-7.1-12.7-12.3c-3.1-5.2-4.6-11.2-4.6-18
				c0-6.9,1.4-12.9,4.3-18.1c2.9-5.2,6.9-9.3,12-12.3c5.1-3,11-4.5,17.6-4.5c6.5,0,12.1,1.4,16.8,4.3c4.7,2.9,8.3,6.9,10.7,11.9
				c2.5,5.1,3.7,10.9,3.7,17.5c0,1.6-0.5,2.9-1.6,4c-1.1,1-2.5,1.6-4.1,1.6H-9.3v-10H41l-5.1,3.5c-0.1-4.2-0.9-7.9-2.5-11.2
				c-1.6-3.3-3.9-5.9-6.8-7.8C23.6-5.7,20-6.7,15.9-6.7c-4.8,0-8.9,1-12.2,3.1c-3.4,2.1-6,5-7.7,8.6c-1.8,3.6-2.6,7.8-2.6,12.4
				c0,4.6,1,8.7,3.1,12.3c2.1,3.6,5,6.4,8.7,8.5c3.7,2.1,7.9,3.1,12.7,3.1c2.6,0,5.3-0.5,8-1.4c2.7-1,4.9-2.1,6.6-3.3
				c1.3-0.9,2.6-1.4,4.1-1.4c1.5,0,2.7,0.4,3.8,1.3c1.4,1.3,2.2,2.6,2.3,4.1c0.1,1.5-0.6,2.8-2,3.9c-2.8,2.3-6.4,4.1-10.6,5.5
				C25.6,51.5,21.6,52.2,17.7,52.2z"/>
			<path class="st12" d="M69.7,51.7c-2,0-3.6-0.5-4.6-1.6c-1.1-1-1.6-2.6-1.6-4.7v-56.1c0-2,0.5-3.6,1.6-4.6
				c1.1-1.1,2.6-1.6,4.6-1.6c2.1,0,3.7,0.5,4.7,1.6c1,1,1.6,2.6,1.6,4.7v56.1c0,2-0.5,3.6-1.6,4.6C73.4,51.1,71.8,51.7,69.7,51.7z
				 M69.6,8.7c0-5,1.2-9.5,3.7-13.5c2.5-4,5.8-7.1,10-9.5c4.2-2.3,8.8-3.5,13.8-3.5c5,0,8.8,0.8,11.2,2.4c2.5,1.6,3.4,3.6,2.8,5.8
				c-0.3,1.2-0.7,2.1-1.4,2.7c-0.7,0.6-1.5,1-2.4,1.2c-0.9,0.2-1.9,0.1-3-0.1c-5.4-1.1-10.2-1.2-14.4-0.3C85.5-5,82.2-3.3,79.7-0.8
				C77.2,1.7,76,4.9,76,8.7H69.6z"/>
		</g>
		<g>
			<path class="st13" d="M-390.2,48.8c-1.5,0-2.8-0.5-4-1.4c-1.2-0.9-2-2.2-2.5-3.8l-25.2-83.9c-0.8-2.8-0.8-5,0.2-6.6
				c1-1.6,2.5-2.4,4.7-2.4c1.4,0,2.7,0.4,3.9,1.2c1.2,0.8,2,2,2.5,3.7l22,76.6h-2.8l20.3-75.8c0.3-1.3,1.1-2.3,2.3-3.1
				c1.2-0.8,2.5-1.3,4-1.3c1.3,0,2.6,0.4,3.8,1.1c1.2,0.7,2,1.8,2.3,3.2l20.5,76h-2.5l22.1-77.2c0.8-2.8,3-4.3,6.4-4.3
				c2.3,0,3.8,0.9,4.5,2.7c0.7,1.8,0.7,3.9,0,6.3l-25.2,83.8c-0.6,1.6-1.4,2.9-2.6,3.8c-1.1,1-2.4,1.4-4,1.4c-1.6,0-3-0.5-4.1-1.5
				c-1.1-1-1.9-2.2-2.4-3.6l-20.2-78.1h3l-20.5,78c-0.6,1.6-1.4,2.9-2.6,3.8C-387.4,48.4-388.7,48.8-390.2,48.8z"/>
			<path class="st13" d="M-276,49.3c-6.9,0-13.1-1.5-18.5-4.5c-5.4-3-9.6-7.1-12.7-12.3c-3.1-5.2-4.6-11.2-4.6-18
				c0-6.9,1.4-12.9,4.3-18.1c2.9-5.2,6.9-9.3,12-12.3c5.1-3,11-4.5,17.6-4.5c6.5,0,12.1,1.4,16.8,4.3c4.7,2.9,8.3,6.9,10.7,11.9
				c2.5,5.1,3.7,10.9,3.7,17.5c0,1.6-0.5,2.9-1.6,4c-1.1,1-2.5,1.6-4.1,1.6H-303v-10h50.2l-5.1,3.5c-0.1-4.2-0.9-7.9-2.5-11.2
				c-1.6-3.3-3.9-5.9-6.8-7.8c-2.9-1.9-6.5-2.9-10.7-2.9c-4.8,0-8.9,1-12.2,3.1c-3.4,2.1-6,5-7.7,8.6c-1.8,3.6-2.6,7.8-2.6,12.4
				c0,4.6,1,8.7,3.1,12.3c2.1,3.6,5,6.4,8.7,8.5c3.7,2.1,7.9,3.1,12.7,3.1c2.6,0,5.3-0.5,8-1.4c2.7-1,4.9-2.1,6.6-3.3
				c1.3-0.9,2.6-1.4,4.1-1.4c1.5,0,2.7,0.4,3.8,1.3c1.4,1.3,2.2,2.6,2.3,4.1c0.1,1.5-0.6,2.8-2,3.9c-2.8,2.3-6.4,4.1-10.6,5.5
				C-268.1,48.6-272.2,49.3-276,49.3z"/>
			<path class="st13" d="M-204.2,49.3c-6.1,0-11.6-1.5-16.4-4.6c-4.9-3.1-8.7-7.2-11.5-12.4c-2.8-5.2-4.2-11.2-4.2-17.8
				c0-6.6,1.5-12.6,4.6-17.8c3.1-5.3,7.2-9.4,12.4-12.5c5.2-3.1,11.1-4.6,17.6-4.6s12.4,1.5,17.6,4.6c5.2,3.1,9.3,7.2,12.4,12.5
				c3.1,5.3,4.6,11.2,4.6,17.8h-4.9c0,6.6-1.4,12.5-4.2,17.8c-2.8,5.2-6.6,9.4-11.5,12.4C-192.6,47.8-198.1,49.3-204.2,49.3z
				 M-201.7,38c4.3,0,8.1-1,11.4-3.1c3.3-2.1,6-4.9,7.9-8.4c1.9-3.6,2.9-7.6,2.9-12c0-4.5-1-8.6-2.9-12.1c-1.9-3.6-4.6-6.4-7.9-8.4
				c-3.3-2-7.2-3.1-11.4-3.1c-4.2,0-8,1-11.4,3.1c-3.4,2.1-6.1,4.9-8,8.4c-2,3.6-3,7.6-3,12.1c0,4.4,1,8.4,3,12c2,3.6,4.6,6.4,8,8.4
				C-209.7,37-205.9,38-201.7,38z M-173.6,49c-1.8,0-3.4-0.6-4.6-1.8c-1.2-1.2-1.8-2.7-1.8-4.6V23.3l2.4-13.3l10.4,4.5v28
				c0,1.8-0.6,3.4-1.8,4.6C-170.2,48.4-171.7,49-173.6,49z"/>
			<path class="st13" d="M-151-6.5c-1.8,0-3.2-0.5-4.3-1.5c-1.1-1-1.6-2.3-1.6-3.8c0-1.7,0.5-3,1.6-4c1.1-1,2.5-1.5,4.3-1.5h29
				c1.8,0,3.2,0.5,4.3,1.5c1.1,1,1.6,2.3,1.6,4c0,1.5-0.5,2.8-1.6,3.8c-1.1,1-2.5,1.5-4.3,1.5H-151z M-123.1,48.8
				c-4.2,0-8-1.1-11.3-3.2c-3.3-2.1-6-5-7.9-8.7c-1.9-3.7-2.9-7.8-2.9-12.4v-59.9c0-1.8,0.6-3.3,1.8-4.5c1.2-1.2,2.7-1.8,4.5-1.8
				c1.8,0,3.3,0.6,4.5,1.8c1.2,1.2,1.8,2.7,1.8,4.5v59.9c0,3.3,0.9,6.2,2.8,8.4c1.8,2.3,4.1,3.4,6.8,3.4h4.3c1.5,0,2.8,0.6,3.8,1.8
				c1,1.2,1.6,2.7,1.6,4.5c0,1.8-0.7,3.3-2.1,4.5c-1.4,1.2-3.2,1.8-5.3,1.8H-123.1z"/>
			<path class="st13" d="M-91.3,23.9c-1.8,0-3.4-0.6-4.6-1.8c-1.2-1.2-1.8-2.7-1.8-4.6v-60.3c0-1.9,0.6-3.5,1.8-4.6
				c1.2-1.2,2.7-1.8,4.6-1.8c1.9,0,3.5,0.6,4.6,1.8c1.2,1.2,1.8,2.7,1.8,4.6v60.3c0,1.8-0.6,3.4-1.8,4.6
				C-87.8,23.2-89.4,23.9-91.3,23.9z M-91.3,49c-1.8,0-3.4-0.6-4.6-1.8c-1.2-1.2-1.8-2.7-1.8-4.6v-56c0-1.9,0.6-3.5,1.8-4.6
				c1.2-1.2,2.7-1.8,4.6-1.8c1.9,0,3.5,0.6,4.6,1.8c1.2,1.2,1.8,2.7,1.8,4.6v56c0,1.8-0.6,3.4-1.8,4.6C-87.8,48.4-89.4,49-91.3,49z
				 M-39.7,49c-1.8,0-3.4-0.6-4.6-1.8c-1.2-1.2-1.8-2.7-1.8-4.6V11.7C-46.1,6.9-47,3-48.7,0c-1.8-3-4.1-5.3-7.1-6.7
				c-3-1.5-6.4-2.2-10.2-2.2c-3.5,0-6.7,0.7-9.5,2.1c-2.8,1.4-5.1,3.3-6.8,5.7c-1.7,2.4-2.5,5.1-2.5,8.2h-7.9c0-5.3,1.3-10,3.8-14.1
				c2.6-4.1,6-7.4,10.5-9.9c4.4-2.4,9.4-3.6,14.9-3.6c5.8,0,10.9,1.2,15.5,3.7c4.6,2.5,8.2,6.1,10.8,10.9c2.6,4.8,4,10.6,4,17.6
				v30.9c0,1.8-0.6,3.4-1.8,4.6C-36.3,48.4-37.9,49-39.7,49z"/>
			<path class="st13" d="M20.3,49.3c-7,0-13.1-1.5-18.5-4.5c-5.4-3-9.6-7.1-12.7-12.3c-3.1-5.2-4.6-11.2-4.6-18
				c0-6.9,1.4-12.9,4.3-18.1c2.9-5.2,6.9-9.3,12-12.3c5.1-3,11-4.5,17.6-4.5c6.5,0,12.1,1.4,16.8,4.3c4.7,2.9,8.3,6.9,10.7,11.9
				c2.5,5.1,3.7,10.9,3.7,17.5c0,1.6-0.5,2.9-1.6,4c-1.1,1-2.5,1.6-4.1,1.6H-6.7v-10h50.2l-5.1,3.5c-0.1-4.2-0.9-7.9-2.5-11.2
				c-1.6-3.3-3.9-5.9-6.8-7.8c-2.9-1.9-6.5-2.9-10.7-2.9c-4.8,0-8.9,1-12.2,3.1c-3.4,2.1-6,5-7.7,8.6C-3.3,5.8-4.2,10-4.2,14.6
				c0,4.6,1,8.7,3.1,12.3c2.1,3.6,5,6.4,8.7,8.5c3.7,2.1,7.9,3.1,12.7,3.1c2.6,0,5.3-0.5,8-1.4c2.7-1,4.9-2.1,6.6-3.3
				c1.3-0.9,2.6-1.4,4.1-1.4c1.5,0,2.7,0.4,3.8,1.3c1.4,1.3,2.2,2.6,2.3,4.1c0.1,1.5-0.6,2.8-2,3.9c-2.8,2.3-6.4,4.1-10.6,5.5
				C28.2,48.6,24.2,49.3,20.3,49.3z"/>
			<path class="st13" d="M72.3,48.8c-2,0-3.6-0.5-4.6-1.6c-1.1-1-1.6-2.6-1.6-4.7v-56.1c0-2,0.5-3.6,1.6-4.6
				c1.1-1.1,2.6-1.6,4.6-1.6c2.1,0,3.7,0.5,4.7,1.6c1,1,1.6,2.6,1.6,4.7v56.1c0,2-0.5,3.6-1.6,4.6C76,48.3,74.4,48.8,72.3,48.8z
				 M72.2,5.9c0-5,1.2-9.5,3.7-13.5c2.5-4,5.8-7.1,10-9.5c4.2-2.3,8.8-3.5,13.8-3.5c5,0,8.8,0.8,11.2,2.4c2.5,1.6,3.4,3.6,2.8,5.8
				c-0.3,1.2-0.7,2.1-1.4,2.7c-0.7,0.6-1.5,1-2.4,1.2c-0.9,0.2-1.9,0.1-3-0.1c-5.4-1.1-10.2-1.2-14.4-0.3c-4.3,0.9-7.6,2.6-10.1,5.1
				c-2.5,2.5-3.7,5.7-3.7,9.5H72.2z"/>
		</g>
	</g>
</g>
<g id="Cloud" class="st0">
	<path class="st14" d="M143.1,69.3c0-14.2-10.6-26.4-25.9-31.6c-1.4-18-19.9-32.2-42.6-32.2C55,5.5,38.4,16.3,33.5,30.9
		c-7.1-4.3-16-6.9-25.6-6.9C-6.3,24-19,29.6-26.7,38.3c-6.8-3.7-15-5.8-23.8-5.8c-23.6,0-42.7,15.4-42.7,34.4
		c0,16.9,15.1,31,35,33.9c7.8,8.4,20.2,13.8,34.2,13.8c3.4,0,6.6-0.3,9.8-0.9c6.4,3.1,14,4.9,22,4.9c13.8,0,26.1-5.3,33.9-13.6
		c7.6,9.4,20.8,15.6,35.7,15.6c16.8,0,31.3-7.8,38.3-19.2C131.8,96.4,143.1,83.9,143.1,69.3z"/>
	<path class="st15" d="M143.1,65.3c0-14.2-10.6-26.4-25.9-31.6c-1.4-18-19.9-32.2-42.6-32.2C55,1.5,38.4,12.3,33.5,26.9
		c-7.1-4.3-16-6.9-25.6-6.9C-6.3,20-19,25.6-26.7,34.3c-6.8-3.7-15-5.8-23.8-5.8c-23.6,0-42.7,15.4-42.7,34.4
		c0,16.9,15.1,31,35,33.9c7.8,8.4,20.2,13.8,34.2,13.8c3.4,0,6.6-0.3,9.8-0.9c6.4,3.1,14,4.9,22,4.9c13.8,0,26.1-5.3,33.9-13.6
		c7.6,9.4,20.8,15.6,35.7,15.6c16.8,0,31.3-7.8,38.3-19.2C131.8,92.4,143.1,79.9,143.1,65.3z"/>
	<path class="st14" d="M114.2,93c0-8.5-8-15.9-19.5-19c-1.1-10.8-15-19.3-32.1-19.3c-14.9,0-27.4,6.5-31.1,15.3
		c-5.4-2.6-12.1-4.2-19.3-4.2c-10.7,0-20.3,3.4-26.1,8.6c-5.1-2.2-11.3-3.5-17.9-3.5c-17.8,0-32.2,9.3-32.2,20.7
		c0,10.2,11.4,18.6,26.4,20.4c5.9,5.1,15.2,8.3,25.8,8.3c2.5,0,5-0.2,7.4-0.6c4.9,1.9,10.5,3,16.6,3c10.4,0,19.7-3.2,25.6-8.2
		c5.8,5.6,15.7,9.4,26.9,9.4c12.7,0,23.6-4.7,28.9-11.5C105.6,109.3,114.2,101.8,114.2,93z"/>
	<path class="st15" d="M104.7,86.1c0-7-7.2-13-17.4-15.6c-1-8.9-13.5-15.9-28.7-15.9c-13.3,0-24.5,5.3-27.8,12.5
		C25.9,65,20,63.7,13.5,63.7c-9.6,0-18.1,2.8-23.3,7c-4.6-1.8-10.1-2.9-16-2.9c-15.9,0-28.8,7.6-28.8,17c0,8.3,10.2,15.3,23.6,16.7
		c5.2,4.1,13.6,6.8,23.1,6.8c2.3,0,4.5-0.2,6.6-0.5c4.3,1.5,9.4,2.4,14.9,2.4c9.3,0,17.6-2.6,22.9-6.7c5.1,4.6,14,7.7,24.1,7.7
		c11.3,0,21.1-3.9,25.8-9.5C97,99.4,104.7,93.3,104.7,86.1z"/>
</g>
</svg>
