<?xml version="1.0" encoding="utf-8"?>
<!-- Generator: Adobe Illustrator 23.0.1, SVG Export Plug-In . SVG Version: 6.00 Build 0)  -->
<svg version="1.1" xmlns="http://www.w3.org/2000/svg" xmlns:xlink="http://www.w3.org/1999/xlink" x="0px" y="0px"
	 viewBox="0 0 210 210" style="enable-background:new 0 0 210 210;" xml:space="preserve">
<style type="text/css">
	.st0{display:none;}
	.st1{display:inline;fill:#49C6F4;}
	.st2{display:inline;}
	.st3{fill:#F3F7FA;}
	.st4{fill:#FFFFFF;}
	.st5{fill:#E8F5FD;}
	.st6{fill:#FFEE8D;}
	.st7{fill:#FCEA26;}
	.st8{fill:#212121;}
	.st9{fill:#708DE8;}
	.st10{fill:#0499CA;}
	.st11{fill:#CFE7F7;}
	.st12{fill:#00BDFE;}
	.st13{fill:#009CFC;}
	.st14{display:inline;fill:#E8F5FD;}
	.st15{display:inline;fill:#FFFFFF;}
</style>
<g id="background_x27_" class="st0">
	<rect x="-855" y="-435" class="st1" width="1920" height="1080"/>
	
		<image style="display:inline;overflow:visible;" width="1161" height="807" xlink:href="BA552456.jpg"  transform="matrix(1 0 0 1 -1927 -1242)">
	</image>
	
		<image style="display:inline;overflow:visible;" width="297" height="572" xlink:href="BA55245A.jpg"  transform="matrix(1 0 0 1 -1347 -357)">
	</image>
	
		<image style="display:inline;overflow:visible;" width="795" height="661" xlink:href="BA55245D.jpg"  transform="matrix(1 0 0 1 -1759 229)">
	</image>
</g>
<g id="Large_Cloud" class="st0">
	<g class="st2">
		<path class="st3" d="M360,108.4c0-29.9-22.4-55.5-54.4-66.6c-3-37.8-42-67.7-89.6-67.7c-41.5,0-76.4,22.7-86.7,53.5
			c-15-9.1-33.7-14.5-53.9-14.5c-30,0-56.5,11.9-72.8,30.1c-14.3-7.7-31.5-12.3-50-12.3c-49.6,0-89.8,32.4-89.8,72.4
			c0,35.6,31.8,65.2,73.7,71.3c16.4,17.7,42.5,29.1,72,29.1c7.1,0,14-0.7,20.6-1.9c13.5,6.6,29.4,10.4,46.4,10.4
			c29.1,0,55-11.2,71.4-28.5c16,19.7,43.7,32.8,75.1,32.8c35.3,0,65.9-16.5,80.6-40.4C336.1,165.5,360,139.2,360,108.4z"/>
		<path class="st4" d="M347.3,121.1c0-29.9-22.4-55.5-54.4-66.6c-3-37.8-42-67.7-89.6-67.7c-41.5,0-76.4,22.7-86.7,53.5
			c-15-9.1-33.7-14.5-53.9-14.5c-30,0-56.5,11.9-72.8,30.1c-14.3-7.7-31.5-12.3-50-12.3C-109.8,43.6-150,76-150,116
			c0,35.6,31.8,65.2,73.7,71.3c16.4,17.7,42.5,29.1,72,29.1c7.1,0,14-0.7,20.6-1.9c13.5,6.6,29.4,10.4,46.4,10.4
			c29.1,0,55-11.2,71.4-28.5c16,19.7,43.7,32.8,75.1,32.8c35.3,0,65.9-16.5,80.6-40.4C323.4,178.3,347.3,151.9,347.3,121.1z"/>
		<path class="st5" d="M282.1,170.9c0-18-16.9-33.4-41.1-40c-2.3-22.7-31.7-40.7-67.6-40.7c-31.3,0-57.6,13.6-65.4,32.2
			c-11.3-5.5-25.4-8.7-40.7-8.7c-22.6,0-42.6,7.1-55,18.1c-10.8-4.7-23.8-7.4-37.8-7.4c-37.4,0-67.8,19.5-67.8,43.6
			c0,21.4,24,39.2,55.6,42.9c12.4,10.6,32.1,17.5,54.3,17.5c5.3,0,10.5-0.4,15.5-1.2c10.2,4,22.2,6.3,35,6.3
			c22,0,41.5-6.7,53.9-17.2c12.1,11.9,33,19.7,56.7,19.7c26.7,0,49.7-9.9,60.8-24.3C264,205.3,282.1,189.5,282.1,170.9z"/>
		<path class="st4" d="M261.7,156.4c0-14.7-15.1-27.4-36.7-32.8c-2-18.6-28.3-33.4-60.4-33.4c-28,0-51.5,11.2-58.5,26.4
			c-10.1-4.5-22.7-7.2-36.4-7.2c-20.2,0-38.1,5.8-49.1,14.8c-9.6-3.8-21.3-6.1-33.7-6.1c-33.5,0-60.6,16-60.6,35.7
			c0,17.5,21.5,32.1,49.7,35.1c11,8.7,28.7,14.4,48.6,14.4c4.8,0,9.4-0.3,13.9-1c9.1,3.3,19.8,5.1,31.3,5.1
			c19.7,0,37.1-5.5,48.2-14.1c10.8,9.7,29.5,16.2,50.7,16.2c23.8,0,44.5-8.1,54.3-19.9C245.6,184.5,261.7,171.6,261.7,156.4z"/>
	</g>
</g>
<g id="sun">
	<polygon id="crown" class="st6" points="193.4,116.6 205,105 193.4,93.4 201.6,79.1 187.3,70.9 191.6,55 175.7,50.7 175.7,34.3 
		159.3,34.3 155,18.4 139.1,22.7 130.9,8.4 116.6,16.6 105,5 93.4,16.6 79.1,8.4 70.9,22.7 55,18.4 50.7,34.3 34.3,34.3 34.3,50.7 
		18.4,55 22.7,70.9 8.4,79.1 16.6,93.4 5,105 16.6,116.6 8.4,130.9 22.7,139.1 18.4,155 34.3,159.3 34.3,175.7 50.7,175.7 55,191.6 
		70.9,187.3 79.1,201.6 93.4,193.4 105,205 116.6,193.4 130.9,201.6 139.1,187.3 155,191.6 159.3,175.7 175.7,175.7 175.7,159.3 
		191.6,155 187.3,139.1 201.6,130.9 	"/>
	<circle id="core" class="st7" cx="105" cy="104.5" r="85.5"/>
</g>
<g id="birds" class="st0">
	<g class="st2">
		<path class="st8" d="M62.6,86.1c0,0-3.6-3.3-10.3,0.8c0,0,6.2-3.1,10.3-0.4c4.1-2.8,10.3,0.4,10.3,0.4
			C66.2,82.8,62.6,86.1,62.6,86.1z"/>
		<path class="st8" d="M94.7,93.5c0,0-3.4-1.7-7.7-1.7c-4.3,0-5.2,1.7-5.2,1.7s-2.8-1.8-5.8-1.7c-1.7,0.1-2.8,1.7-2.8,1.7
			s1.8-1.1,2.7-1c3,0.1,5.9,1.9,5.9,1.9s1.7-1.7,5.2-1.7C90.5,92.7,94.7,93.5,94.7,93.5z"/>
		<path class="st8" d="M144.3,98.7c0,0-4.6-2.3-10.3-2.3s-6.9,2.3-6.9,2.3s-3.7-2.4-7.7-2.3c-2.3,0.1-3.7,2.3-3.7,2.3
			s2.4-1.4,3.6-1.4c4,0.1,7.9,2.5,7.9,2.5s2.3-2.3,6.9-2.3S144.3,98.7,144.3,98.7z"/>
		<path class="st8" d="M129.9,124c0,0-4.6-2.3-10.3-2.3s-6.9,2.3-6.9,2.3s-3.7-2.4-7.7-2.3c-2.3,0.1-3.7,2.3-3.7,2.3
			s2.4-1.4,3.6-1.4c4,0.1,7.9,2.5,7.9,2.5s2.3-2.3,6.9-2.3C124.2,122.8,129.9,124,129.9,124z"/>
		<path class="st8" d="M43.3,98.6c0,0-3.6-1.8-8.1-1.8s-5.4,1.8-5.4,1.8s-2.9-1.9-6.1-1.8c-1.8,0.1-2.9,1.8-2.9,1.8s1.9-1.1,2.8-1.1
			c3.1,0.1,6.2,2,6.2,2s1.8-1.8,5.4-1.8S43.3,98.6,43.3,98.6z"/>
		<path class="st8" d="M86.7,109.2c0,0-4.6-2.3-10.3-2.3s-6.9,2.3-6.9,2.3s-3.7-2.4-7.7-2.3c-2.3,0.1-3.7,2.3-3.7,2.3
			s2.4-1.4,3.6-1.4c4,0.1,7.9,2.5,7.9,2.5s2.3-2.3,6.9-2.3S86.7,109.2,86.7,109.2z"/>
		<path class="st8" d="M151.2,111.9c0,0-2.5-1.2-5.6-1.2s-3.7,1.2-3.7,1.2s-2-1.3-4.2-1.2c-1.2,0-2,1.2-2,1.2s1.3-0.8,1.9-0.8
			c2.2,0.1,4.3,1.4,4.3,1.4s1.2-1.2,3.7-1.2S151.2,111.9,151.2,111.9z"/>
		<path class="st8" d="M189.1,109.7c0,0-2.5-1.2-5.6-1.2s-3.7,1.2-3.7,1.2s-2-1.3-4.2-1.2c-1.2,0-2,1.2-2,1.2s1.3-0.8,1.9-0.8
			c2.2,0.1,4.3,1.4,4.3,1.4s1.2-1.2,3.7-1.2S189.1,109.7,189.1,109.7z"/>
	</g>
</g>
<g id="plane" class="st0">
	<g class="st2">
		<path class="st9" d="M103.3,105.1c0.1,0.1,0.2,0.2,0.3,0.3c0.1,0.1,0.1,0.1,0.2,0.2c0,0,0,0,0.1,0c0.1,0.1,0.3,0.2,0.4,0.3
			c0,0,0.1,0.1,0.1,0.1c0.1,0,0.1,0.1,0.2,0.1h0c0.1,0,0.1,0.1,0.2,0.1c0.9,0.7,1.9,1.4,2.8,2.2c0.5,0.4,1,0.7,1.5,1.1
			c1.3,1,2.6,2,3.9,3c0.1,0.1,0.3,0.2,0.5,0.2c0.3,0,0.7-0.1,1-0.3c0.3-0.2,0.3-0.4,0.1-0.7c-1.3-1.6-2.5-3.1-3.8-4.7
			c-0.1-0.1-0.2-0.2-0.2-0.3c-0.2-0.2-0.3-0.4-0.5-0.6c0,0,0,0,0,0c0,0-0.1-0.1-0.1-0.1c-0.1-0.1-0.1-0.2-0.2-0.3
			c-0.1-0.1-0.1-0.2-0.2-0.3c-0.1-0.1-0.1-0.2-0.3-0.2c-1.9-0.1-3.8-0.1-5.7-0.1C103.4,105.1,103.4,105.1,103.3,105.1z"/>
		<path class="st9" d="M116.6,102c0,0.1,0.1,0.1,0.1,0.1c0.9,0.1,1.8,0.2,2.7,0.3c0.1,0,0.1,0,0.2,0c0-1.6,0.2-3.2,0.2-4.8
			c0-0.3,0-0.3-0.3-0.3c-0.1,0-0.2,0-0.3,0c-0.2,0-0.4,0.1-0.5,0.3c-0.7,1.4-1.4,2.7-2.1,4.1C116.6,101.9,116.6,101.9,116.6,102z"/>
		<path class="st9" d="M104.9,101.7c0.1,0,0.3,0,0.4,0c1.6,0,3.1,0,4.7,0.1c0.2,0,0.4,0,0.6,0c0.1,0,0.2,0,0.2-0.1
			c0.3-0.4,0.5-0.8,0.8-1.3c0.1-0.2,0.2-0.4,0.1-0.6c-0.1-0.2-0.3-0.2-0.5-0.2c-0.6,0-1.2,0.1-1.8,0.3c-1.4,0.5-2.8,1.1-4.3,1.6
			C105,101.6,105,101.7,104.9,101.7z"/>
		<path class="st9" d="M119.1,104.4c-0.1-0.3-0.1-0.6-0.2-0.8c-0.1-0.3-0.1-0.4-0.4-0.4c-0.6,0-1.2,0-1.8-0.1c-0.1,0-0.2,0-0.2,0
			c0,0.1,0,0.1,0.1,0.2c0.3,0.4,0.6,0.9,0.8,1.3c0,0,0,0,0,0c0,0,0,0,0,0.1c0.2,0.3,0.5,0.7,0.7,1c0.2,0.3,0.4,0.4,0.6,0.5
			c0.2,0,0.3,0.1,0.5,0.2c0.2,0.1,0.2,0,0.2-0.2c0-0.2-0.1-0.4-0.1-0.6c0-0.1,0-0.1,0-0.2c0,0,0-0.1,0-0.1c0,0,0-0.1,0-0.1
			c0,0,0,0,0,0c-0.1-0.1,0-0.1,0-0.2c0,0,0-0.1,0-0.1c0-0.1-0.1-0.2-0.1-0.3C119.1,104.6,119.1,104.5,119.1,104.4z"/>
		<path class="st4" d="M120.5,102.7c-0.2-0.1-0.5-0.1-0.7-0.2c-0.1,0-0.1,0-0.2-0.1c-0.1,0-0.1,0-0.2,0c-0.9-0.2-1.8-0.3-2.7-0.3
			c-0.1,0-0.2,0-0.1-0.1c-0.1,0.1-0.2,0.1-0.3,0.1c-0.6-0.1-1.3-0.1-1.9-0.1c-0.8,0-1.5-0.1-2.3-0.1c-0.3,0-0.7,0-1,0
			c-0.1,0-0.2,0-0.2-0.1c-0.1,0.1-0.1,0.1-0.2,0.1c-0.2,0-0.4,0-0.6,0c-1.6,0-3.1,0-4.7-0.1c-0.1,0-0.3,0-0.4,0c-1.3,0-2.7,0-4,0
			c-1.1,0-2.2,0-3.4,0.1c-0.7,0-1.4,0-2.2,0c-0.8,0-1.6,0.1-2.3,0.5c-0.4,0.2-0.8,0.6-1.2,0.8c0,0,0,0.1,0,0.1
			c0.3,0.2,0.5,0.2,0.8,0.1c0.3,0,0.6,0.2,0.6,0.4c0,0.3-0.2,0.4-0.6,0.4c-0.5,0-1-0.2-1.4-0.6c-0.4,0.2-0.8,0.3-1.2,0.5
			c-0.3,0.1-0.6,0.3-0.9,0.6c-0.3,0.3-0.2,0.7,0.1,0.9c0.4,0.3,0.8,0.4,1.3,0.5c0.7,0.1,1.5,0,2.2,0c1,0,2,0,3,0.1
			c0.8,0,1.6,0,2.5,0h0c1,0,2,0,3,0c0.1,0,0.1,0,0.2,0c0.6,0,1.2,0,1.8,0c0.1,0,0.1,0,0.2,0c0.4,0,0.9,0,1.3,0
			c-0.1,0-0.1-0.1-0.2-0.1c0,0-0.1-0.1-0.1-0.1c-0.1-0.1-0.3-0.2-0.4-0.3c0,0,0,0-0.1,0c-0.1-0.1-0.1-0.1-0.2-0.2
			c-0.1-0.1-0.2-0.2-0.3-0.3c0.1,0,0.1,0,0.1,0c1.9,0,3.8,0,5.7,0.1c0.1,0,0.2,0.1,0.3,0.2c0.1,0.1,0.1,0.2,0.2,0.3
			c0.1,0.1,0.1,0.2,0.2,0.3c0,0,0.1,0.1,0.1,0.1c0,0,0,0,0,0c0.1,0,0.2,0,0.3-0.1c1-0.1,1.9-0.3,2.9-0.5c1-0.2,1.9-0.4,2.9-0.6
			c0.4-0.1,0.8-0.2,1.2-0.3c-0.3-0.4-0.6-0.9-0.8-1.3c0-0.1-0.1-0.1-0.1-0.2c0-0.1,0.1-0.1,0.2,0c0.6,0,1.2,0,1.8,0.1
			c0.3,0,0.4,0.1,0.4,0.4c0.1,0.3,0.1,0.6,0.2,0.8c0-0.1,0.1-0.2,0.2-0.2c0.4,0,0.8-0.2,1.1-0.3c0.2-0.1,0.5-0.2,0.5-0.5
			C121.1,103,120.9,102.8,120.5,102.7z"/>
		<path class="st10" d="M91.2,103.6c0.4,0.4,0.9,0.6,1.4,0.6c0.4,0,0.6-0.1,0.6-0.4c0-0.3-0.3-0.5-0.6-0.4c-0.3,0-0.6,0-0.8-0.1
			C91.5,103.2,91.4,103.4,91.2,103.6z"/>
		<path class="st11" d="M117.4,104.8C117.4,104.7,117.3,104.7,117.4,104.8C117.3,104.7,117.3,104.8,117.4,104.8z"/>
		<path class="st10" d="M111.2,103.4c0,0.1,0,0.2,0,0.3c0,0.1,0.1,0.2,0.2,0.2c0.1,0,0.2-0.1,0.2-0.2c0-0.2,0-0.4,0-0.5
			c0-0.1-0.1-0.2-0.2-0.2c-0.1,0-0.2,0.1-0.2,0.2C111.2,103.3,111.2,103.3,111.2,103.4z"/>
		<path class="st10" d="M100.5,103.3c0-0.1,0-0.2,0-0.3c0-0.1-0.1-0.2-0.2-0.2c-0.1,0-0.2,0.1-0.2,0.2c0,0.2,0,0.4,0,0.6
			c0,0.1,0.1,0.2,0.2,0.2c0.1,0,0.2-0.1,0.2-0.2C100.5,103.4,100.5,103.3,100.5,103.3C100.5,103.3,100.5,103.3,100.5,103.3z"/>
		<path class="st10" d="M102.6,103.3c0,0.3,0.1,0.5,0.2,0.4c0.2,0,0.2-0.2,0.2-0.4c0-0.1,0-0.2,0-0.3c0-0.1-0.1-0.2-0.2-0.2
			c-0.1,0-0.2,0.1-0.2,0.2C102.5,103.1,102.6,103.2,102.6,103.3z"/>
		<path class="st10" d="M105,103.3c0,0.1,0,0.2,0,0.2c0,0.1,0.1,0.2,0.2,0.2c0.1,0,0.2-0.1,0.2-0.2c0-0.2,0-0.4,0-0.6
			c0-0.1-0.1-0.2-0.2-0.2c-0.1,0-0.2,0.1-0.2,0.2C105,103.2,105,103.3,105,103.3C105,103.3,105,103.3,105,103.3z"/>
		<path class="st10" d="M108.7,103.4c0,0.1,0,0.2,0,0.2c0,0.1,0.1,0.2,0.2,0.2c0.1,0,0.2-0.1,0.2-0.2c0-0.2,0-0.4,0-0.6
			c0-0.1-0.1-0.2-0.2-0.2c-0.1,0-0.2,0.1-0.2,0.2C108.7,103.2,108.7,103.3,108.7,103.4C108.7,103.4,108.7,103.4,108.7,103.4z"/>
		<path class="st10" d="M96.4,103.2c0,0.2,0,0.5,0.2,0.5c0.3,0,0.2-0.2,0.2-0.4c0-0.1,0-0.2,0-0.3c0-0.1-0.1-0.2-0.2-0.2
			c-0.1,0-0.2,0.1-0.2,0.2C96.4,103,96.4,103.1,96.4,103.2z"/>
		<path class="st10" d="M104.2,103.3c0-0.1,0-0.2,0-0.3c0-0.1-0.1-0.2-0.2-0.2c-0.1,0-0.2,0.1-0.2,0.2c0,0.2,0,0.4,0,0.5
			c0,0.1,0.1,0.2,0.2,0.2c0.1,0,0.2-0.1,0.2-0.2C104.2,103.5,104.2,103.4,104.2,103.3C104.2,103.3,104.2,103.3,104.2,103.3z"/>
		<path class="st10" d="M106.3,103.4c0,0.1,0,0.2,0,0.3c0,0.1,0.1,0.2,0.2,0.2c0.1,0,0.2,0,0.2-0.1c0.1-0.2,0.1-0.4,0-0.6
			c0-0.1-0.1-0.1-0.2-0.1c-0.1,0-0.2,0.1-0.2,0.2C106.2,103.2,106.3,103.3,106.3,103.4C106.3,103.4,106.3,103.4,106.3,103.4z"/>
		<path class="st10" d="M107.5,103.4c0,0.1,0,0.2,0,0.2c0,0.1,0.1,0.2,0.2,0.2c0.1,0,0.2-0.1,0.2-0.2c0-0.2,0-0.4,0-0.5
			c0-0.1-0.1-0.2-0.2-0.2c-0.1,0-0.2,0.1-0.2,0.2C107.5,103.2,107.5,103.3,107.5,103.4C107.5,103.4,107.5,103.4,107.5,103.4z"/>
		<path class="st10" d="M101.3,103.3c0,0.3,0.1,0.4,0.2,0.4c0.2,0,0.2-0.2,0.2-0.4c0-0.1,0-0.2,0-0.3c0-0.1-0.1-0.2-0.2-0.2
			c-0.1,0-0.2,0.1-0.2,0.2C101.3,103.1,101.3,103.2,101.3,103.3z"/>
		<path class="st10" d="M99.3,103.2c0-0.1,0-0.2,0-0.2c0-0.1-0.1-0.2-0.2-0.2c-0.1,0-0.2,0.1-0.2,0.2c0,0.2,0,0.3,0,0.5
			c0,0.1,0.1,0.2,0.2,0.2c0.1,0,0.2-0.1,0.2-0.2C99.3,103.4,99.3,103.3,99.3,103.2z"/>
		<path class="st10" d="M98.1,103.2c0-0.1,0-0.2,0-0.2c0-0.1-0.1-0.2-0.2-0.2c-0.1,0-0.2,0.1-0.2,0.2c0,0.2,0,0.4,0,0.6
			c0,0.1,0.1,0.2,0.2,0.2c0.1,0,0.2-0.1,0.2-0.2C98.1,103.4,98.1,103.3,98.1,103.2z"/>
		<path class="st10" d="M95.2,103.2c0,0.1,0,0.2,0,0.2c0,0.1,0.1,0.2,0.2,0.2c0.1,0,0.2-0.1,0.2-0.2c0-0.2,0-0.3,0-0.5
			c0-0.1-0.1-0.2-0.2-0.2c-0.1,0-0.2,0.1-0.2,0.2C95.2,103,95.2,103.1,95.2,103.2C95.2,103.2,95.2,103.2,95.2,103.2z"/>
		<path class="st10" d="M109.9,103.4c0,0.1,0,0.2,0,0.3c0,0.1,0.1,0.2,0.2,0.2c0.1,0,0.2-0.1,0.2-0.2c0-0.2,0-0.4,0-0.6
			c0-0.1-0.1-0.2-0.2-0.2c-0.1,0-0.2,0.1-0.2,0.2C109.9,103.2,110,103.3,109.9,103.4C109.9,103.4,109.9,103.4,109.9,103.4z"/>
	</g>
</g>
<g id="text" class="st0">
	<g class="st2">
		<g>
			<g>
				<path class="st12" d="M248.9,144.2c-1.8,0-3.4-0.6-4.6-1.9c-1.3-1.3-1.9-2.8-1.9-4.6v-85c0-1.9,0.6-3.5,1.9-4.7
					c1.3-1.2,2.8-1.8,4.6-1.8h22.7c7.2,0,13.8,1.2,19.7,3.6c5.9,2.4,11,5.8,15.4,10.2c4.4,4.4,7.7,9.6,10,15.5
					c2.3,5.9,3.5,12.5,3.5,19.7c0,7.2-1.2,13.8-3.5,19.8c-2.3,6-5.7,11.2-10,15.6c-4.4,4.4-9.5,7.8-15.4,10.2
					c-5.9,2.4-12.5,3.6-19.7,3.6H248.9z M255.5,132.6h16.2c7,0,13.2-1.6,18.6-4.8c5.4-3.2,9.6-7.7,12.7-13.3
					c3.1-5.7,4.6-12.1,4.6-19.4c0-7.4-1.5-13.9-4.6-19.5c-3.1-5.6-7.3-10-12.7-13.2c-5.4-3.2-11.6-4.8-18.6-4.8h-16.2V132.6z"/>
				<path class="st12" d="M368.1,144.7c-6.1,0-11.6-1.5-16.5-4.6c-4.9-3.1-8.7-7.2-11.5-12.4c-2.8-5.2-4.2-11.2-4.2-17.8
					c0-6.6,1.5-12.6,4.6-17.8c3.1-5.3,7.2-9.4,12.4-12.5c5.2-3.1,11.1-4.6,17.6-4.6s12.4,1.5,17.6,4.6c5.2,3.1,9.3,7.2,12.4,12.5
					c3.1,5.3,4.6,11.2,4.6,17.8h-4.9c0,6.6-1.4,12.5-4.2,17.8c-2.8,5.2-6.6,9.4-11.5,12.4C379.7,143.2,374.2,144.7,368.1,144.7z
					 M370.6,133.4c4.3,0,8.1-1,11.4-3.1c3.3-2,6-4.9,7.9-8.4c1.9-3.6,2.9-7.6,2.9-12c0-4.5-1-8.6-2.9-12.1c-1.9-3.6-4.6-6.4-7.9-8.4
					c-3.3-2.1-7.2-3.1-11.4-3.1c-4.2,0-8,1-11.4,3.1c-3.4,2.1-6.1,4.9-8,8.4c-2,3.6-3,7.6-3,12.1c0,4.4,1,8.4,3,12
					c2,3.6,4.6,6.4,8,8.4C362.6,132.4,366.4,133.4,370.6,133.4z M398.7,144.3c-1.8,0-3.4-0.6-4.6-1.8c-1.2-1.2-1.8-2.7-1.8-4.6
					v-19.2l2.4-13.3l10.4,4.5v28c0,1.8-0.6,3.4-1.8,4.6C402.1,143.7,400.6,144.3,398.7,144.3z"/>
				<path class="st12" d="M449.2,144.7c-5.9,0-11.3-0.9-16.3-2.7c-5-1.8-8.9-4.1-11.6-6.8c-1.3-1.3-1.8-2.9-1.6-4.6
					c0.2-1.7,1-3.1,2.4-4.2c1.7-1.3,3.3-1.9,5-1.7c1.6,0.2,3,0.9,4.2,2.2c1.4,1.6,3.7,3.1,6.8,4.5c3.1,1.4,6.6,2.1,10.5,2.1
					c4.9,0,8.6-0.8,11.1-2.4c2.6-1.6,3.9-3.6,4-6.2c0.1-2.5-1.1-4.7-3.6-6.5c-2.5-1.8-7-3.3-13.5-4.5c-8.5-1.7-14.6-4.2-18.4-7.5
					c-3.8-3.3-5.7-7.5-5.7-12.3c0-4.3,1.3-7.8,3.8-10.6c2.5-2.8,5.7-4.9,9.7-6.3c3.9-1.4,8-2.1,12.3-2.1c5.5,0,10.4,0.9,14.7,2.6
					c4.3,1.8,7.7,4.2,10.2,7.3c1.2,1.3,1.7,2.7,1.6,4.2c-0.1,1.5-0.8,2.7-2.1,3.7c-1.3,0.9-2.9,1.2-4.8,0.9
					c-1.8-0.3-3.4-1.1-4.6-2.3c-2.1-2-4.4-3.4-6.8-4.1c-2.4-0.8-5.2-1.1-8.4-1.1c-3.7,0-6.8,0.6-9.4,1.9c-2.6,1.3-3.8,3.1-3.8,5.5
					c0,1.5,0.4,2.9,1.2,4.1c0.8,1.2,2.4,2.3,4.7,3.3c2.3,1,5.8,1.9,10.3,2.8c6.3,1.3,11.2,2.8,14.9,4.8c3.6,1.9,6.3,4.2,7.8,6.7
					c1.6,2.6,2.4,5.5,2.4,8.9c0,3.9-1,7.3-3.1,10.4c-2.1,3.1-5.1,5.6-9,7.4C460.1,143.8,455.2,144.7,449.2,144.7z"/>
				<path class="st12" d="M498.8,119.2c-1.8,0-3.4-0.6-4.6-1.8c-1.2-1.2-1.8-2.7-1.8-4.6V52.5c0-1.9,0.6-3.5,1.8-4.6
					c1.2-1.2,2.7-1.8,4.6-1.8c1.9,0,3.5,0.6,4.6,1.8c1.2,1.2,1.8,2.7,1.8,4.6v60.3c0,1.8-0.6,3.4-1.8,4.6
					C502.3,118.6,500.7,119.2,498.8,119.2z M498.8,144.3c-1.8,0-3.4-0.6-4.6-1.8c-1.2-1.2-1.8-2.7-1.8-4.6v-56
					c0-1.9,0.6-3.5,1.8-4.6c1.2-1.2,2.7-1.8,4.6-1.8c1.9,0,3.5,0.6,4.6,1.8c1.2,1.2,1.8,2.7,1.8,4.6v56c0,1.8-0.6,3.4-1.8,4.6
					C502.3,143.7,500.7,144.3,498.8,144.3z M550.4,144.3c-1.8,0-3.4-0.6-4.6-1.8c-1.2-1.2-1.8-2.7-1.8-4.6V107
					c0-4.8-0.9-8.7-2.6-11.7s-4.1-5.3-7.1-6.7c-3-1.5-6.4-2.2-10.2-2.2c-3.5,0-6.7,0.7-9.5,2.1c-2.8,1.4-5.1,3.3-6.8,5.7
					c-1.7,2.4-2.5,5.1-2.5,8.2h-7.9c0-5.3,1.3-10,3.8-14.1c2.6-4.1,6-7.4,10.5-9.9c4.4-2.4,9.4-3.6,14.9-3.6
					c5.8,0,10.9,1.2,15.5,3.7c4.6,2.5,8.2,6.1,10.8,10.9c2.6,4.8,4,10.6,4,17.6v30.9c0,1.8-0.6,3.4-1.8,4.6
					C553.8,143.7,552.3,144.3,550.4,144.3z"/>
			</g>
			<g>
				<path class="st13" d="M251.5,141.3c-1.8,0-3.4-0.6-4.6-1.9s-1.9-2.8-1.9-4.6v-85c0-1.9,0.6-3.5,1.9-4.7c1.3-1.2,2.8-1.8,4.6-1.8
					h22.7c7.2,0,13.8,1.2,19.7,3.6c5.9,2.4,11,5.8,15.4,10.2c4.4,4.4,7.7,9.6,10,15.5c2.3,5.9,3.5,12.5,3.5,19.7
					c0,7.2-1.2,13.8-3.5,19.8c-2.3,6-5.7,11.2-10,15.6c-4.4,4.4-9.5,7.8-15.4,10.2c-5.9,2.4-12.5,3.6-19.7,3.6H251.5z M258,129.8
					h16.2c7,0,13.2-1.6,18.6-4.8c5.4-3.2,9.6-7.7,12.7-13.3c3.1-5.7,4.6-12.1,4.6-19.4c0-7.4-1.5-13.9-4.6-19.5
					c-3.1-5.6-7.3-10-12.7-13.2c-5.4-3.2-11.6-4.8-18.6-4.8H258V129.8z"/>
				<path class="st13" d="M370.7,141.8c-6.1,0-11.6-1.5-16.5-4.6c-4.9-3.1-8.7-7.2-11.5-12.4c-2.8-5.2-4.2-11.2-4.2-17.8
					c0-6.6,1.5-12.6,4.6-17.8c3.1-5.3,7.2-9.4,12.4-12.5c5.2-3.1,11.1-4.6,17.6-4.6s12.4,1.5,17.6,4.6c5.2,3.1,9.3,7.2,12.4,12.5
					c3.1,5.3,4.6,11.2,4.6,17.8h-4.9c0,6.6-1.4,12.5-4.2,17.8c-2.8,5.2-6.6,9.4-11.5,12.4C382.3,140.3,376.8,141.8,370.7,141.8z
					 M373.2,130.5c4.3,0,8.1-1,11.4-3.1c3.3-2.1,6-4.9,7.9-8.4c1.9-3.6,2.9-7.6,2.9-12c0-4.5-1-8.6-2.9-12.1
					c-1.9-3.6-4.6-6.4-7.9-8.4c-3.3-2-7.2-3.1-11.4-3.1c-4.2,0-8,1-11.4,3.1c-3.4,2.1-6.1,4.9-8,8.4c-2,3.6-3,7.6-3,12.1
					c0,4.4,1,8.4,3,12c2,3.6,4.6,6.4,8,8.4C365.2,129.5,369,130.5,373.2,130.5z M401.3,141.5c-1.8,0-3.4-0.6-4.6-1.8
					c-1.2-1.2-1.8-2.7-1.8-4.6v-19.2l2.4-13.3l10.4,4.5v28c0,1.8-0.6,3.4-1.8,4.6C404.7,140.9,403.2,141.5,401.3,141.5z"/>
				<path class="st13" d="M451.8,141.8c-5.9,0-11.3-0.9-16.3-2.7c-5-1.8-8.9-4.1-11.6-6.8c-1.3-1.3-1.8-2.9-1.6-4.6
					c0.2-1.7,1-3.1,2.4-4.2c1.7-1.3,3.3-1.9,5-1.7c1.6,0.2,3,0.9,4.2,2.2c1.4,1.6,3.7,3.1,6.8,4.5c3.1,1.4,6.6,2.1,10.5,2.1
					c4.9,0,8.6-0.8,11.1-2.4c2.6-1.6,3.9-3.6,4-6.2c0.1-2.5-1.1-4.7-3.6-6.5c-2.5-1.8-7-3.3-13.5-4.5c-8.5-1.7-14.6-4.2-18.4-7.5
					c-3.8-3.3-5.7-7.4-5.7-12.3c0-4.3,1.3-7.8,3.8-10.6c2.5-2.8,5.7-4.9,9.7-6.3c3.9-1.4,8-2.1,12.3-2.1c5.5,0,10.4,0.9,14.7,2.6
					c4.3,1.8,7.7,4.2,10.2,7.3c1.2,1.3,1.7,2.7,1.6,4.2c-0.1,1.5-0.8,2.7-2.1,3.7c-1.3,0.9-2.9,1.2-4.8,0.9
					c-1.8-0.3-3.4-1.1-4.6-2.3c-2.1-2-4.4-3.4-6.8-4.1c-2.4-0.8-5.2-1.1-8.4-1.1c-3.7,0-6.8,0.6-9.4,1.9c-2.6,1.3-3.8,3.1-3.8,5.5
					c0,1.5,0.4,2.9,1.2,4.1c0.8,1.2,2.4,2.3,4.7,3.3c2.3,1,5.8,1.9,10.3,2.8c6.3,1.3,11.2,2.8,14.9,4.8c3.6,1.9,6.3,4.2,7.8,6.7
					c1.6,2.6,2.4,5.5,2.4,8.9c0,3.9-1,7.3-3.1,10.4c-2.1,3.1-5.1,5.6-9,7.4C462.7,140.9,457.7,141.8,451.8,141.8z"/>
				<path class="st13" d="M501.4,116.4c-1.8,0-3.4-0.6-4.6-1.8c-1.2-1.2-1.8-2.7-1.8-4.6V49.7c0-1.9,0.6-3.5,1.8-4.6
					c1.2-1.2,2.7-1.8,4.6-1.8c1.9,0,3.5,0.6,4.6,1.8c1.2,1.2,1.8,2.7,1.8,4.6v60.3c0,1.8-0.6,3.4-1.8,4.6
					C504.9,115.7,503.3,116.4,501.4,116.4z M501.4,141.5c-1.8,0-3.4-0.6-4.6-1.8c-1.2-1.2-1.8-2.7-1.8-4.6v-56
					c0-1.9,0.6-3.5,1.8-4.6c1.2-1.2,2.7-1.8,4.6-1.8c1.9,0,3.5,0.6,4.6,1.8c1.2,1.2,1.8,2.7,1.8,4.6v56c0,1.8-0.6,3.4-1.8,4.6
					C504.9,140.9,503.3,141.5,501.4,141.5z M553,141.5c-1.8,0-3.4-0.6-4.6-1.8c-1.2-1.2-1.8-2.7-1.8-4.6v-30.9
					c0-4.8-0.9-8.7-2.6-11.7s-4.1-5.3-7.1-6.7c-3-1.5-6.4-2.2-10.2-2.2c-3.5,0-6.7,0.7-9.5,2.1c-2.8,1.4-5.1,3.3-6.8,5.7
					c-1.7,2.4-2.5,5.1-2.5,8.2h-7.9c0-5.3,1.3-10,3.8-14.1c2.6-4.1,6-7.4,10.5-9.9c4.4-2.4,9.4-3.6,14.9-3.6
					c5.8,0,10.9,1.2,15.5,3.7c4.6,2.5,8.2,6.1,10.8,10.9c2.6,4.8,4,10.6,4,17.6v30.9c0,1.8-0.6,3.4-1.8,4.6
					C556.4,140.9,554.8,141.5,553,141.5z"/>
			</g>
		</g>
		<g>
			<path class="st12" d="M-312.8,144.2c-1.5,0-2.8-0.5-4-1.4c-1.2-0.9-2-2.2-2.5-3.8l-25.2-83.9c-0.8-2.8-0.8-5,0.2-6.6
				c1-1.6,2.5-2.4,4.7-2.4c1.4,0,2.7,0.4,3.9,1.2c1.2,0.8,2,2,2.5,3.7l22,76.6h-2.8l20.3-75.8c0.3-1.3,1.1-2.3,2.3-3.1
				c1.2-0.8,2.5-1.3,4-1.3c1.3,0,2.6,0.4,3.8,1.1c1.2,0.7,2,1.8,2.3,3.2l20.5,76h-2.5l22.1-77.2c0.8-2.8,3-4.3,6.4-4.3
				c2.3,0,3.8,0.9,4.5,2.7c0.7,1.8,0.7,3.9,0,6.3l-25.2,83.8c-0.6,1.6-1.4,2.9-2.6,3.8c-1.1,1-2.4,1.4-4,1.4c-1.6,0-3-0.5-4.1-1.5
				c-1.1-1-1.9-2.2-2.4-3.6l-20.2-78.1h3l-20.5,78c-0.6,1.6-1.4,2.9-2.6,3.8C-309.9,143.7-311.3,144.2-312.8,144.2z"/>
			<path class="st12" d="M-198.6,144.7c-6.9,0-13.1-1.5-18.5-4.5c-5.4-3-9.6-7.1-12.7-12.3c-3.1-5.2-4.6-11.2-4.6-18
				c0-6.9,1.4-12.9,4.3-18.1c2.9-5.2,6.9-9.3,12-12.3c5.1-3,11-4.5,17.6-4.5c6.5,0,12.1,1.4,16.8,4.3c4.7,2.9,8.3,6.9,10.7,11.9
				c2.5,5.1,3.7,10.9,3.7,17.5c0,1.6-0.5,2.9-1.6,4c-1.1,1-2.5,1.6-4.1,1.6h-50.6v-10h50.2l-5.1,3.5c-0.1-4.2-0.9-7.9-2.5-11.2
				c-1.6-3.3-3.9-5.9-6.8-7.8c-2.9-1.9-6.5-2.9-10.7-2.9c-4.8,0-8.9,1-12.2,3.1c-3.4,2.1-6,5-7.7,8.6c-1.8,3.6-2.6,7.8-2.6,12.4
				c0,4.6,1,8.7,3.1,12.3c2.1,3.6,5,6.4,8.7,8.5c3.7,2.1,7.9,3.1,12.7,3.1c2.6,0,5.3-0.5,8-1.4c2.7-1,4.9-2.1,6.6-3.3
				c1.3-0.9,2.6-1.4,4.1-1.4c1.5,0,2.7,0.4,3.8,1.3c1.4,1.3,2.2,2.6,2.3,4.1c0.1,1.5-0.6,2.8-2,3.9c-2.8,2.3-6.4,4.1-10.6,5.5
				C-190.7,144-194.8,144.7-198.6,144.7z"/>
			<path class="st12" d="M-126.8,144.7c-6.1,0-11.6-1.5-16.4-4.6c-4.9-3.1-8.7-7.2-11.5-12.4c-2.8-5.2-4.2-11.2-4.2-17.8
				c0-6.6,1.5-12.6,4.6-17.8c3.1-5.3,7.2-9.4,12.4-12.5c5.2-3.1,11.1-4.6,17.6-4.6s12.4,1.5,17.6,4.6c5.2,3.1,9.3,7.2,12.4,12.5
				c3.1,5.3,4.6,11.2,4.6,17.8h-4.9c0,6.6-1.4,12.5-4.2,17.8c-2.8,5.2-6.6,9.4-11.5,12.4C-115.2,143.2-120.7,144.7-126.8,144.7z
				 M-124.3,133.4c4.3,0,8.1-1,11.4-3.1c3.3-2,6-4.9,7.9-8.4c1.9-3.6,2.9-7.6,2.9-12c0-4.5-1-8.6-2.9-12.1c-1.9-3.6-4.6-6.4-7.9-8.4
				c-3.3-2.1-7.2-3.1-11.4-3.1c-4.2,0-8,1-11.4,3.1c-3.4,2.1-6.1,4.9-8,8.4c-2,3.6-3,7.6-3,12.1c0,4.4,1,8.4,3,12
				c2,3.6,4.6,6.4,8,8.4C-132.3,132.4-128.5,133.4-124.3,133.4z M-96.1,144.3c-1.8,0-3.4-0.6-4.6-1.8c-1.2-1.2-1.8-2.7-1.8-4.6
				v-19.2l2.4-13.3l10.4,4.5v28c0,1.8-0.6,3.4-1.8,4.6C-92.8,143.7-94.3,144.3-96.1,144.3z"/>
			<path class="st12" d="M-73.5,88.8c-1.8,0-3.2-0.5-4.3-1.5c-1.1-1-1.6-2.3-1.6-3.8c0-1.7,0.5-3,1.6-4c1.1-1,2.5-1.5,4.3-1.5h29
				c1.8,0,3.2,0.5,4.3,1.5c1.1,1,1.6,2.3,1.6,4c0,1.5-0.5,2.8-1.6,3.8c-1.1,1-2.5,1.5-4.3,1.5H-73.5z M-45.7,144.2
				c-4.2,0-8-1.1-11.3-3.2c-3.3-2.1-6-5-7.9-8.7c-1.9-3.7-2.9-7.8-2.9-12.4V59.9c0-1.8,0.6-3.3,1.8-4.5c1.2-1.2,2.7-1.8,4.5-1.8
				c1.8,0,3.3,0.6,4.5,1.8c1.2,1.2,1.8,2.7,1.8,4.5v59.9c0,3.3,0.9,6.2,2.8,8.4c1.8,2.3,4.1,3.4,6.8,3.4h4.3c1.5,0,2.8,0.6,3.8,1.8
				c1,1.2,1.6,2.7,1.6,4.5c0,1.8-0.7,3.3-2.1,4.5c-1.4,1.2-3.2,1.8-5.3,1.8H-45.7z"/>
			<path class="st12" d="M-13.9,119.2c-1.8,0-3.4-0.6-4.6-1.8c-1.2-1.2-1.8-2.7-1.8-4.6V52.5c0-1.9,0.6-3.5,1.8-4.6
				c1.2-1.2,2.7-1.8,4.6-1.8c1.9,0,3.5,0.6,4.6,1.8c1.2,1.2,1.8,2.7,1.8,4.6v60.3c0,1.8-0.6,3.4-1.8,4.6
				C-10.4,118.6-12,119.2-13.9,119.2z M-13.9,144.3c-1.8,0-3.4-0.6-4.6-1.8c-1.2-1.2-1.8-2.7-1.8-4.6v-56c0-1.9,0.6-3.5,1.8-4.6
				c1.2-1.2,2.7-1.8,4.6-1.8c1.9,0,3.5,0.6,4.6,1.8c1.2,1.2,1.8,2.7,1.8,4.6v56c0,1.8-0.6,3.4-1.8,4.6
				C-10.4,143.7-12,144.3-13.9,144.3z M37.7,144.3c-1.8,0-3.4-0.6-4.6-1.8c-1.2-1.2-1.8-2.7-1.8-4.6V107c0-4.8-0.9-8.7-2.6-11.7
				c-1.8-3-4.1-5.3-7.1-6.7c-3-1.5-6.4-2.2-10.2-2.2c-3.5,0-6.7,0.7-9.5,2.1C-1.1,90-3.3,91.9-5,94.3c-1.7,2.4-2.5,5.1-2.5,8.2h-7.9
				c0-5.3,1.3-10,3.8-14.1c2.6-4.1,6-7.4,10.5-9.9c4.4-2.4,9.4-3.6,14.9-3.6c5.8,0,10.9,1.2,15.5,3.7c4.6,2.5,8.2,6.1,10.8,10.9
				c2.6,4.8,4,10.6,4,17.6v30.9c0,1.8-0.6,3.4-1.8,4.6C41.1,143.7,39.6,144.3,37.7,144.3z"/>
			<path class="st12" d="M97.7,144.7c-7,0-13.1-1.5-18.5-4.5c-5.4-3-9.6-7.1-12.7-12.3c-3.1-5.2-4.6-11.2-4.6-18
				c0-6.9,1.4-12.9,4.3-18.1c2.9-5.2,6.9-9.3,12-12.3c5.1-3,11-4.5,17.6-4.5c6.5,0,12.1,1.4,16.8,4.3c4.7,2.9,8.3,6.9,10.7,11.9
				c2.5,5.1,3.7,10.9,3.7,17.5c0,1.6-0.5,2.9-1.6,4c-1.1,1-2.5,1.6-4.1,1.6H70.7v-10H121l-5.1,3.5c-0.1-4.2-0.9-7.9-2.5-11.2
				c-1.6-3.3-3.9-5.9-6.8-7.8c-2.9-1.9-6.5-2.9-10.7-2.9c-4.8,0-8.9,1-12.2,3.1c-3.4,2.1-6,5-7.7,8.6c-1.8,3.6-2.6,7.8-2.6,12.4
				c0,4.6,1,8.7,3.1,12.3c2.1,3.6,5,6.4,8.7,8.5c3.7,2.1,7.9,3.1,12.7,3.1c2.6,0,5.3-0.5,8-1.4c2.7-1,4.9-2.1,6.6-3.3
				c1.3-0.9,2.6-1.4,4.1-1.4c1.5,0,2.7,0.4,3.8,1.3c1.4,1.3,2.2,2.6,2.3,4.1c0.1,1.5-0.6,2.8-2,3.9c-2.8,2.3-6.4,4.1-10.6,5.5
				C105.6,144,101.6,144.7,97.7,144.7z"/>
			<path class="st12" d="M149.7,144.2c-2,0-3.6-0.5-4.6-1.6c-1.1-1-1.6-2.6-1.6-4.7V81.8c0-2,0.5-3.6,1.6-4.6
				c1.1-1.1,2.6-1.6,4.6-1.6c2.1,0,3.7,0.5,4.7,1.6c1,1,1.6,2.6,1.6,4.7v56.1c0,2-0.5,3.6-1.6,4.6
				C153.4,143.6,151.8,144.2,149.7,144.2z M149.6,101.2c0-5,1.2-9.5,3.7-13.5c2.5-4,5.8-7.1,10-9.5c4.2-2.3,8.8-3.5,13.8-3.5
				c5,0,8.8,0.8,11.2,2.4c2.5,1.6,3.4,3.6,2.8,5.8c-0.3,1.2-0.7,2.1-1.4,2.7c-0.7,0.6-1.5,1-2.4,1.2c-0.9,0.2-1.9,0.1-3-0.1
				c-5.4-1.1-10.2-1.2-14.4-0.3c-4.3,0.9-7.6,2.6-10.1,5.1c-2.5,2.5-3.7,5.7-3.7,9.5H149.6z"/>
		</g>
		<g>
			<path class="st13" d="M-310.2,141.3c-1.5,0-2.8-0.5-4-1.4c-1.2-0.9-2-2.2-2.5-3.8l-25.2-83.9c-0.8-2.8-0.8-5,0.2-6.6
				c1-1.6,2.5-2.4,4.7-2.4c1.4,0,2.7,0.4,3.9,1.2c1.2,0.8,2,2,2.5,3.7l22,76.6h-2.8l20.3-75.8c0.3-1.3,1.1-2.3,2.3-3.1
				c1.2-0.8,2.5-1.3,4-1.3c1.3,0,2.6,0.4,3.8,1.1c1.2,0.7,2,1.8,2.3,3.2l20.5,76h-2.5l22.1-77.2c0.8-2.8,3-4.3,6.4-4.3
				c2.3,0,3.8,0.9,4.5,2.7c0.7,1.8,0.7,3.9,0,6.3l-25.2,83.8c-0.6,1.6-1.4,2.9-2.6,3.8c-1.1,1-2.4,1.4-4,1.4c-1.6,0-3-0.5-4.1-1.5
				c-1.1-1-1.9-2.2-2.4-3.6l-20.2-78.1h3l-20.5,78c-0.6,1.6-1.4,2.9-2.6,3.8C-307.4,140.9-308.7,141.3-310.2,141.3z"/>
			<path class="st13" d="M-196,141.8c-6.9,0-13.1-1.5-18.5-4.5c-5.4-3-9.6-7.1-12.7-12.3c-3.1-5.2-4.6-11.2-4.6-18
				c0-6.9,1.4-12.9,4.3-18.1c2.9-5.2,6.9-9.3,12-12.3c5.1-3,11-4.5,17.6-4.5c6.5,0,12.1,1.4,16.8,4.3c4.7,2.9,8.3,6.9,10.7,11.9
				c2.5,5.1,3.7,10.9,3.7,17.5c0,1.6-0.5,2.9-1.6,4c-1.1,1-2.5,1.6-4.1,1.6H-223v-10h50.2l-5.1,3.5c-0.1-4.2-0.9-7.9-2.5-11.2
				c-1.6-3.3-3.9-5.9-6.8-7.8c-2.9-1.9-6.5-2.9-10.7-2.9c-4.8,0-8.9,1-12.2,3.1c-3.4,2.1-6,5-7.7,8.6c-1.8,3.6-2.6,7.8-2.6,12.4
				c0,4.6,1,8.7,3.1,12.3c2.1,3.6,5,6.4,8.7,8.5c3.7,2.1,7.9,3.1,12.7,3.1c2.6,0,5.3-0.5,8-1.4c2.7-1,4.9-2.1,6.6-3.3
				c1.3-0.9,2.6-1.4,4.1-1.4c1.5,0,2.7,0.4,3.8,1.3c1.4,1.3,2.2,2.6,2.3,4.1c0.1,1.5-0.6,2.8-2,3.9c-2.8,2.3-6.4,4.1-10.6,5.5
				C-188.1,141.1-192.2,141.8-196,141.8z"/>
			<path class="st13" d="M-124.2,141.8c-6.1,0-11.6-1.5-16.4-4.6c-4.9-3.1-8.7-7.2-11.5-12.4c-2.8-5.2-4.2-11.2-4.2-17.8
				c0-6.6,1.5-12.6,4.6-17.8c3.1-5.3,7.2-9.4,12.4-12.5c5.2-3.1,11.1-4.6,17.6-4.6s12.4,1.5,17.6,4.6c5.2,3.1,9.3,7.2,12.4,12.5
				c3.1,5.3,4.6,11.2,4.6,17.8h-4.9c0,6.6-1.4,12.5-4.2,17.8c-2.8,5.2-6.6,9.4-11.5,12.4C-112.6,140.3-118.1,141.8-124.2,141.8z
				 M-121.7,130.5c4.3,0,8.1-1,11.4-3.1c3.3-2.1,6-4.9,7.9-8.4c1.9-3.6,2.9-7.6,2.9-12c0-4.5-1-8.6-2.9-12.1
				c-1.9-3.6-4.6-6.4-7.9-8.4c-3.3-2-7.2-3.1-11.4-3.1c-4.2,0-8,1-11.4,3.1c-3.4,2.1-6.1,4.9-8,8.4c-2,3.6-3,7.6-3,12.1
				c0,4.4,1,8.4,3,12c2,3.6,4.6,6.4,8,8.4C-129.7,129.5-125.9,130.5-121.7,130.5z M-93.6,141.5c-1.8,0-3.4-0.6-4.6-1.8
				c-1.2-1.2-1.8-2.7-1.8-4.6v-19.2l2.4-13.3l10.4,4.5v28c0,1.8-0.6,3.4-1.8,4.6C-90.2,140.9-91.7,141.5-93.6,141.5z"/>
			<path class="st13" d="M-71,86c-1.8,0-3.2-0.5-4.3-1.5c-1.1-1-1.6-2.3-1.6-3.8c0-1.7,0.5-3,1.6-4c1.1-1,2.5-1.5,4.3-1.5h29
				c1.8,0,3.2,0.5,4.3,1.5c1.1,1,1.6,2.3,1.6,4c0,1.5-0.5,2.8-1.6,3.8c-1.1,1-2.5,1.5-4.3,1.5H-71z M-43.1,141.3
				c-4.2,0-8-1.1-11.3-3.2c-3.3-2.1-6-5-7.9-8.7c-1.9-3.7-2.9-7.8-2.9-12.4V57.1c0-1.8,0.6-3.3,1.8-4.5c1.2-1.2,2.7-1.8,4.5-1.8
				c1.8,0,3.3,0.6,4.5,1.8c1.2,1.2,1.8,2.7,1.8,4.5V117c0,3.3,0.9,6.2,2.8,8.4c1.8,2.3,4.1,3.4,6.8,3.4h4.3c1.5,0,2.8,0.6,3.8,1.8
				c1,1.2,1.6,2.7,1.6,4.5c0,1.8-0.7,3.3-2.1,4.5c-1.4,1.2-3.2,1.8-5.3,1.8H-43.1z"/>
			<path class="st13" d="M-11.3,116.4c-1.8,0-3.4-0.6-4.6-1.8c-1.2-1.2-1.8-2.7-1.8-4.6V49.7c0-1.9,0.6-3.5,1.8-4.6
				c1.2-1.2,2.7-1.8,4.6-1.8c1.9,0,3.5,0.6,4.6,1.8c1.2,1.2,1.8,2.7,1.8,4.6v60.3c0,1.8-0.6,3.4-1.8,4.6
				C-7.8,115.7-9.4,116.4-11.3,116.4z M-11.3,141.5c-1.8,0-3.4-0.6-4.6-1.8c-1.2-1.2-1.8-2.7-1.8-4.6v-56c0-1.9,0.6-3.5,1.8-4.6
				c1.2-1.2,2.7-1.8,4.6-1.8c1.9,0,3.5,0.6,4.6,1.8c1.2,1.2,1.8,2.7,1.8,4.6v56c0,1.8-0.6,3.4-1.8,4.6
				C-7.8,140.9-9.4,141.5-11.3,141.5z M40.3,141.5c-1.8,0-3.4-0.6-4.6-1.8c-1.2-1.2-1.8-2.7-1.8-4.6v-30.9c0-4.8-0.9-8.7-2.6-11.7
				c-1.8-3-4.1-5.3-7.1-6.7c-3-1.5-6.4-2.2-10.2-2.2c-3.5,0-6.7,0.7-9.5,2.1c-2.8,1.4-5.1,3.3-6.8,5.7c-1.7,2.4-2.5,5.1-2.5,8.2
				h-7.9c0-5.3,1.3-10,3.8-14.1c2.6-4.1,6-7.4,10.5-9.9c4.4-2.4,9.4-3.6,14.9-3.6c5.8,0,10.9,1.2,15.5,3.7
				c4.6,2.5,8.2,6.1,10.8,10.9c2.6,4.8,4,10.6,4,17.6v30.9c0,1.8-0.6,3.4-1.8,4.6C43.7,140.9,42.1,141.5,40.3,141.5z"/>
			<path class="st13" d="M100.3,141.8c-7,0-13.1-1.5-18.5-4.5c-5.4-3-9.6-7.1-12.7-12.3c-3.1-5.2-4.6-11.2-4.6-18
				c0-6.9,1.4-12.9,4.3-18.1c2.9-5.2,6.9-9.3,12-12.3c5.1-3,11-4.5,17.6-4.5c6.5,0,12.1,1.4,16.8,4.3c4.7,2.9,8.3,6.9,10.7,11.9
				c2.5,5.1,3.7,10.9,3.7,17.5c0,1.6-0.5,2.9-1.6,4c-1.1,1-2.5,1.6-4.1,1.6H73.3v-10h50.2l-5.1,3.5c-0.1-4.2-0.9-7.9-2.5-11.2
				c-1.6-3.3-3.9-5.9-6.8-7.8c-2.9-1.9-6.5-2.9-10.7-2.9c-4.8,0-8.9,1-12.2,3.1c-3.4,2.1-6,5-7.7,8.6c-1.8,3.6-2.6,7.8-2.6,12.4
				c0,4.6,1,8.7,3.1,12.3c2.1,3.6,5,6.4,8.7,8.5c3.7,2.1,7.9,3.1,12.7,3.1c2.6,0,5.3-0.5,8-1.4c2.7-1,4.9-2.1,6.6-3.3
				c1.3-0.9,2.6-1.4,4.1-1.4c1.5,0,2.7,0.4,3.8,1.3c1.4,1.3,2.2,2.6,2.3,4.1c0.1,1.5-0.6,2.8-2,3.9c-2.8,2.3-6.4,4.1-10.6,5.5
				C108.2,141.1,104.2,141.8,100.3,141.8z"/>
			<path class="st13" d="M152.3,141.3c-2,0-3.6-0.5-4.6-1.6c-1.1-1-1.6-2.6-1.6-4.7V78.9c0-2,0.5-3.6,1.6-4.6
				c1.1-1.1,2.6-1.6,4.6-1.6c2.1,0,3.7,0.5,4.7,1.6c1,1,1.6,2.6,1.6,4.7v56.1c0,2-0.5,3.6-1.6,4.6
				C156,140.8,154.4,141.3,152.3,141.3z M152.2,98.4c0-5,1.2-9.5,3.7-13.5c2.5-4,5.8-7.1,10-9.5c4.2-2.3,8.8-3.5,13.8-3.5
				c5,0,8.8,0.8,11.2,2.4c2.5,1.6,3.4,3.6,2.8,5.8c-0.3,1.2-0.7,2.1-1.4,2.7c-0.7,0.6-1.5,1-2.4,1.2c-0.9,0.2-1.9,0.1-3-0.1
				c-5.4-1.1-10.2-1.2-14.4-0.3c-4.3,0.9-7.6,2.6-10.1,5.1c-2.5,2.5-3.7,5.7-3.7,9.5H152.2z"/>
		</g>
	</g>
</g>
<g id="Cloud" class="st0">
	<g>
		<path class="st14" d="M223.1,111.6c0-14.2-10.6-26.4-25.9-31.6c-1.4-18-19.9-32.2-42.6-32.2c-19.7,0-36.3,10.8-41.2,25.4
			c-7.1-4.3-16-6.9-25.6-6.9C73.7,66.3,61,72,53.3,80.6c-6.8-3.7-15-5.8-23.8-5.8c-23.6,0-42.7,15.4-42.7,34.4
			c0,16.9,15.1,31,35,33.9c7.8,8.4,20.2,13.8,34.2,13.8c3.4,0,6.6-0.3,9.8-0.9c6.4,3.1,14,4.9,22,4.9c13.8,0,26.1-5.3,33.9-13.6
			c7.6,9.4,20.8,15.6,35.7,15.6c16.8,0,31.3-7.8,38.3-19.2C211.8,138.8,223.1,126.3,223.1,111.6z"/>
		<path class="st15" d="M223.1,107.6c0-14.2-10.6-26.4-25.9-31.6c-1.4-18-19.9-32.2-42.6-32.2c-19.7,0-36.3,10.8-41.2,25.4
			c-7.1-4.3-16-6.9-25.6-6.9C73.7,62.3,61,68,53.3,76.6c-6.8-3.7-15-5.8-23.8-5.8c-23.6,0-42.7,15.4-42.7,34.4
			c0,16.9,15.1,31,35,33.9c7.8,8.4,20.2,13.8,34.2,13.8c3.4,0,6.6-0.3,9.8-0.9c6.4,3.1,14,4.9,22,4.9c13.8,0,26.1-5.3,33.9-13.6
			c7.6,9.4,20.8,15.6,35.7,15.6c16.8,0,31.3-7.8,38.3-19.2C211.8,134.8,223.1,122.3,223.1,107.6z"/>
		<path class="st14" d="M194.2,135.3c0-8.5-8-15.9-19.5-19c-1.1-10.8-15-19.3-32.1-19.3c-14.9,0-27.4,6.5-31.1,15.3
			c-5.4-2.6-12.1-4.2-19.3-4.2c-10.7,0-20.3,3.4-26.1,8.6c-5.1-2.2-11.3-3.5-17.9-3.5c-17.8,0-32.2,9.3-32.2,20.7
			c0,10.2,11.4,18.6,26.4,20.4c5.9,5.1,15.2,8.3,25.8,8.3c2.5,0,5-0.2,7.4-0.6c4.9,1.9,10.5,3,16.6,3c10.4,0,19.7-3.2,25.6-8.2
			c5.8,5.6,15.7,9.4,26.9,9.4c12.7,0,23.6-4.7,28.9-11.5C185.6,151.6,194.2,144.1,194.2,135.3z"/>
		<path class="st15" d="M184.7,128.4c0-7-7.2-13-17.4-15.6c-1-8.9-13.5-15.9-28.7-15.9c-13.3,0-24.5,5.3-27.8,12.5
			c-4.8-2.1-10.8-3.4-17.3-3.4c-9.6,0-18.1,2.8-23.3,7c-4.6-1.8-10.1-2.9-16-2.9c-15.9,0-28.8,7.6-28.8,17
			c0,8.3,10.2,15.3,23.6,16.7c5.2,4.1,13.6,6.8,23.1,6.8c2.3,0,4.5-0.2,6.6-0.5c4.3,1.5,9.4,2.4,14.9,2.4c9.3,0,17.6-2.6,22.9-6.7
			c5.1,4.6,14,7.7,24.1,7.7c11.3,0,21.1-3.9,25.8-9.5C177,141.8,184.7,135.6,184.7,128.4z"/>
	</g>
</g>
</svg>
